<?xml version="1.0" encoding="UTF-8"?>
<svg width="125px" height="40px" viewBox="0 0 125 40" version="1.1" xmlns="http://www.w3.org/2000/svg" xmlns:xlink="http://www.w3.org/1999/xlink">
    <title>wordmark-workload manager</title>
    <g id="Symbols" stroke="none" stroke-width="1" fill="none" fill-rule="evenodd">
        <g id="product-logos/wordmarks/workload-manager" fill="#FFFFFF" fill-rule="nonzero">
            <path d="M106.205,25.105 C106.755003,25.105 107.237498,25.2149989 107.6525,25.435 C108.067502,25.6550011 108.404999,25.9799979 108.665,26.41 L108.665,25.285 L109.94,25.285 L109.94,32.455 C109.94,33.5050053 109.675003,34.3224971 109.145,34.9075 C108.615,35.4925029 107.770006,35.785 106.61,35.785 C105.649995,35.785 104.875003,35.5775021 104.285,35.1625 C103.694997,34.7474979 103.365,34.140004 103.295,33.34 L104.675,33.34 C104.695,33.7900023 104.877498,34.1349988 105.2225,34.375 C105.567502,34.6150012 106.024997,34.735 106.595,34.735 C107.325004,34.735 107.852498,34.5475019 108.1775,34.1725 C108.502502,33.7974981 108.665,33.2850033 108.665,32.635 L108.665,31.435 C108.414999,31.8550021 108.082502,32.1724989 107.6675,32.3875 C107.252498,32.6025011 106.765003,32.71 106.205,32.71 C105.494996,32.71 104.910002,32.5375017 104.45,32.1925 C103.989998,31.8474983 103.652501,31.3900029 103.4375,30.82 C103.222499,30.2499972 103.115,29.6100036 103.115,28.9 C103.115,28.1999965 103.224999,27.5625029 103.445,26.9875 C103.665001,26.4124971 104.004998,25.9550017 104.465,25.615 C104.925002,25.2749983 105.504997,25.105 106.205,25.105 Z M17.39,25.105 C18.190004,25.105 18.8499974,25.2824982 19.37,25.6375 C19.8900026,25.9925018 20.2724988,26.4599971 20.5175,27.04 C20.7625012,27.6200029 20.885,28.2549966 20.885,28.945 C20.885,29.6450035 20.7625012,30.2824971 20.5175,30.8575 C20.2724988,31.4325029 19.8875026,31.8949983 19.3625,32.245 C18.8374974,32.5950018 18.1800039,32.77 17.39,32.77 C16.6099961,32.77 15.9575026,32.5950018 15.4325,32.245 C14.9074974,31.8949983 14.5225012,31.4300029 14.2775,30.85 C14.0324988,30.2699971 13.91,29.6350034 13.91,28.945 C13.91,28.2349965 14.0349987,27.5900029 14.285,27.01 C14.5350012,26.4299971 14.9199974,25.9675017 15.44,25.6225 C15.9600026,25.2774983 16.6099961,25.105 17.39,25.105 Z M98.33,25.105 C99.1000038,25.105 99.7099977,25.2299988 100.16,25.48 C100.610002,25.7300013 100.929999,26.0849977 101.12,26.545 C101.310001,27.0050023 101.405,27.5749966 101.405,28.255 L101.405,32.59 L100.1,32.59 L100.1,31.615 C99.8599988,31.9850019 99.5300021,32.269999 99.11,32.47 C98.6899979,32.670001 98.1850029,32.77 97.595,32.77 C96.7449957,32.77 96.0975022,32.570002 95.6525,32.17 C95.2074978,31.769998 94.985,31.2350033 94.985,30.565 C94.985,29.754996 95.284997,29.1750018 95.885,28.825 C96.485,28.4749982 97.3649942,28.3 98.525,28.3 L100.1,28.3 L100.1,28.06 C100.1,27.6299979 100.047501,27.2750014 99.9425,26.995 C99.8374995,26.7149986 99.6575013,26.5000008 99.4025,26.35 C99.1474987,26.1999993 98.7950022,26.125 98.345,26.125 C97.744997,26.125 97.3025014,26.2499988 97.0175,26.5 C96.7324986,26.7500013 96.59,27.105 96.59,27.565 L95.255,27.565 C95.255,26.7949962 95.5174974,26.1925022 96.0425,25.7575 C96.5675026,25.3224978 97.329995,25.105 98.33,25.105 Z M81.845,25.105 C82.6150038,25.105 83.2249977,25.2299988 83.675,25.48 C84.1250022,25.7300013 84.444999,26.0849977 84.635,26.545 C84.8250009,27.0050023 84.92,27.5749966 84.92,28.255 L84.92,32.59 L83.615,32.59 L83.615,31.615 C83.3749988,31.9850019 83.0450021,32.269999 82.625,32.47 C82.2049979,32.670001 81.7000029,32.77 81.11,32.77 C80.2599957,32.77 79.6125022,32.570002 79.1675,32.17 C78.7224978,31.769998 78.5,31.2350033 78.5,30.565 C78.5,29.754996 78.799997,29.1750018 79.4,28.825 C80,28.4749982 80.8799942,28.3 82.04,28.3 L83.615,28.3 L83.615,28.06 C83.615,27.6299979 83.5625005,27.2750014 83.4575,26.995 C83.3524995,26.7149986 83.1725013,26.5000008 82.9175,26.35 C82.6624987,26.1999993 82.3100022,26.125 81.86,26.125 C81.259997,26.125 80.8175014,26.2499988 80.5325,26.5 C80.2474986,26.7500013 80.105,27.105 80.105,27.565 L78.77,27.565 C78.77,26.7949962 79.0324974,26.1925022 79.5575,25.7575 C80.0825026,25.3224978 80.844995,25.105 81.845,25.105 Z M41.51,25.105 C42.310004,25.105 42.9699974,25.2824982 43.49,25.6375 C44.0100026,25.9925018 44.3924988,26.4599971 44.6375,27.04 C44.8825012,27.6200029 45.005,28.2549966 45.005,28.945 C45.005,29.6450035 44.8825012,30.2824971 44.6375,30.8575 C44.3924988,31.4325029 44.0075026,31.8949983 43.4825,32.245 C42.9574974,32.5950018 42.3000039,32.77 41.51,32.77 C40.7299961,32.77 40.0775026,32.5950018 39.5525,32.245 C39.0274974,31.8949983 38.6425012,31.4300029 38.3975,30.85 C38.1524988,30.2699971 38.03,29.6350034 38.03,28.945 C38.03,28.2349965 38.1549987,27.5900029 38.405,27.01 C38.6550013,26.4299971 39.0399974,25.9675017 39.56,25.6225 C40.0800026,25.2774983 40.7299961,25.105 41.51,25.105 Z M49.58,25.105 C50.3500039,25.105 50.9599977,25.2299988 51.41,25.48 C51.8600023,25.7300013 52.179999,26.0849977 52.37,26.545 C52.5600009,27.0050023 52.655,27.5749966 52.655,28.255 L52.655,32.59 L51.35,32.59 L51.35,31.615 C51.1099988,31.9850019 50.7800021,32.269999 50.36,32.47 C49.9399979,32.670001 49.4350029,32.77 48.845,32.77 C47.9949958,32.77 47.3475022,32.570002 46.9025,32.17 C46.4574978,31.769998 46.235,31.2350033 46.235,30.565 C46.235,29.754996 46.534997,29.1750018 47.135,28.825 C47.735,28.4749982 48.6149942,28.3 49.775,28.3 L51.35,28.3 L51.35,28.06 C51.35,27.6299979 51.2975005,27.2750014 51.1925,26.995 C51.0874995,26.7149986 50.9075013,26.5000008 50.6525,26.35 C50.3974987,26.1999993 50.0450022,26.125 49.595,26.125 C48.994997,26.125 48.5525014,26.2499988 48.2675,26.5 C47.9824986,26.7500013 47.84,27.105 47.84,27.565 L46.505,27.565 C46.505,26.7949962 46.7674974,26.1925022 47.2925,25.7575 C47.8175026,25.3224978 48.579995,25.105 49.58,25.105 Z M115.22,25.105 C115.970004,25.105 116.607497,25.2649984 117.1325,25.585 C117.657503,25.9050016 118.049999,26.3499972 118.31,26.92 C118.450001,27.2400016 118.545,27.5749983 118.595,27.925 C118.645,28.2750018 118.675,28.6999975 118.685,29.2 L113.045,29.2 C113.075,29.9800039 113.262498,30.5899978 113.6075,31.03 C113.952502,31.4700022 114.509996,31.69 115.28,31.69 C115.830003,31.69 116.272498,31.5700012 116.6075,31.33 C116.942502,31.0899988 117.159999,30.7500022 117.26,30.31 L118.61,30.31 C118.53,30.8300026 118.337502,31.2724982 118.0325,31.6375 C117.727498,32.0025018 117.340002,32.2799991 116.87,32.47 C116.399998,32.660001 115.875003,32.755 115.295,32.755 C114.484996,32.755 113.812503,32.5875017 113.2775,32.2525 C112.742497,31.9174983 112.347501,31.4625029 112.0925,30.8875 C111.837499,30.3124971 111.71,29.6600037 111.71,28.93 C111.71,28.2099964 111.837499,27.5600029 112.0925,26.98 C112.347501,26.3999971 112.737497,25.9425017 113.2625,25.6075 C113.787503,25.2724983 114.439996,25.105 115.22,25.105 Z M61.205,22 L61.205,32.59 L59.93,32.59 L59.93,31.435 C59.6799987,31.8750022 59.3475021,32.2049989 58.9325,32.425 C58.5174979,32.6450011 58.0400027,32.755 57.5,32.755 C56.7899964,32.755 56.2000023,32.5825017 55.73,32.2375 C55.2599976,31.8924983 54.9150011,31.4325029 54.695,30.8575 C54.4749989,30.2824971 54.365,29.6400035 54.365,28.93 C54.365,28.2299965 54.4749989,27.5925029 54.695,27.0175 C54.9150011,26.4424971 55.2574977,25.9800017 55.7225,25.63 C56.1875023,25.2799983 56.7799964,25.105 57.5,25.105 C58.0300026,25.105 58.5024979,25.2149989 58.9175,25.435 C59.3325021,25.6550011 59.6649987,25.9799979 59.915,26.41 L59.915,22 L61.205,22 Z M90.74,25.105 C91.5900042,25.105 92.2324978,25.3549975 92.6675,25.855 C93.1025022,26.3550025 93.32,27.0949951 93.32,28.075 L93.32,32.59 L92.03,32.59 L92.03,28.33 C92.03,27.6099964 91.8900014,27.0825017 91.61,26.7475 C91.3299986,26.4124983 90.9000029,26.245 90.32,26.245 C89.7099969,26.245 89.2425016,26.4199983 88.9175,26.77 C88.5924984,27.1200018 88.43,27.6349966 88.43,28.315 L88.43,32.59 L87.125,32.59 L87.125,25.285 L88.43,25.285 L88.43,26.305 C88.6700012,25.904998 88.984998,25.605 89.375,25.405 C89.7650019,25.204999 90.2199974,25.105 90.74,25.105 Z M25.805,25.195 C26.0650013,25.195 26.2999989,25.2249997 26.51,25.285 L26.51,26.455 C26.309999,26.4049998 26.0850012,26.38 25.835,26.38 C25.2149969,26.38 24.7450016,26.5724981 24.425,26.9575 C24.1049984,27.3425019 23.945,27.8849965 23.945,28.585 L23.945,32.59 L22.64,32.59 L22.64,25.285 L23.93,25.285 L23.93,26.275 C24.1100009,25.9249983 24.3574984,25.6575009 24.6725,25.4725 C24.9875016,25.2874991 25.3649978,25.195 25.805,25.195 Z M123.59,25.195 C123.850001,25.195 124.084999,25.2249997 124.295,25.285 L124.295,26.455 C124.094999,26.4049998 123.870001,26.38 123.62,26.38 C122.999997,26.38 122.530002,26.5724981 122.21,26.9575 C121.889998,27.3425019 121.73,27.8849965 121.73,28.585 L121.73,32.59 L120.425,32.59 L120.425,25.285 L121.715,25.285 L121.715,26.275 C121.895001,25.9249983 122.142498,25.6575009 122.4575,25.4725 C122.772502,25.2874991 123.149998,25.195 123.59,25.195 Z M68.135,22 L71.495,30.31 L74.87,22 L76.55,22 L76.55,32.59 L75.23,32.59 L75.23,24.16 L71.84,32.59 L71.15,32.59 L67.745,24.16 L67.745,32.59 L66.425,32.59 L66.425,22 L68.135,22 Z M1.88,22 L4.16,30.61 L6.365,22 L7.865,22 L10.04,30.565 L12.335,22 L13.685,22 L10.805,32.59 L9.32,32.59 L7.1,23.905 L4.88,32.59 L3.425,32.59 L0.5,22 L1.88,22 Z M29.165,22 L29.165,28.075 L31.895,25.285 L33.56,25.285 L30.35,28.525 L33.92,32.59 L32.24,32.59 L29.165,28.975 L29.165,32.59 L27.86,32.59 L27.86,22 L29.165,22 Z M36.275,22 L36.275,32.59 L34.97,32.59 L34.97,22 L36.275,22 Z M51.35,29.23 L49.88,29.23 C49.1199962,29.23 48.5550019,29.3199991 48.185,29.5 C47.8149982,29.6800009 47.63,29.9949978 47.63,30.445 C47.63,30.845002 47.7649987,31.1574989 48.035,31.3825 C48.3050014,31.6075011 48.6999974,31.72 49.22,31.72 C50.0000039,31.72 50.5499984,31.5025022 50.87,31.0675 C51.1900016,30.6324978 51.35,30.0300038 51.35,29.26 L51.35,29.23 Z M83.615,29.23 L82.145,29.23 C81.3849962,29.23 80.8200018,29.3199991 80.45,29.5 C80.0799981,29.6800009 79.895,29.9949978 79.895,30.445 C79.895,30.845002 80.0299986,31.1574989 80.3,31.3825 C80.5700013,31.6075011 80.9649974,31.72 81.485,31.72 C82.2650039,31.72 82.8149984,31.5025022 83.135,31.0675 C83.4550016,30.6324978 83.615,30.0300038 83.615,29.26 L83.615,29.23 Z M100.1,29.23 L98.63,29.23 C97.8699962,29.23 97.3050018,29.3199991 96.935,29.5 C96.5649981,29.6800009 96.38,29.9949978 96.38,30.445 C96.38,30.845002 96.5149986,31.1574989 96.785,31.3825 C97.0550013,31.6075011 97.4499974,31.72 97.97,31.72 C98.7500039,31.72 99.2999984,31.5025022 99.62,31.0675 C99.9400016,30.6324978 100.1,30.0300038 100.1,29.26 L100.1,29.23 Z M41.51,26.245 C40.7499962,26.245 40.2075016,26.4974975 39.8825,27.0025 C39.5574984,27.5075025 39.395,28.1549961 39.395,28.945 C39.395,29.745 39.5624983,30.3924975 39.8975,30.8875 C40.2325017,31.3825025 40.7699963,31.63 41.51,31.63 C42.2800039,31.63 42.8249984,31.3775025 43.145,30.8725 C43.4650016,30.3674975 43.625,29.7250039 43.625,28.945 C43.625,28.134996 43.4625016,27.4825025 43.1375,26.9875 C42.8124984,26.4924975 42.2700038,26.245 41.51,26.245 Z M17.39,26.245 C16.6299962,26.245 16.0875016,26.4974975 15.7625,27.0025 C15.4374984,27.5075025 15.275,28.1549961 15.275,28.945 C15.275,29.745 15.4424983,30.3924975 15.7775,30.8875 C16.1125017,31.3825025 16.6499963,31.63 17.39,31.63 C18.1600039,31.63 18.7049984,31.3775025 19.025,30.8725 C19.3450016,30.3674975 19.505,29.7250039 19.505,28.945 C19.505,28.134996 19.3425016,27.4825025 19.0175,26.9875 C18.6924984,26.4924975 18.1500038,26.245 17.39,26.245 Z M57.86,26.245 C57.1199963,26.245 56.5800017,26.4949975 56.24,26.995 C55.8999983,27.4950025 55.73,28.1399961 55.73,28.93 C55.73,29.730004 55.8974983,30.3799975 56.2325,30.88 C56.5675017,31.3800025 57.1099963,31.63 57.86,31.63 C58.5100033,31.63 59.0149982,31.4125022 59.375,30.9775 C59.7350018,30.5424978 59.915,29.9300039 59.915,29.14 L59.915,28.72 C59.915,27.9399961 59.7350018,27.3325022 59.375,26.8975 C59.0149982,26.4624978 58.5100033,26.245 57.86,26.245 Z M106.595,26.245 C105.854996,26.245 105.317502,26.4949975 104.9825,26.995 C104.647498,27.4950025 104.48,28.1349961 104.48,28.915 C104.48,29.705004 104.647498,30.3524975 104.9825,30.8575 C105.317502,31.3625025 105.854996,31.615 106.595,31.615 C107.245003,31.615 107.752498,31.4000022 108.1175,30.97 C108.482502,30.5399979 108.665,29.9300039 108.665,29.14 L108.665,28.705 C108.665,27.9249961 108.482502,27.3200022 108.1175,26.89 C107.752498,26.4599979 107.245003,26.245 106.595,26.245 Z M115.22,26.155 C113.969994,26.155 113.260001,26.8449931 113.09,28.225 L117.305,28.225 C117.245,27.5649967 117.050002,27.0550018 116.72,26.695 C116.389998,26.3349982 115.890003,26.155 115.22,26.155 Z M33.1914071,7.21833333 L33.1914071,12.5658333 C33.1914071,14.0808333 34.0709175,14.995 35.3076236,14.995 C36.5443298,14.995 37.4238401,14.0808333 37.4238401,12.5658333 L37.4238401,12.5658333 L37.4238401,7.21833333 L39.6630533,7.21833333 L39.6630533,12.48 C39.6630533,15.2508333 37.9040326,17 35.3076236,17 C32.7103722,17 30.9513515,15.2508333 30.9513515,12.48 L30.9513515,12.48 L30.9513515,7.21833333 L33.1914071,7.21833333 Z M5.15153822,7 C6.55841783,7 7.77490535,7.52166667 8.64683373,8.41166667 L8.64683373,8.41166667 L7.20372908,9.83916667 C6.62918303,9.30083333 5.97207759,9.02083333 5.17596906,9.02083333 C3.52225369,9.02083333 2.32345747,10.3091667 2.32345747,11.9991667 C2.32345747,13.6891667 3.52225369,14.98 5.17596906,14.98 C6.07906783,14.98 6.77071344,14.6391667 7.35031414,14.0058333 L7.35031414,14.0058333 L8.78583681,15.4258333 C7.90885377,16.4125 6.62160105,17 5.15153822,17 C2.24258295,17 0,14.8041667 0,12 C0,9.19666667 2.24258295,7 5.15153822,7 Z M23.6482141,7 C26.6144555,7 28.7542604,9.2025 28.7542604,12.0141667 C28.7542604,14.81 26.6144555,17 23.6482141,17 C20.6828152,17 18.5430103,14.81 18.5430103,12.0141667 C18.5430103,9.2025 20.6828152,7 23.6482141,7 Z M78.8728723,7.21833333 L83,16.7816667 L80.7346711,16.7816667 L79.9503568,14.83 L75.8341809,14.83 L75.050709,16.7816667 L72.7853801,16.7816667 L76.8670158,7.21833333 L78.8728723,7.21833333 Z M68.1089796,7.21833333 C69.3515829,7.21833333 70.2639485,7.51833333 70.9185266,8.07166667 C71.5731048,8.625 71.9538889,9.475 71.9538889,10.4866667 C71.9538889,11.7533333 71.4096708,13.0691667 69.4956406,13.5641667 L72.2537986,16.7816667 L69.6464379,16.7816667 L67.078672,13.7625 L65.8453356,13.7625 L65.8453356,16.7816667 L63.6507719,16.7816667 L63.6507719,7.21833333 L68.1089796,7.21833333 Z M13.1876009,7.21833333 L13.1876009,14.8358333 L17.7233133,14.8358333 L17.7233133,16.7816667 L10.9483877,16.7816667 L10.9483877,7.21833333 L13.1876009,7.21833333 Z M46.2349502,7.21833333 C49.4084325,7.21833333 51.6341666,9.14 51.6341666,12 C51.6341666,14.86 49.5019437,16.7816667 46.3293038,16.7816667 L42.454909,16.7816667 L42.454909,7.21833333 L46.2349502,7.21833333 Z M61.0274048,14.805 L61.0274048,16.7816667 L52.6518376,16.7816667 C53.2129046,16.215 53.6627691,15.5541667 53.9770003,14.805 L53.9770003,14.805 L61.0274048,14.805 Z M23.6482141,9.00583333 C22.0214569,9.00583333 20.8664677,10.2708333 20.8664677,12.015 C20.8664677,13.7416667 22.0214569,14.995 23.6482141,14.995 C25.2766562,14.995 26.430803,13.7416667 26.430803,12.015 C26.430803,10.2708333 25.2766562,9.00583333 23.6482141,9.00583333 Z M46.1709246,9.13 L44.6941222,9.13 L44.6941222,14.87 L46.1709246,14.87 C48.0487297,14.87 49.3098667,13.7266667 49.3098667,12 C49.3098667,10.2733333 48.0487297,9.13 46.1709246,9.13 Z M77.8922688,9.70416667 L76.5468875,13.055 L79.2376501,13.055 L77.8922688,9.70416667 Z M59.837033,10.99 L59.837033,12.9475 L54.453823,12.9475 C54.490048,12.6466667 54.5144789,12.34 54.5144789,12.0225 C54.5144789,11.6666667 54.482466,11.325 54.4352892,10.99 L54.4352892,10.99 L59.837033,10.99 Z M67.985983,9.08666667 L65.8453356,9.08666667 L65.8453356,11.9583333 L67.9927225,11.9583333 C68.5672686,11.9583333 68.9758534,11.83 69.2656537,11.5833333 C69.5386052,11.3508333 69.7163606,10.9516667 69.7163606,10.5175 C69.7163606,10.095 69.5453447,9.7 69.2858723,9.47416667 C68.9927022,9.21916667 68.5714808,9.08666667 67.985983,9.08666667 Z M60.9835977,7.21833333 L60.9835977,9.195 L53.9399328,9.195 C53.6063254,8.44416667 53.1311876,7.78416667 52.5448474,7.21833333 L60.9835977,7.21833333 Z" id="cloudera-workload-manager"></path>
        </g>
    </g>
</svg>