<?xml version="1.0" encoding="UTF-8"?>
<svg width="83px" height="40px" viewBox="0 0 83 40" version="1.1" xmlns="http://www.w3.org/2000/svg" xmlns:xlink="http://www.w3.org/1999/xlink">
    <title>wordmark-data flow</title>
    <g id="Symbols" stroke="none" stroke-width="1" fill="none" fill-rule="evenodd">
        <g id="logo/service-copy" fill="#FFFFFF">
            <path d="M4.435,32.59 C8.05,32.59 9.265,30.31 9.265,27.295 C9.265,24.325 8.08,22 4.435,22 L1,22 L1,32.59 L4.435,32.59 Z M4.255,31.42 L2.395,31.42 L2.395,23.17 L4.255,23.17 C7.075,23.17 7.795,24.91 7.795,27.295 C7.795,29.635 7.105,31.42 4.255,31.42 Z M13.225,32.77 C14.425,32.77 15.25,32.35 15.73,31.615 L15.73,32.59 L17.035,32.59 L17.035,28.255 C17.035,26.335 16.345,25.105 13.96,25.105 C11.92,25.105 10.885,26.05 10.885,27.565 L12.22,27.565 C12.22,26.68 12.73,26.125 13.975,26.125 C15.355,26.125 15.73,26.83 15.73,28.06 L15.73,28.3 L14.155,28.3 C11.95,28.3 10.615,28.87 10.615,30.565 C10.615,31.87 11.47,32.77 13.225,32.77 Z M13.6,31.72 C12.535,31.72 12.01,31.24 12.01,30.445 C12.01,29.5 12.835,29.23 14.26,29.23 L15.73,29.23 L15.73,29.26 C15.73,30.655 15.265,31.72 13.6,31.72 Z M21.445,32.71 C21.835,32.71 22.3,32.65 22.675,32.56 L22.675,31.48 C22.39,31.555 22.075,31.6 21.805,31.6 C21.025,31.6 20.62,31.195 20.62,30.265 L20.62,26.365 L22.705,26.365 L22.705,25.285 L20.62,25.285 L20.62,23.515 L19.33,23.515 L19.33,25.285 L18.19,25.285 L18.19,26.365 L19.33,26.365 L19.33,30.445 C19.33,32.05 19.975,32.71 21.445,32.71 Z M26.44,32.77 C27.64,32.77 28.465,32.35 28.945,31.615 L28.945,32.59 L30.25,32.59 L30.25,28.255 C30.25,26.335 29.56,25.105 27.175,25.105 C25.135,25.105 24.1,26.05 24.1,27.565 L25.435,27.565 C25.435,26.68 25.945,26.125 27.19,26.125 C28.57,26.125 28.945,26.83 28.945,28.06 L28.945,28.3 L27.37,28.3 C25.165,28.3 23.83,28.87 23.83,30.565 C23.83,31.87 24.685,32.77 26.44,32.77 Z M26.815,31.72 C25.75,31.72 25.225,31.24 25.225,30.445 C25.225,29.5 26.05,29.23 27.475,29.23 L28.945,29.23 L28.945,29.26 C28.945,30.655 28.48,31.72 26.815,31.72 Z M34.075,32.59 L34.075,27.775 L38.53,27.775 L38.53,26.605 L34.075,26.605 L34.075,23.17 L38.56,23.17 L38.56,22 L32.68,22 L32.68,32.59 L34.075,32.59 Z M41.635,32.59 L41.635,22 L40.33,22 L40.33,32.59 L41.635,32.59 Z M46.87,32.77 C49.36,32.77 50.365,30.94 50.365,28.945 C50.365,26.98 49.375,25.105 46.87,25.105 C44.44,25.105 43.39,26.905 43.39,28.945 C43.39,30.925 44.41,32.77 46.87,32.77 Z M46.87,31.63 C45.28,31.63 44.755,30.4 44.755,28.945 C44.755,27.565 45.22,26.245 46.87,26.245 C48.505,26.245 48.985,27.49 48.985,28.945 C48.985,30.295 48.55,31.63 46.87,31.63 Z M54.85,32.59 L56.44,27.01 L58.045,32.59 L59.32,32.59 L61.825,25.285 L60.43,25.285 L58.675,30.91 L57.025,25.285 L55.855,25.285 L54.19,30.925 L52.45,25.285 L51.055,25.285 L53.56,32.59 L54.85,32.59 Z" id="DataFlow" fill-rule="nonzero"></path>
            <g id="logo/cloudera/cloudera-white" transform="translate(0.000000, 7.000000)">
                <path d="M37.4238401,5.56583333 C37.4238401,7.08083333 36.5443298,7.995 35.3076236,7.995 C34.0709175,7.995 33.1914071,7.08083333 33.1914071,5.56583333 L33.1914071,0.218333333 L30.9513515,0.218333333 L30.9513515,5.48 C30.9513515,8.25083333 32.7103722,10 35.3076236,10 C37.9040326,10 39.6630533,8.25083333 39.6630533,5.48 L39.6630533,0.218333333 L37.4238401,0.218333333 L37.4238401,5.56583333 Z M79.2376501,6.055 L77.8922688,2.70416667 L76.5468875,6.055 L79.2376501,6.055 Z M83,9.78166667 L80.7346711,9.78166667 L79.9503568,7.83 L75.8341809,7.83 L75.050709,9.78166667 L72.7853801,9.78166667 L76.8670158,0.218333333 L78.8728723,0.218333333 L83,9.78166667 Z M69.7163606,3.5175 C69.7163606,3.095 69.5453447,2.7 69.2858723,2.47416667 C68.9927022,2.21916667 68.5714808,2.08666667 67.985983,2.08666667 L65.8453356,2.08666667 L65.8453356,4.95833333 L67.9927225,4.95833333 C68.5672686,4.95833333 68.9758534,4.83 69.2656537,4.58333333 C69.5386052,4.35083333 69.7163606,3.95166667 69.7163606,3.5175 L69.7163606,3.5175 Z M69.4956406,6.56416667 L72.2537986,9.78166667 L69.6464379,9.78166667 L67.078672,6.7625 L65.8453356,6.7625 L65.8453356,9.78166667 L63.6507719,9.78166667 L63.6507719,0.218333333 L68.1089796,0.218333333 C69.3515829,0.218333333 70.2639485,0.518333333 70.9185266,1.07166667 C71.5731048,1.625 71.9538889,2.475 71.9538889,3.48666667 C71.9538889,4.75333333 71.4096708,6.06916667 69.4956406,6.56416667 L69.4956406,6.56416667 Z M13.1876009,0.218333333 L10.9483877,0.218333333 L10.9483877,9.78166667 L17.7233133,9.78166667 L17.7233133,7.83583333 L13.1876009,7.83583333 L13.1876009,0.218333333 Z M5.17596906,7.98 C3.52225369,7.98 2.32345747,6.68916667 2.32345747,4.99916667 C2.32345747,3.30916667 3.52225369,2.02083333 5.17596906,2.02083333 C5.97207759,2.02083333 6.62918303,2.30083333 7.20372908,2.83916667 L8.64683373,1.41166667 C7.77490535,0.521666667 6.55841783,0 5.15153822,0 C2.24258295,0 0,2.19666667 0,5 C0,7.80416667 2.24258295,10 5.15153822,10 C6.62160105,10 7.90885377,9.4125 8.78583681,8.42583333 L7.35031414,7.00583333 C6.77071344,7.63916667 6.07906783,7.98 5.17596906,7.98 L5.17596906,7.98 Z M49.3098667,5 C49.3098667,3.27333333 48.0487297,2.13 46.1709246,2.13 L44.6941222,2.13 L44.6941222,7.87 L46.1709246,7.87 C48.0487297,7.87 49.3098667,6.72666667 49.3098667,5 L49.3098667,5 Z M51.6341666,5 C51.6341666,7.86 49.5019437,9.78166667 46.3293038,9.78166667 L42.454909,9.78166667 L42.454909,0.218333333 L46.2349502,0.218333333 C49.4084325,0.218333333 51.6341666,2.14 51.6341666,5 L51.6341666,5 Z M26.430803,5.015 C26.430803,3.27083333 25.2766562,2.00583333 23.6482141,2.00583333 C22.0214569,2.00583333 20.8664677,3.27083333 20.8664677,5.015 C20.8664677,6.74166667 22.0214569,7.995 23.6482141,7.995 C25.2766562,7.995 26.430803,6.74166667 26.430803,5.015 L26.430803,5.015 Z M28.7542604,5.01416667 C28.7542604,7.81 26.6144555,10 23.6482141,10 C20.6828152,10 18.5430103,7.81 18.5430103,5.01416667 C18.5430103,2.2025 20.6828152,0 23.6482141,0 C26.6144555,0 28.7542604,2.2025 28.7542604,5.01416667 L28.7542604,5.01416667 Z M52.6518376,9.78166667 L61.0274048,9.78166667 L61.0274048,7.805 L53.9770003,7.805 C53.6627691,8.55416667 53.2129046,9.215 52.6518376,9.78166667 L52.6518376,9.78166667 Z M59.837033,5.9475 L59.837033,3.99 L54.4352892,3.99 C54.482466,4.325 54.5144789,4.66666667 54.5144789,5.0225 C54.5144789,5.34 54.490048,5.64666667 54.453823,5.9475 L59.837033,5.9475 Z M52.5448474,0.218333333 L60.9835977,0.218333333 L60.9835977,2.195 L53.9399328,2.195 C53.6063254,1.44416667 53.1311876,0.784166667 52.5448474,0.218333333 L52.5448474,0.218333333 Z" id="cloudera"></path>
            </g>
        </g>
    </g>
</svg>