<?xml version="1.0" encoding="UTF-8"?>
<svg width="114px" height="40px" viewBox="0 0 114 40" version="1.1" xmlns="http://www.w3.org/2000/svg" xmlns:xlink="http://www.w3.org/1999/xlink">
    <title>wordmark-data engineering</title>
    <g id="Symbols" stroke="none" stroke-width="1" fill="none" fill-rule="evenodd">
        <g id="product-logos/wordmarks/data-engineering" fill="#FFFFFF">
            <path d="M4.435,32.59 C8.05,32.59 9.265,30.31 9.265,27.295 C9.265,24.325 8.08,22 4.435,22 L1,22 L1,32.59 L4.435,32.59 Z M4.255,31.42 L2.395,31.42 L2.395,23.17 L4.255,23.17 C7.075,23.17 7.795,24.91 7.795,27.295 C7.795,29.635 7.105,31.42 4.255,31.42 Z M13.225,32.77 C14.425,32.77 15.25,32.35 15.73,31.615 L15.73,32.59 L17.035,32.59 L17.035,28.255 C17.035,26.335 16.345,25.105 13.96,25.105 C11.92,25.105 10.885,26.05 10.885,27.565 L12.22,27.565 C12.22,26.68 12.73,26.125 13.975,26.125 C15.355,26.125 15.73,26.83 15.73,28.06 L15.73,28.3 L14.155,28.3 C11.95,28.3 10.615,28.87 10.615,30.565 C10.615,31.87 11.47,32.77 13.225,32.77 Z M13.6,31.72 C12.535,31.72 12.01,31.24 12.01,30.445 C12.01,29.5 12.835,29.23 14.26,29.23 L15.73,29.23 L15.73,29.26 C15.73,30.655 15.265,31.72 13.6,31.72 Z M21.445,32.71 C21.835,32.71 22.3,32.65 22.675,32.56 L22.675,31.48 C22.39,31.555 22.075,31.6 21.805,31.6 C21.025,31.6 20.62,31.195 20.62,30.265 L20.62,26.365 L22.705,26.365 L22.705,25.285 L20.62,25.285 L20.62,23.515 L19.33,23.515 L19.33,25.285 L18.19,25.285 L18.19,26.365 L19.33,26.365 L19.33,30.445 C19.33,32.05 19.975,32.71 21.445,32.71 Z M26.44,32.77 C27.64,32.77 28.465,32.35 28.945,31.615 L28.945,32.59 L30.25,32.59 L30.25,28.255 C30.25,26.335 29.56,25.105 27.175,25.105 C25.135,25.105 24.1,26.05 24.1,27.565 L25.435,27.565 C25.435,26.68 25.945,26.125 27.19,26.125 C28.57,26.125 28.945,26.83 28.945,28.06 L28.945,28.3 L27.37,28.3 C25.165,28.3 23.83,28.87 23.83,30.565 C23.83,31.87 24.685,32.77 26.44,32.77 Z M26.815,31.72 C25.75,31.72 25.225,31.24 25.225,30.445 C25.225,29.5 26.05,29.23 27.475,29.23 L28.945,29.23 L28.945,29.26 C28.945,30.655 28.48,31.72 26.815,31.72 Z M41.455,32.59 L41.455,31.42 L36.805,31.42 L36.805,27.775 L41.41,27.775 L41.41,26.605 L36.805,26.605 L36.805,23.17 L41.455,23.17 L41.455,22 L35.41,22 L35.41,32.59 L41.455,32.59 Z M44.65,32.59 L44.65,28.315 C44.65,26.95 45.34,26.245 46.54,26.245 C47.695,26.245 48.25,26.875 48.25,28.33 L48.25,32.59 L49.54,32.59 L49.54,28.075 C49.54,26.11 48.655,25.105 46.96,25.105 C45.925,25.105 45.13,25.495 44.65,26.305 L44.65,25.285 L43.345,25.285 L43.345,32.59 L44.65,32.59 Z M54.73,35.785 C57.16,35.785 58.06,34.435 58.06,32.455 L58.06,25.285 L56.785,25.285 L56.785,26.41 C56.275,25.555 55.435,25.105 54.325,25.105 C52.135,25.105 51.235,26.89 51.235,28.9 C51.235,30.91 52.105,32.71 54.325,32.71 C55.435,32.71 56.275,32.275 56.785,31.435 L56.785,32.635 C56.785,33.82 56.275,34.735 54.715,34.735 C53.605,34.735 52.84,34.27 52.795,33.34 L51.415,33.34 C51.55,34.975 52.855,35.785 54.73,35.785 Z M54.715,31.615 C53.14,31.615 52.6,30.34 52.6,28.915 C52.6,27.52 53.125,26.245 54.715,26.245 C56.005,26.245 56.785,27.13 56.785,28.705 L56.785,29.14 C56.785,30.715 56.02,31.615 54.715,31.615 Z M60.985,23.695 C61.465,23.695 61.855,23.335 61.855,22.855 C61.855,22.36 61.465,22 60.985,22 C60.49,22 60.13,22.36 60.13,22.855 C60.13,23.335 60.49,23.695 60.985,23.695 Z M61.63,32.59 L61.63,25.285 L60.325,25.285 L60.325,32.59 L61.63,32.59 Z M65.185,32.59 L65.185,28.315 C65.185,26.95 65.875,26.245 67.075,26.245 C68.23,26.245 68.785,26.875 68.785,28.33 L68.785,32.59 L70.075,32.59 L70.075,28.075 C70.075,26.11 69.19,25.105 67.495,25.105 C66.46,25.105 65.665,25.495 65.185,26.305 L65.185,25.285 L63.88,25.285 L63.88,32.59 L65.185,32.59 Z M75.355,32.755 C77.08,32.755 78.415,31.9 78.67,30.31 L77.32,30.31 C77.125,31.195 76.435,31.69 75.34,31.69 C73.705,31.69 73.165,30.64 73.105,29.2 L78.745,29.2 C78.73,28.255 78.655,27.595 78.37,26.92 C77.86,25.81 76.81,25.105 75.28,25.105 C72.85,25.105 71.77,26.83 71.77,28.93 C71.77,31.045 72.835,32.755 75.355,32.755 Z M77.365,28.225 L73.15,28.225 C73.3,27.025 73.87,26.155 75.28,26.155 C76.69,26.155 77.245,26.98 77.365,28.225 Z M83.575,32.755 C85.3,32.755 86.635,31.9 86.89,30.31 L85.54,30.31 C85.345,31.195 84.655,31.69 83.56,31.69 C81.925,31.69 81.385,30.64 81.325,29.2 L86.965,29.2 C86.95,28.255 86.875,27.595 86.59,26.92 C86.08,25.81 85.03,25.105 83.5,25.105 C81.07,25.105 79.99,26.83 79.99,28.93 C79.99,31.045 81.055,32.755 83.575,32.755 Z M85.585,28.225 L81.37,28.225 C81.52,27.025 82.09,26.155 83.5,26.155 C84.91,26.155 85.465,26.98 85.585,28.225 Z M90.01,32.59 L90.01,28.585 C90.01,27.205 90.64,26.38 91.9,26.38 C92.125,26.38 92.395,26.41 92.575,26.455 L92.575,25.285 C92.365,25.225 92.14,25.195 91.87,25.195 C90.97,25.195 90.34,25.6 89.995,26.275 L89.995,25.285 L88.705,25.285 L88.705,32.59 L90.01,32.59 Z M94.585,23.695 C95.065,23.695 95.455,23.335 95.455,22.855 C95.455,22.36 95.065,22 94.585,22 C94.09,22 93.73,22.36 93.73,22.855 C93.73,23.335 94.09,23.695 94.585,23.695 Z M95.23,32.59 L95.23,25.285 L93.925,25.285 L93.925,32.59 L95.23,32.59 Z M98.785,32.59 L98.785,28.315 C98.785,26.95 99.475,26.245 100.675,26.245 C101.83,26.245 102.385,26.875 102.385,28.33 L102.385,32.59 L103.675,32.59 L103.675,28.075 C103.675,26.11 102.79,25.105 101.095,25.105 C100.06,25.105 99.265,25.495 98.785,26.305 L98.785,25.285 L97.48,25.285 L97.48,32.59 L98.785,32.59 Z M108.865,35.785 C111.295,35.785 112.195,34.435 112.195,32.455 L112.195,25.285 L110.92,25.285 L110.92,26.41 C110.41,25.555 109.57,25.105 108.46,25.105 C106.27,25.105 105.37,26.89 105.37,28.9 C105.37,30.91 106.24,32.71 108.46,32.71 C109.57,32.71 110.41,32.275 110.92,31.435 L110.92,32.635 C110.92,33.82 110.41,34.735 108.85,34.735 C107.74,34.735 106.975,34.27 106.93,33.34 L105.55,33.34 C105.685,34.975 106.99,35.785 108.865,35.785 Z M108.85,31.615 C107.275,31.615 106.735,30.34 106.735,28.915 C106.735,27.52 107.26,26.245 108.85,26.245 C110.14,26.245 110.92,27.13 110.92,28.705 L110.92,29.14 C110.92,30.715 110.155,31.615 108.85,31.615 Z" id="DataEngineering" fill-rule="nonzero"></path>
            <g id="logo/cloudera/cloudera-white" transform="translate(0.000000, 7.000000)">
                <path d="M37.4238401,5.56583333 C37.4238401,7.08083333 36.5443298,7.995 35.3076236,7.995 C34.0709175,7.995 33.1914071,7.08083333 33.1914071,5.56583333 L33.1914071,0.218333333 L30.9513515,0.218333333 L30.9513515,5.48 C30.9513515,8.25083333 32.7103722,10 35.3076236,10 C37.9040326,10 39.6630533,8.25083333 39.6630533,5.48 L39.6630533,0.218333333 L37.4238401,0.218333333 L37.4238401,5.56583333 Z M79.2376501,6.055 L77.8922688,2.70416667 L76.5468875,6.055 L79.2376501,6.055 Z M83,9.78166667 L80.7346711,9.78166667 L79.9503568,7.83 L75.8341809,7.83 L75.050709,9.78166667 L72.7853801,9.78166667 L76.8670158,0.218333333 L78.8728723,0.218333333 L83,9.78166667 Z M69.7163606,3.5175 C69.7163606,3.095 69.5453447,2.7 69.2858723,2.47416667 C68.9927022,2.21916667 68.5714808,2.08666667 67.985983,2.08666667 L65.8453356,2.08666667 L65.8453356,4.95833333 L67.9927225,4.95833333 C68.5672686,4.95833333 68.9758534,4.83 69.2656537,4.58333333 C69.5386052,4.35083333 69.7163606,3.95166667 69.7163606,3.5175 L69.7163606,3.5175 Z M69.4956406,6.56416667 L72.2537986,9.78166667 L69.6464379,9.78166667 L67.078672,6.7625 L65.8453356,6.7625 L65.8453356,9.78166667 L63.6507719,9.78166667 L63.6507719,0.218333333 L68.1089796,0.218333333 C69.3515829,0.218333333 70.2639485,0.518333333 70.9185266,1.07166667 C71.5731048,1.625 71.9538889,2.475 71.9538889,3.48666667 C71.9538889,4.75333333 71.4096708,6.06916667 69.4956406,6.56416667 L69.4956406,6.56416667 Z M13.1876009,0.218333333 L10.9483877,0.218333333 L10.9483877,9.78166667 L17.7233133,9.78166667 L17.7233133,7.83583333 L13.1876009,7.83583333 L13.1876009,0.218333333 Z M5.17596906,7.98 C3.52225369,7.98 2.32345747,6.68916667 2.32345747,4.99916667 C2.32345747,3.30916667 3.52225369,2.02083333 5.17596906,2.02083333 C5.97207759,2.02083333 6.62918303,2.30083333 7.20372908,2.83916667 L8.64683373,1.41166667 C7.77490535,0.521666667 6.55841783,0 5.15153822,0 C2.24258295,0 0,2.19666667 0,5 C0,7.80416667 2.24258295,10 5.15153822,10 C6.62160105,10 7.90885377,9.4125 8.78583681,8.42583333 L7.35031414,7.00583333 C6.77071344,7.63916667 6.07906783,7.98 5.17596906,7.98 L5.17596906,7.98 Z M49.3098667,5 C49.3098667,3.27333333 48.0487297,2.13 46.1709246,2.13 L44.6941222,2.13 L44.6941222,7.87 L46.1709246,7.87 C48.0487297,7.87 49.3098667,6.72666667 49.3098667,5 L49.3098667,5 Z M51.6341666,5 C51.6341666,7.86 49.5019437,9.78166667 46.3293038,9.78166667 L42.454909,9.78166667 L42.454909,0.218333333 L46.2349502,0.218333333 C49.4084325,0.218333333 51.6341666,2.14 51.6341666,5 L51.6341666,5 Z M26.430803,5.015 C26.430803,3.27083333 25.2766562,2.00583333 23.6482141,2.00583333 C22.0214569,2.00583333 20.8664677,3.27083333 20.8664677,5.015 C20.8664677,6.74166667 22.0214569,7.995 23.6482141,7.995 C25.2766562,7.995 26.430803,6.74166667 26.430803,5.015 L26.430803,5.015 Z M28.7542604,5.01416667 C28.7542604,7.81 26.6144555,10 23.6482141,10 C20.6828152,10 18.5430103,7.81 18.5430103,5.01416667 C18.5430103,2.2025 20.6828152,0 23.6482141,0 C26.6144555,0 28.7542604,2.2025 28.7542604,5.01416667 L28.7542604,5.01416667 Z M52.6518376,9.78166667 L61.0274048,9.78166667 L61.0274048,7.805 L53.9770003,7.805 C53.6627691,8.55416667 53.2129046,9.215 52.6518376,9.78166667 L52.6518376,9.78166667 Z M59.837033,5.9475 L59.837033,3.99 L54.4352892,3.99 C54.482466,4.325 54.5144789,4.66666667 54.5144789,5.0225 C54.5144789,5.34 54.490048,5.64666667 54.453823,5.9475 L59.837033,5.9475 Z M52.5448474,0.218333333 L60.9835977,0.218333333 L60.9835977,2.195 L53.9399328,2.195 C53.6063254,1.44416667 53.1311876,0.784166667 52.5448474,0.218333333 L52.5448474,0.218333333 Z" id="cloudera"></path>
            </g>
        </g>
    </g>
</svg>