<?xml version="1.0" encoding="UTF-8"?>
<svg width="118px" height="40px" viewBox="0 0 118 40" version="1.1" xmlns="http://www.w3.org/2000/svg" xmlns:xlink="http://www.w3.org/1999/xlink">
    <title>wordmark-data warehouse</title>
    <g id="Symbols" stroke="none" stroke-width="1" fill="none" fill-rule="evenodd">
        <g id="product-logos/wordmarks/data-warehouse" fill="#FFFFFF" fill-rule="nonzero">
            <path d="M80.62,25.105 C81.420004,25.105 82.0799974,25.2824982 82.6,25.6375 C83.1200026,25.9925018 83.5024988,26.4599971 83.7475,27.04 C83.9925012,27.6200029 84.115,28.2549966 84.115,28.945 C84.115,29.6450035 83.9925012,30.2824971 83.7475,30.8575 C83.5024988,31.4325029 83.1175026,31.8949983 82.5925,32.245 C82.0674974,32.5950018 81.4100039,32.77 80.62,32.77 C79.8399961,32.77 79.1875026,32.5950018 78.6625,32.245 C78.1374974,31.8949983 77.7525012,31.4300029 77.5075,30.85 C77.2624988,30.2699971 77.14,29.6350035 77.14,28.945 C77.14,28.2349965 77.2649988,27.5900029 77.515,27.01 C77.7650012,26.4299971 78.1499974,25.9675017 78.67,25.6225 C79.1900026,25.2774983 79.8399961,25.105 80.62,25.105 Z M13.96,25.105 C14.7300039,25.105 15.3399978,25.2299988 15.79,25.48 C16.2400023,25.7300013 16.5599991,26.0849977 16.75,26.545 C16.940001,27.0050023 17.035,27.5749966 17.035,28.255 L17.035,32.59 L15.73,32.59 L15.73,31.615 C15.4899988,31.9850019 15.1600021,32.269999 14.74,32.47 C14.3199979,32.670001 13.815003,32.77 13.225,32.77 C12.3749958,32.77 11.7275022,32.570002 11.2825,32.17 C10.8374978,31.769998 10.615,31.2350034 10.615,30.565 C10.615,29.754996 10.914997,29.1750018 11.515,28.825 C12.115,28.4749983 12.9949942,28.3 14.155,28.3 L15.73,28.3 L15.73,28.06 C15.73,27.6299979 15.6775005,27.2750014 15.5725,26.995 C15.4674995,26.7149986 15.2875013,26.5000008 15.0325,26.35 C14.7774987,26.1999993 14.4250023,26.125 13.975,26.125 C13.374997,26.125 12.9325014,26.2499988 12.6475,26.5 C12.3624986,26.7500013 12.22,27.105 12.22,27.565 L10.885,27.565 C10.885,26.7949962 11.1474974,26.1925022 11.6725,25.7575 C12.1975026,25.3224978 12.959995,25.105 13.96,25.105 Z M27.175,25.105 C27.9450039,25.105 28.5549978,25.2299988 29.005,25.48 C29.4550023,25.7300013 29.7749991,26.0849977 29.965,26.545 C30.155001,27.0050023 30.25,27.5749966 30.25,28.255 L30.25,32.59 L28.945,32.59 L28.945,31.615 C28.7049988,31.9850019 28.3750021,32.269999 27.955,32.47 C27.5349979,32.670001 27.030003,32.77 26.44,32.77 C25.5899958,32.77 24.9425022,32.570002 24.4975,32.17 C24.0524978,31.769998 23.83,31.2350034 23.83,30.565 C23.83,29.754996 24.129997,29.1750018 24.73,28.825 C25.33,28.4749983 26.2099942,28.3 27.37,28.3 L28.945,28.3 L28.945,28.06 C28.945,27.6299979 28.8925005,27.2750014 28.7875,26.995 C28.6824995,26.7149986 28.5025013,26.5000008 28.2475,26.35 C27.9924987,26.1999993 27.6400023,26.125 27.19,26.125 C26.589997,26.125 26.1475014,26.2499988 25.8625,26.5 C25.5774986,26.7500013 25.435,27.105 25.435,27.565 L24.1,27.565 C24.1,26.7949962 24.3624974,26.1925022 24.8875,25.7575 C25.4125026,25.3224978 26.174995,25.105 27.175,25.105 Z M87.115,25.285 L87.115,29.545 C87.115,30.2650036 87.2524986,30.7924983 87.5275,31.1275 C87.8025014,31.4625017 88.2349971,31.63 88.825,31.63 C89.4350031,31.63 89.9024984,31.4550018 90.2275,31.105 C90.5525016,30.7549983 90.715,30.2400034 90.715,29.56 L90.715,25.285 L92.005,25.285 L92.005,32.59 L90.715,32.59 L90.715,31.57 C90.2449977,32.370004 89.4700054,32.77 88.39,32.77 C87.5399958,32.77 86.8975022,32.5200025 86.4625,32.02 C86.0274978,31.5199975 85.81,30.7800049 85.81,29.8 L85.81,25.285 L87.115,25.285 Z M96.595,25.105 C97.4950045,25.105 98.1649978,25.3124979 98.605,25.7275 C99.0450022,26.1425021 99.265,26.7149964 99.265,27.445 L98.005,27.445 C98.005,27.0049978 97.8900012,26.6600013 97.66,26.41 C97.4299988,26.1599988 97.0700024,26.035 96.58,26.035 C96.1399978,26.035 95.8100011,26.1274991 95.59,26.3125 C95.3699989,26.4975009 95.26,26.7449985 95.26,27.055 C95.26,27.3050013 95.3399992,27.5049993 95.5,27.655 C95.6600008,27.8050008 95.8474989,27.9174996 96.0625,27.9925 C96.2775011,28.0675004 96.6449974,28.1749993 97.165,28.315 C97.7050027,28.4550007 98.1474983,28.6124991 98.4925,28.7875 C98.8375017,28.9625009 99.104999,29.1874986 99.295,29.4625 C99.4850009,29.7375014 99.58,30.0899979 99.58,30.52 C99.58,31.2400036 99.3250026,31.7949981 98.815,32.185 C98.3049975,32.575002 97.5900046,32.77 96.67,32.77 C95.6499949,32.77 94.9050024,32.5375023 94.435,32.0725 C93.9649977,31.6074977 93.73,30.9700041 93.73,30.16 L95.005,30.16 C95.005,30.6600025 95.1349987,31.0549986 95.395,31.345 C95.6550013,31.6350015 96.0749971,31.78 96.655,31.78 C97.1750026,31.78 97.5624987,31.680001 97.8175,31.48 C98.0725013,31.279999 98.2,31.0000018 98.2,30.64 C98.2,30.3599986 98.1200008,30.1375008 97.96,29.9725 C97.7999992,29.8074992 97.6050012,29.6850004 97.375,29.605 C97.1449988,29.5249996 96.8050022,29.4250006 96.355,29.305 C95.8449974,29.1749994 95.4225017,29.0300008 95.0875,28.87 C94.7524983,28.7099992 94.487501,28.4950014 94.2925,28.225 C94.097499,27.9549987 94,27.6100021 94,27.19 C94,26.7699979 94.097499,26.4025016 94.2925,26.0875 C94.487501,25.7724984 94.7799981,25.5300009 95.17,25.36 C95.560002,25.1899992 96.0349972,25.105 96.595,25.105 Z M50.77,25.105 C51.5400039,25.105 52.1499977,25.2299988 52.6,25.48 C53.0500023,25.7300013 53.3699991,26.0849977 53.56,26.545 C53.750001,27.0050023 53.845,27.5749966 53.845,28.255 L53.845,32.59 L52.54,32.59 L52.54,31.615 C52.2999988,31.9850019 51.9700021,32.269999 51.55,32.47 C51.1299979,32.670001 50.6250029,32.77 50.035,32.77 C49.1849957,32.77 48.5375022,32.570002 48.0925,32.17 C47.6474978,31.769998 47.425,31.2350034 47.425,30.565 C47.425,29.754996 47.724997,29.1750018 48.325,28.825 C48.925,28.4749983 49.8049942,28.3 50.965,28.3 L52.54,28.3 L52.54,28.06 C52.54,27.6299979 52.4875005,27.2750014 52.3825,26.995 C52.2774995,26.7149986 52.0975013,26.5000008 51.8425,26.35 C51.5874987,26.1999993 51.2350023,26.125 50.785,26.125 C50.184997,26.125 49.7425014,26.2499988 49.4575,26.5 C49.1724986,26.7500013 49.03,27.105 49.03,27.565 L47.695,27.565 C47.695,26.7949962 47.9574974,26.1925022 48.4825,25.7575 C49.0075026,25.3224978 49.769995,25.105 50.77,25.105 Z M64.045,25.105 C64.7950038,25.105 65.4324974,25.2649984 65.9575,25.585 C66.4825026,25.9050016 66.8749987,26.3499972 67.135,26.92 C67.2750007,27.2400016 67.3699998,27.5749983 67.42,27.925 C67.4700003,28.2750018 67.5,28.6999975 67.51,29.2 L61.87,29.2 C61.9000002,29.9800039 62.0874983,30.5899978 62.4325,31.03 C62.7775017,31.4700022 63.3349962,31.69 64.105,31.69 C64.6550028,31.69 65.0974983,31.5700012 65.4325,31.33 C65.7675017,31.0899988 65.9849995,30.7500022 66.085,30.31 L67.435,30.31 C67.3549996,30.8300026 67.1625015,31.2724982 66.8575,31.6375 C66.5524985,32.0025018 66.1650024,32.2799991 65.695,32.47 C65.2249976,32.660001 64.7000029,32.755 64.12,32.755 C63.309996,32.755 62.6375027,32.5875017 62.1025,32.2525 C61.5674973,31.9174983 61.1725013,31.4625029 60.9175,30.8875 C60.6624987,30.3124971 60.535,29.6600037 60.535,28.93 C60.535,28.2099964 60.6624987,27.5600029 60.9175,26.98 C61.1725013,26.3999971 61.5624974,25.9425017 62.0875,25.6075 C62.6125026,25.2724983 63.2649961,25.105 64.045,25.105 Z M104.305,25.105 C105.055004,25.105 105.692497,25.2649984 106.2175,25.585 C106.742503,25.9050016 107.134999,26.3499972 107.395,26.92 C107.535001,27.2400016 107.63,27.5749983 107.68,27.925 C107.73,28.2750018 107.76,28.6999975 107.77,29.2 L102.13,29.2 C102.16,29.9800039 102.347498,30.5899978 102.6925,31.03 C103.037502,31.4700022 103.594996,31.69 104.365,31.69 C104.915003,31.69 105.357498,31.5700012 105.6925,31.33 C106.027502,31.0899988 106.244999,30.7500022 106.345,30.31 L107.695,30.31 C107.615,30.8300026 107.422502,31.2724982 107.1175,31.6375 C106.812498,32.0025018 106.425002,32.2799991 105.955,32.47 C105.484998,32.660001 104.960003,32.755 104.38,32.755 C103.569996,32.755 102.897503,32.5875017 102.3625,32.2525 C101.827497,31.9174983 101.432501,31.4625029 101.1775,30.8875 C100.922499,30.3124971 100.795,29.6600037 100.795,28.93 C100.795,28.2099964 100.922499,27.5600029 101.1775,26.98 C101.432501,26.3999971 101.822497,25.9425017 102.3475,25.6075 C102.872503,25.2724983 103.524996,25.105 104.305,25.105 Z M20.62,23.515 L20.62,25.285 L22.705,25.285 L22.705,26.365 L20.62,26.365 L20.62,30.265 C20.62,30.7250023 20.717499,31.0624989 20.9125,31.2775 C21.107501,31.4925011 21.404998,31.6 21.805,31.6 C22.0850014,31.6 22.3749985,31.5600004 22.675,31.48 L22.675,32.56 C22.2549979,32.6600005 21.845002,32.71 21.445,32.71 C20.7049963,32.71 20.1675017,32.5325018 19.8325,32.1775 C19.4974983,31.8224982 19.33,31.245004 19.33,30.445 L19.33,26.365 L18.19,26.365 L18.19,25.285 L19.33,25.285 L19.33,23.515 L20.62,23.515 Z M70.555,22 L70.555,26.305 C70.7950012,25.904998 71.1099981,25.605001 71.5,25.405 C71.890002,25.204999 72.3449974,25.105 72.865,25.105 C73.7150043,25.105 74.3574978,25.3549975 74.7925,25.855 C75.2275022,26.3550025 75.445,27.0949951 75.445,28.075 L75.445,32.59 L74.155,32.59 L74.155,28.33 C74.155,27.6099964 74.0150014,27.0825017 73.735,26.7475 C73.4549986,26.4124983 73.0250029,26.245 72.445,26.245 C71.834997,26.245 71.3675016,26.4199983 71.0425,26.77 C70.7174984,27.1200018 70.555,27.6349966 70.555,28.315 L70.555,32.59 L69.25,32.59 L69.25,22 L70.555,22 Z M4.435,22 C6.14500855,22 7.37749623,22.4774952 8.1325,23.4325 C8.88750378,24.3875048 9.265,25.6749919 9.265,27.295 C9.265,28.9250082 8.88750378,30.2149953 8.1325,31.165 C7.37749623,32.1150048 6.14500855,32.59 4.435,32.59 L1,32.59 L1,22 L4.435,22 Z M35.56,22 L37.84,30.61 L40.045,22 L41.545,22 L43.72,30.565 L46.015,22 L47.365,22 L44.485,32.59 L43,32.59 L40.78,23.905 L38.56,32.59 L37.105,32.59 L34.18,22 L35.56,22 Z M59.215,25.195 C59.4750013,25.195 59.709999,25.2249997 59.92,25.285 L59.92,26.455 C59.719999,26.4049998 59.4950013,26.38 59.245,26.38 C58.6249969,26.38 58.1550016,26.5724981 57.835,26.9575 C57.5149984,27.3425019 57.355,27.8849965 57.355,28.585 L57.355,32.59 L56.05,32.59 L56.05,25.285 L57.34,25.285 L57.34,26.275 C57.5200009,25.9249983 57.7674984,25.6575009 58.0825,25.4725 C58.3975016,25.2874991 58.7749978,25.195 59.215,25.195 Z M28.945,29.23 L27.475,29.23 C26.7149962,29.23 26.1500019,29.3199991 25.78,29.5 C25.4099982,29.6800009 25.225,29.9949978 25.225,30.445 C25.225,30.845002 25.3599987,31.1574989 25.63,31.3825 C25.9000014,31.6075011 26.2949974,31.72 26.815,31.72 C27.5950039,31.72 28.1449984,31.5025022 28.465,31.0675 C28.7850016,30.6324978 28.945,30.0300039 28.945,29.26 L28.945,29.23 Z M15.73,29.23 L14.26,29.23 C13.4999962,29.23 12.9350019,29.3199991 12.565,29.5 C12.1949982,29.6800009 12.01,29.9949978 12.01,30.445 C12.01,30.845002 12.1449987,31.1574989 12.415,31.3825 C12.6850014,31.6075011 13.0799974,31.72 13.6,31.72 C14.3800039,31.72 14.9299984,31.5025022 15.25,31.0675 C15.5700016,30.6324978 15.73,30.0300039 15.73,29.26 L15.73,29.23 Z M52.54,29.23 L51.07,29.23 C50.3099962,29.23 49.7450018,29.3199991 49.375,29.5 C49.0049982,29.6800009 48.82,29.9949978 48.82,30.445 C48.82,30.845002 48.9549987,31.1574989 49.225,31.3825 C49.4950014,31.6075011 49.8899974,31.72 50.41,31.72 C51.1900039,31.72 51.7399984,31.5025022 52.06,31.0675 C52.3800016,30.6324978 52.54,30.0300039 52.54,29.26 L52.54,29.23 Z M80.62,26.245 C79.8599962,26.245 79.3175016,26.4974975 78.9925,27.0025 C78.6674984,27.5075025 78.505,28.1549961 78.505,28.945 C78.505,29.745 78.6724983,30.3924975 79.0075,30.8875 C79.3425017,31.3825025 79.8799963,31.63 80.62,31.63 C81.3900039,31.63 81.9349984,31.3775025 82.255,30.8725 C82.5750016,30.3674975 82.735,29.7250039 82.735,28.945 C82.735,28.134996 82.5725016,27.4825025 82.2475,26.9875 C81.9224984,26.4924975 81.3800038,26.245 80.62,26.245 Z M4.255,23.17 L2.395,23.17 L2.395,31.42 L4.255,31.42 C5.16500455,31.42 5.8799974,31.2450018 6.4,30.895 C6.9200026,30.5449983 7.28249898,30.070003 7.4875,29.47 C7.69250103,28.869997 7.795,28.1450043 7.795,27.295 C7.795,26.4349957 7.69000105,25.705003 7.48,25.105 C7.26999895,24.504997 6.9050026,24.0325017 6.385,23.6875 C5.8649974,23.3424983 5.1550045,23.17 4.255,23.17 Z M64.045,26.155 C62.7949938,26.155 62.0850009,26.8449931 61.915,28.225 L66.13,28.225 C66.0699997,27.5649967 65.8750017,27.0550018 65.545,26.695 C65.2149984,26.3349982 64.7150033,26.155 64.045,26.155 Z M104.305,26.155 C103.054994,26.155 102.345001,26.8449931 102.175,28.225 L106.39,28.225 C106.33,27.5649967 106.135002,27.0550018 105.805,26.695 C105.474998,26.3349982 104.975003,26.155 104.305,26.155 Z M33.3247059,7.21833333 L33.3247059,12.5658333 C33.3247059,14.0808333 34.2077484,14.995 35.4494213,14.995 C36.6910941,14.995 37.5741367,14.0808333 37.5741367,12.5658333 L37.5741367,12.5658333 L37.5741367,7.21833333 L39.8223427,7.21833333 L39.8223427,12.48 C39.8223427,15.2508333 38.0562576,17 35.4494213,17 C32.8417392,17 31.0756541,15.2508333 31.0756541,12.48 L31.0756541,12.48 L31.0756541,7.21833333 L33.3247059,7.21833333 Z M5.17222713,7 C6.58475686,7 7.80612987,7.52166667 8.68155997,8.41166667 L8.68155997,8.41166667 L7.23265972,9.83916667 C6.65580626,9.30083333 5.99606183,9.02083333 5.19675609,9.02083333 C3.53639928,9.02083333 2.33278862,10.3091667 2.33278862,11.9991667 C2.33278862,13.6891667 3.53639928,14.98 5.19675609,14.98 C6.10348176,14.98 6.79790506,14.6391667 7.37983347,14.0058333 L7.37983347,14.0058333 L8.82112129,15.4258333 C7.94061624,16.4125 6.64819382,17 5.17222713,17 C2.25158931,17 2.84217094e-14,14.8041667 2.84217094e-14,12 C2.84217094e-14,9.19666667 2.25158931,7 5.17222713,7 Z M23.7431869,7 C26.7213409,7 28.8697394,9.2025 28.8697394,12.0141667 C28.8697394,14.81 26.7213409,17 23.7431869,17 C20.7658787,17 18.6174802,14.81 18.6174802,12.0141667 C18.6174802,9.2025 20.7658787,7 23.7431869,7 Z M79.1896308,7.21833333 L83.3333333,16.7816667 L81.0589067,16.7816667 L80.2714425,14.83 L76.1387358,14.83 L75.3521174,16.7816667 L73.0776908,16.7816667 L77.1757187,7.21833333 L79.1896308,7.21833333 Z M68.3825097,7.21833333 C69.6301033,7.21833333 70.5461331,7.51833333 71.20334,8.07166667 C71.8605469,8.625 72.2428604,9.475 72.2428604,10.4866667 C72.2428604,11.7533333 71.6964567,13.0691667 69.7747396,13.5641667 L72.5439745,16.7816667 L69.9261425,16.7816667 L67.3480642,13.7625 L66.1097747,13.7625 L66.1097747,16.7816667 L63.9063975,16.7816667 L63.9063975,7.21833333 L68.3825097,7.21833333 Z M13.2405631,7.21833333 L13.2405631,14.8358333 L17.7944913,14.8358333 L17.7944913,16.7816667 L10.9923571,16.7816667 L10.9923571,7.21833333 L13.2405631,7.21833333 Z M46.4206327,7.21833333 C49.60686,7.21833333 51.8415328,9.14 51.8415328,12 C51.8415328,14.86 49.7007467,16.7816667 46.5153653,16.7816667 L42.6254106,16.7816667 L42.6254106,7.21833333 L46.4206327,7.21833333 Z M61.2724947,14.805 L61.2724947,16.7816667 L52.8632908,16.7816667 C53.426611,16.215 53.8782822,15.5541667 54.1937754,14.805 L54.1937754,14.805 L61.2724947,14.805 Z M23.7431869,9.00583333 C22.1098965,9.00583333 20.9502688,10.2708333 20.9502688,12.015 C20.9502688,13.7416667 22.1098965,14.995 23.7431869,14.995 C25.3781689,14.995 26.5369508,13.7416667 26.5369508,12.015 C26.5369508,10.2708333 25.3781689,9.00583333 23.7431869,9.00583333 Z M46.35635,9.13 L44.8736167,9.13 L44.8736167,14.87 L46.35635,14.87 C48.2416965,14.87 49.5078983,13.7266667 49.5078983,12 C49.5078983,10.2733333 48.2416965,9.13 46.35635,9.13 Z M78.2050892,9.70416667 L76.8543047,13.055 L79.5558736,13.055 L78.2050892,9.70416667 Z M60.0773423,10.99 L60.0773423,12.9475 L54.672513,12.9475 C54.7088835,12.6466667 54.7334125,12.34 54.7334125,12.0225 C54.7334125,11.6666667 54.7012711,11.325 54.6539048,10.99 L54.6539048,10.99 L60.0773423,10.99 Z M68.259019,9.08666667 L66.1097747,9.08666667 L66.1097747,11.9583333 L68.2657857,11.9583333 C68.8426391,11.9583333 69.2528648,11.83 69.543829,11.5833333 C69.8178767,11.3508333 69.996346,10.9516667 69.996346,10.5175 C69.996346,10.095 69.8246433,9.7 69.5641288,9.47416667 C69.2697813,9.21916667 68.8468682,9.08666667 68.259019,9.08666667 Z M61.2285118,7.21833333 L61.2285118,9.195 L54.156559,9.195 C53.8216119,8.44416667 53.3445659,7.78416667 52.7558709,7.21833333 L61.2285118,7.21833333 Z" id="cloudera-data-warehouse"></path>
        </g>
    </g>
</svg>