<?xml version="1.0" encoding="UTF-8"?>
<svg width="145px" height="40px" viewBox="0 0 145 40" version="1.1" xmlns="http://www.w3.org/2000/svg" xmlns:xlink="http://www.w3.org/1999/xlink">
    <title>wordmark-operational database</title>
    <g id="Symbols" stroke="none" stroke-width="1" fill="none" fill-rule="evenodd">
        <g id="product-logos/wordmarks/operational-database" fill="#FFFFFF">
            <path d="M4.725,33.07 C8.205,33.07 9.435,30.52 9.435,27.535 C9.435,24.595 8.25,22 4.725,22 C1.215,22 -7.10542736e-14,24.61 -7.10542736e-14,27.535 C-7.10542736e-14,30.415 1.185,33.07 4.725,33.07 Z M4.725,31.855 C2.13,31.855 1.47,29.815 1.47,27.535 C1.47,25.255 2.115,23.215 4.725,23.215 C7.305,23.215 7.98,25.255 7.98,27.535 C7.98,29.77 7.335,31.855 4.725,31.855 Z M12.615,35.845 L12.615,31.75 C13.14,32.59 13.98,32.995 15.03,32.995 C17.25,32.995 18.165,31.195 18.165,29.17 C18.165,27.19 17.28,25.345 15.03,25.345 C13.965,25.345 13.125,25.765 12.6,26.62 L12.6,25.525 L11.31,25.525 L11.31,35.845 L12.615,35.845 Z M14.67,31.855 C13.38,31.855 12.6,30.955 12.6,29.38 L12.6,28.975 C12.6,27.4 13.38,26.485 14.67,26.485 C16.26,26.485 16.785,27.745 16.785,29.17 C16.785,30.58 16.275,31.855 14.67,31.855 Z M23.01,32.995 C24.735,32.995 26.07,32.14 26.325,30.55 L24.975,30.55 C24.78,31.435 24.09,31.93 22.995,31.93 C21.36,31.93 20.82,30.88 20.76,29.44 L26.4,29.44 C26.385,28.495 26.31,27.835 26.025,27.16 C25.515,26.05 24.465,25.345 22.935,25.345 C20.505,25.345 19.425,27.07 19.425,29.17 C19.425,31.285 20.49,32.995 23.01,32.995 Z M25.02,28.465 L20.805,28.465 C20.955,27.265 21.525,26.395 22.935,26.395 C24.345,26.395 24.9,27.22 25.02,28.465 Z M29.445,32.83 L29.445,28.825 C29.445,27.445 30.075,26.62 31.335,26.62 C31.56,26.62 31.83,26.65 32.01,26.695 L32.01,25.525 C31.8,25.465 31.575,25.435 31.305,25.435 C30.405,25.435 29.775,25.84 29.43,26.515 L29.43,25.525 L28.14,25.525 L28.14,32.83 L29.445,32.83 Z M35.19,33.01 C36.39,33.01 37.215,32.59 37.695,31.855 L37.695,32.83 L39,32.83 L39,28.495 C39,26.575 38.31,25.345 35.925,25.345 C33.885,25.345 32.85,26.29 32.85,27.805 L34.185,27.805 C34.185,26.92 34.695,26.365 35.94,26.365 C37.32,26.365 37.695,27.07 37.695,28.3 L37.695,28.54 L36.12,28.54 C33.915,28.54 32.58,29.11 32.58,30.805 C32.58,32.11 33.435,33.01 35.19,33.01 Z M35.565,31.96 C34.5,31.96 33.975,31.48 33.975,30.685 C33.975,29.74 34.8,29.47 36.225,29.47 L37.695,29.47 L37.695,29.5 C37.695,30.895 37.23,31.96 35.565,31.96 Z M43.41,32.95 C43.8,32.95 44.265,32.89 44.64,32.8 L44.64,31.72 C44.355,31.795 44.04,31.84 43.77,31.84 C42.99,31.84 42.585,31.435 42.585,30.505 L42.585,26.605 L44.67,26.605 L44.67,25.525 L42.585,25.525 L42.585,23.755 L41.295,23.755 L41.295,25.525 L40.155,25.525 L40.155,26.605 L41.295,26.605 L41.295,30.685 C41.295,32.29 41.94,32.95 43.41,32.95 Z M46.98,23.935 C47.46,23.935 47.85,23.575 47.85,23.095 C47.85,22.6 47.46,22.24 46.98,22.24 C46.485,22.24 46.125,22.6 46.125,23.095 C46.125,23.575 46.485,23.935 46.98,23.935 Z M47.625,32.83 L47.625,25.525 L46.32,25.525 L46.32,32.83 L47.625,32.83 Z M52.86,33.01 C55.35,33.01 56.355,31.18 56.355,29.185 C56.355,27.22 55.365,25.345 52.86,25.345 C50.43,25.345 49.38,27.145 49.38,29.185 C49.38,31.165 50.4,33.01 52.86,33.01 Z M52.86,31.87 C51.27,31.87 50.745,30.64 50.745,29.185 C50.745,27.805 51.21,26.485 52.86,26.485 C54.495,26.485 54.975,27.73 54.975,29.185 C54.975,30.535 54.54,31.87 52.86,31.87 Z M59.415,32.83 L59.415,28.555 C59.415,27.19 60.105,26.485 61.305,26.485 C62.46,26.485 63.015,27.115 63.015,28.57 L63.015,32.83 L64.305,32.83 L64.305,28.315 C64.305,26.35 63.42,25.345 61.725,25.345 C60.69,25.345 59.895,25.735 59.415,26.545 L59.415,25.525 L58.11,25.525 L58.11,32.83 L59.415,32.83 Z M68.58,33.01 C69.78,33.01 70.605,32.59 71.085,31.855 L71.085,32.83 L72.39,32.83 L72.39,28.495 C72.39,26.575 71.7,25.345 69.315,25.345 C67.275,25.345 66.24,26.29 66.24,27.805 L67.575,27.805 C67.575,26.92 68.085,26.365 69.33,26.365 C70.71,26.365 71.085,27.07 71.085,28.3 L71.085,28.54 L69.51,28.54 C67.305,28.54 65.97,29.11 65.97,30.805 C65.97,32.11 66.825,33.01 68.58,33.01 Z M68.955,31.96 C67.89,31.96 67.365,31.48 67.365,30.685 C67.365,29.74 68.19,29.47 69.615,29.47 L71.085,29.47 L71.085,29.5 C71.085,30.895 70.62,31.96 68.955,31.96 Z M75.9,32.83 L75.9,22.24 L74.595,22.24 L74.595,32.83 L75.9,32.83 Z M84.54,32.83 C88.155,32.83 89.37,30.55 89.37,27.535 C89.37,24.565 88.185,22.24 84.54,22.24 L81.105,22.24 L81.105,32.83 L84.54,32.83 Z M84.36,31.66 L82.5,31.66 L82.5,23.41 L84.36,23.41 C87.18,23.41 87.9,25.15 87.9,27.535 C87.9,29.875 87.21,31.66 84.36,31.66 Z M93.33,33.01 C94.53,33.01 95.355,32.59 95.835,31.855 L95.835,32.83 L97.14,32.83 L97.14,28.495 C97.14,26.575 96.45,25.345 94.065,25.345 C92.025,25.345 90.99,26.29 90.99,27.805 L92.325,27.805 C92.325,26.92 92.835,26.365 94.08,26.365 C95.46,26.365 95.835,27.07 95.835,28.3 L95.835,28.54 L94.26,28.54 C92.055,28.54 90.72,29.11 90.72,30.805 C90.72,32.11 91.575,33.01 93.33,33.01 Z M93.705,31.96 C92.64,31.96 92.115,31.48 92.115,30.685 C92.115,29.74 92.94,29.47 94.365,29.47 L95.835,29.47 L95.835,29.5 C95.835,30.895 95.37,31.96 93.705,31.96 Z M101.55,32.95 C101.94,32.95 102.405,32.89 102.78,32.8 L102.78,31.72 C102.495,31.795 102.18,31.84 101.91,31.84 C101.13,31.84 100.725,31.435 100.725,30.505 L100.725,26.605 L102.81,26.605 L102.81,25.525 L100.725,25.525 L100.725,23.755 L99.435,23.755 L99.435,25.525 L98.295,25.525 L98.295,26.605 L99.435,26.605 L99.435,30.685 C99.435,32.29 100.08,32.95 101.55,32.95 Z M106.545,33.01 C107.745,33.01 108.57,32.59 109.05,31.855 L109.05,32.83 L110.355,32.83 L110.355,28.495 C110.355,26.575 109.665,25.345 107.28,25.345 C105.24,25.345 104.205,26.29 104.205,27.805 L105.54,27.805 C105.54,26.92 106.05,26.365 107.295,26.365 C108.675,26.365 109.05,27.07 109.05,28.3 L109.05,28.54 L107.475,28.54 C105.27,28.54 103.935,29.11 103.935,30.805 C103.935,32.11 104.79,33.01 106.545,33.01 Z M106.92,31.96 C105.855,31.96 105.33,31.48 105.33,30.685 C105.33,29.74 106.155,29.47 107.58,29.47 L109.05,29.47 L109.05,29.5 C109.05,30.895 108.585,31.96 106.92,31.96 Z M116.28,32.995 C118.5,32.995 119.415,31.21 119.415,29.17 C119.415,27.19 118.53,25.345 116.28,25.345 C115.215,25.345 114.375,25.765 113.865,26.635 L113.865,22.24 L112.56,22.24 L112.56,32.83 L113.85,32.83 L113.85,31.69 C114.36,32.56 115.215,32.995 116.28,32.995 Z M115.92,31.87 C114.63,31.87 113.85,30.97 113.85,29.38 L113.85,28.96 C113.85,27.4 114.63,26.485 115.92,26.485 C117.51,26.485 118.035,27.745 118.035,29.17 C118.035,30.595 117.525,31.87 115.92,31.87 Z M123.255,33.01 C124.455,33.01 125.28,32.59 125.76,31.855 L125.76,32.83 L127.065,32.83 L127.065,28.495 C127.065,26.575 126.375,25.345 123.99,25.345 C121.95,25.345 120.915,26.29 120.915,27.805 L122.25,27.805 C122.25,26.92 122.76,26.365 124.005,26.365 C125.385,26.365 125.76,27.07 125.76,28.3 L125.76,28.54 L124.185,28.54 C121.98,28.54 120.645,29.11 120.645,30.805 C120.645,32.11 121.5,33.01 123.255,33.01 Z M123.63,31.96 C122.565,31.96 122.04,31.48 122.04,30.685 C122.04,29.74 122.865,29.47 124.29,29.47 L125.76,29.47 L125.76,29.5 C125.76,30.895 125.295,31.96 123.63,31.96 Z M131.685,33.01 C133.53,33.01 134.595,32.2 134.595,30.76 C134.595,29.425 133.65,28.945 132.18,28.555 C131.13,28.27 130.275,28.105 130.275,27.295 C130.275,26.71 130.665,26.275 131.595,26.275 C132.63,26.275 133.02,26.86 133.02,27.685 L134.28,27.685 C134.28,26.275 133.47,25.345 131.61,25.345 C129.885,25.345 129.015,26.185 129.015,27.43 C129.015,28.735 130.005,29.2 131.37,29.545 C132.36,29.8 133.215,29.995 133.215,30.88 C133.215,31.57 132.75,32.02 131.67,32.02 C130.44,32.02 130.02,31.33 130.02,30.4 L128.745,30.4 C128.745,31.915 129.54,33.01 131.685,33.01 Z M139.395,32.995 C141.12,32.995 142.455,32.14 142.71,30.55 L141.36,30.55 C141.165,31.435 140.475,31.93 139.38,31.93 C137.745,31.93 137.205,30.88 137.145,29.44 L142.785,29.44 C142.77,28.495 142.695,27.835 142.41,27.16 C141.9,26.05 140.85,25.345 139.32,25.345 C136.89,25.345 135.81,27.07 135.81,29.17 C135.81,31.285 136.875,32.995 139.395,32.995 Z M141.405,28.465 L137.19,28.465 C137.34,27.265 137.91,26.395 139.32,26.395 C140.73,26.395 141.285,27.22 141.405,28.465 Z" id="OperationalDatabase" fill-rule="nonzero"></path>
            <g id="logo/cloudera/cloudera-white" transform="translate(0.000000, 7.000000)">
                <path d="M37.4238401,5.56583333 C37.4238401,7.08083333 36.5443298,7.995 35.3076236,7.995 C34.0709175,7.995 33.1914071,7.08083333 33.1914071,5.56583333 L33.1914071,0.218333333 L30.9513515,0.218333333 L30.9513515,5.48 C30.9513515,8.25083333 32.7103722,10 35.3076236,10 C37.9040326,10 39.6630533,8.25083333 39.6630533,5.48 L39.6630533,0.218333333 L37.4238401,0.218333333 L37.4238401,5.56583333 Z M79.2376501,6.055 L77.8922688,2.70416667 L76.5468875,6.055 L79.2376501,6.055 Z M83,9.78166667 L80.7346711,9.78166667 L79.9503568,7.83 L75.8341809,7.83 L75.050709,9.78166667 L72.7853801,9.78166667 L76.8670158,0.218333333 L78.8728723,0.218333333 L83,9.78166667 Z M69.7163606,3.5175 C69.7163606,3.095 69.5453447,2.7 69.2858723,2.47416667 C68.9927022,2.21916667 68.5714808,2.08666667 67.985983,2.08666667 L65.8453356,2.08666667 L65.8453356,4.95833333 L67.9927225,4.95833333 C68.5672686,4.95833333 68.9758534,4.83 69.2656537,4.58333333 C69.5386052,4.35083333 69.7163606,3.95166667 69.7163606,3.5175 L69.7163606,3.5175 Z M69.4956406,6.56416667 L72.2537986,9.78166667 L69.6464379,9.78166667 L67.078672,6.7625 L65.8453356,6.7625 L65.8453356,9.78166667 L63.6507719,9.78166667 L63.6507719,0.218333333 L68.1089796,0.218333333 C69.3515829,0.218333333 70.2639485,0.518333333 70.9185266,1.07166667 C71.5731048,1.625 71.9538889,2.475 71.9538889,3.48666667 C71.9538889,4.75333333 71.4096708,6.06916667 69.4956406,6.56416667 L69.4956406,6.56416667 Z M13.1876009,0.218333333 L10.9483877,0.218333333 L10.9483877,9.78166667 L17.7233133,9.78166667 L17.7233133,7.83583333 L13.1876009,7.83583333 L13.1876009,0.218333333 Z M5.17596906,7.98 C3.52225369,7.98 2.32345747,6.68916667 2.32345747,4.99916667 C2.32345747,3.30916667 3.52225369,2.02083333 5.17596906,2.02083333 C5.97207759,2.02083333 6.62918303,2.30083333 7.20372908,2.83916667 L8.64683373,1.41166667 C7.77490535,0.521666667 6.55841783,0 5.15153822,0 C2.24258295,0 0,2.19666667 0,5 C0,7.80416667 2.24258295,10 5.15153822,10 C6.62160105,10 7.90885377,9.4125 8.78583681,8.42583333 L7.35031414,7.00583333 C6.77071344,7.63916667 6.07906783,7.98 5.17596906,7.98 L5.17596906,7.98 Z M49.3098667,5 C49.3098667,3.27333333 48.0487297,2.13 46.1709246,2.13 L44.6941222,2.13 L44.6941222,7.87 L46.1709246,7.87 C48.0487297,7.87 49.3098667,6.72666667 49.3098667,5 L49.3098667,5 Z M51.6341666,5 C51.6341666,7.86 49.5019437,9.78166667 46.3293038,9.78166667 L42.454909,9.78166667 L42.454909,0.218333333 L46.2349502,0.218333333 C49.4084325,0.218333333 51.6341666,2.14 51.6341666,5 L51.6341666,5 Z M26.430803,5.015 C26.430803,3.27083333 25.2766562,2.00583333 23.6482141,2.00583333 C22.0214569,2.00583333 20.8664677,3.27083333 20.8664677,5.015 C20.8664677,6.74166667 22.0214569,7.995 23.6482141,7.995 C25.2766562,7.995 26.430803,6.74166667 26.430803,5.015 L26.430803,5.015 Z M28.7542604,5.01416667 C28.7542604,7.81 26.6144555,10 23.6482141,10 C20.6828152,10 18.5430103,7.81 18.5430103,5.01416667 C18.5430103,2.2025 20.6828152,0 23.6482141,0 C26.6144555,0 28.7542604,2.2025 28.7542604,5.01416667 L28.7542604,5.01416667 Z M52.6518376,9.78166667 L61.0274048,9.78166667 L61.0274048,7.805 L53.9770003,7.805 C53.6627691,8.55416667 53.2129046,9.215 52.6518376,9.78166667 L52.6518376,9.78166667 Z M59.837033,5.9475 L59.837033,3.99 L54.4352892,3.99 C54.482466,4.325 54.5144789,4.66666667 54.5144789,5.0225 C54.5144789,5.34 54.490048,5.64666667 54.453823,5.9475 L59.837033,5.9475 Z M52.5448474,0.218333333 L60.9835977,0.218333333 L60.9835977,2.195 L53.9399328,2.195 C53.6063254,1.44416667 53.1311876,0.784166667 52.5448474,0.218333333 L52.5448474,0.218333333 Z" id="cloudera"></path>
            </g>
        </g>
    </g>
</svg>