<?xml version="1.0" encoding="UTF-8"?>
<svg width="136px" height="40px" viewBox="0 0 136 40" version="1.1" xmlns="http://www.w3.org/2000/svg" xmlns:xlink="http://www.w3.org/1999/xlink">
    <title>wordmark-migration manager</title>
    <g id="Symbols" stroke="none" stroke-width="1" fill="none" fill-rule="evenodd">
        <g id="product-logos/wordmarks/replication-manager" fill="#FFFFFF">
            <path d="M37.3063941,12.6074055 C37.3063941,14.1337213 36.4296438,15.054716 35.1968188,15.054716 C33.9639938,15.054716 33.0872435,14.1337213 33.0872435,12.6074055 L33.0872435,7.2199641 L30.8542178,7.2199641 L30.8542178,12.520931 C30.8542178,15.3124602 32.6077183,17.0746917 35.1968188,17.0746917 C37.7850795,17.0746917 39.53858,15.3124602 39.53858,12.520931 L39.53858,7.2199641 L37.3063941,7.2199641 L37.3063941,12.6074055 Z M78.9889811,13.1002258 L77.647822,9.72436454 L76.3066628,13.1002258 L78.9889811,13.1002258 Z M82.7395237,16.8547276 L80.481304,16.8547276 L79.6994511,14.8884836 L75.5961928,14.8884836 L74.8151797,16.8547276 L72.55696,16.8547276 L76.6257865,7.2199641 L78.6253481,7.2199641 L82.7395237,16.8547276 Z M69.497572,10.5437728 C69.497572,10.1181171 69.3270928,9.72016675 69.0684347,9.49264663 C68.7761846,9.235742 68.3562851,9.10225233 67.7726247,9.10225233 L65.6386953,9.10225233 L65.6386953,11.995368 L67.7793431,11.995368 C68.3520861,11.995368 68.7593886,11.8660761 69.0482795,11.617567 C69.3203744,11.3833304 69.497572,10.9811823 69.497572,10.5437728 L69.497572,10.5437728 Z M69.2775446,13.6131955 L72.0270468,16.8547276 L69.4278687,16.8547276 L66.8681611,13.8130102 L65.6386953,13.8130102 L65.6386953,16.8547276 L63.4510187,16.8547276 L63.4510187,7.2199641 L67.8952354,7.2199641 C69.133939,7.2199641 70.0434414,7.52220485 70.6959653,8.07967113 C71.3484891,8.6371374 71.7280783,9.49348619 71.7280783,10.5127092 C71.7280783,11.7888368 71.1855681,13.1144983 69.2775446,13.6131955 L69.2775446,13.6131955 Z M13.1462146,7.2199641 L10.9140287,7.2199641 L10.9140287,16.8547276 L17.6676928,16.8547276 L17.6676928,14.8943605 L13.1462146,14.8943605 L13.1462146,7.2199641 Z M5.15972548,15.039604 C3.51119991,15.039604 2.31616583,13.7391292 2.31616583,12.0365063 C2.31616583,10.3338834 3.51119991,9.03592728 5.15972548,9.03592728 C5.9533356,9.03592728 6.60837888,9.31801864 7.18112184,9.86037288 L8.61969765,8.42221064 C7.75050561,7.52556308 6.53783576,7 5.13537131,7 C2.23554512,7 -5.68434189e-14,9.21307394 -5.68434189e-14,12.0373458 C-5.68434189e-14,14.8624573 2.23554512,17.0746917 5.13537131,17.0746917 C6.60082069,17.0746917 7.88403366,16.4828035 8.7582645,15.4887673 L7.32724688,14.0581611 C6.74946512,14.6962249 6.05999009,15.039604 5.15972548,15.039604 L5.15972548,15.039604 Z M49.1551191,12.0373458 C49.1551191,10.2977824 47.8979399,9.14590933 46.0260278,9.14590933 L44.55386,9.14590933 L44.55386,14.9287824 L46.0260278,14.9287824 C47.8979399,14.9287824 49.1551191,13.7769093 49.1551191,12.0373458 L49.1551191,12.0373458 Z M51.4721248,12.0373458 C51.4721248,14.9187077 49.3465933,16.8547276 46.18391,16.8547276 L42.3216741,16.8547276 L42.3216741,7.2199641 L46.0898525,7.2199641 C49.2533756,7.2199641 51.4721248,9.15598402 51.4721248,12.0373458 L51.4721248,12.0373458 Z M26.347856,12.0524579 C26.347856,10.2952637 25.1973313,9.02081524 23.5739997,9.02081524 C21.9523477,9.02081524 20.8009832,10.2952637 20.8009832,12.0524579 C20.8009832,13.7920213 21.9523477,15.054716 23.5739997,15.054716 C25.1973313,15.054716 26.347856,13.7920213 26.347856,12.0524579 L26.347856,12.0524579 Z M28.6640218,12.0516183 C28.6640218,14.8683342 26.5309322,17.0746917 23.5739997,17.0746917 C20.617907,17.0746917 18.4848173,14.8683342 18.4848173,12.0516183 C18.4848173,9.21895084 20.617907,7 23.5739997,7 C26.5309322,7 28.6640218,9.21895084 28.6640218,12.0516183 L28.6640218,12.0516183 Z M52.486602,16.8547276 L60.8358844,16.8547276 L60.8358844,14.8632969 L53.807606,14.8632969 C53.4943609,15.6180592 53.0459082,16.2838284 52.486602,16.8547276 L52.486602,16.8547276 Z M59.6492483,12.9919229 L59.6492483,11.019802 L54.2644567,11.019802 C54.3114854,11.3573042 54.3433978,11.7015228 54.3433978,12.0600139 C54.3433978,12.3798854 54.3190436,12.6888426 54.2829323,12.9919229 L59.6492483,12.9919229 Z M52.3799476,7.2199641 L60.7922148,7.2199641 L60.7922148,9.21139482 L53.7706548,9.21139482 C53.4380944,8.45495339 52.9644477,7.79002374 52.3799476,7.2199641 L52.3799476,7.2199641 Z M3.78124423,27.8936946 L2.39062212,27.8936946 L2.39062212,32.6690985 L1,32.6690985 L1,22 L4.67841979,22 C5.86469118,22 6.73195222,22.2569021 7.28022891,22.7707139 C7.8285056,23.2845258 8.10263984,23.9947844 8.10263984,24.9015112 C8.10263984,26.6948153 7.17058344,27.6821252 5.30644268,27.8634706 L8.73066273,32.6690985 L7.1606055,32.6690985 L3.78124423,27.8936946 Z M2.39062212,26.82074 L4.36440834,26.82074 C5.17187038,26.82074 5.75502867,26.6671025 6.11390068,26.3598228 C6.4727727,26.0525432 6.65220602,25.5815561 6.65220602,24.9468473 C6.65220602,24.3222133 6.4727727,23.8613008 6.11390068,23.5640959 C5.75502867,23.266891 5.17187038,23.1182908 4.36440834,23.1182908 L2.39062212,23.1182908 L2.39062212,26.82074 Z M12.8875761,31.7623762 C13.4358528,31.7623762 13.8769597,31.6414811 14.2109101,31.3996873 C14.5448604,31.1578935 14.7616757,30.8153574 14.8613624,30.3720688 L16.2071257,30.3720688 C16.1273764,30.8959554 15.9354824,31.341756 15.6314381,31.7094841 C15.3273937,32.0772122 14.9411137,32.3567821 14.4725863,32.5482022 C14.0040589,32.7396223 13.4807118,32.8353309 12.9025291,32.8353309 C12.095067,32.8353309 11.4246842,32.6665815 10.8913605,32.3290776 C10.3580368,31.9915738 9.96428039,31.5331799 9.71007938,30.9538822 C9.45587837,30.3745846 9.32877977,29.7172175 9.32877977,28.9817613 C9.32877977,28.2563799 9.45587837,27.6015315 9.71007938,27.0171965 C9.96428039,26.4328614 10.3530526,25.9719489 10.8764076,25.634445 C11.3997626,25.2969412 12.0502084,25.1281918 12.8277644,25.1281918 C13.5754145,25.1281918 14.2109075,25.2893852 14.7342625,25.611777 C15.2576175,25.9341687 15.6488818,26.382488 15.9080672,26.9567483 C16.0476285,27.2791401 16.1423295,27.6166388 16.1921728,27.9692548 C16.2420161,28.3218708 16.2719217,28.7500409 16.2818903,29.253778 L10.6595902,29.253778 C10.6894962,30.0396079 10.8764059,30.6541579 11.2203249,31.0974466 C11.5642439,31.5407352 12.1199888,31.7623762 12.8875761,31.7623762 Z M12.8277644,26.1860344 C11.5816811,26.1860344 10.8739163,26.8811812 10.704449,28.2714956 L14.9062212,28.2714956 C14.8464092,27.6065626 14.6520231,27.0927585 14.323057,26.7300677 C13.994091,26.367377 13.4956651,26.1860344 12.8277644,26.1860344 Z M21.7247554,25.1281918 C22.4424994,25.1281918 23.0331341,25.3044971 23.4966771,25.6571131 C23.9602202,26.0097291 24.3016419,26.4756789 24.5209526,27.0549766 C24.7402632,27.6342742 24.8499169,28.2765294 24.8499169,28.9817613 C24.8499169,29.697068 24.7402632,30.3443605 24.5209526,30.9236582 C24.3016419,31.5029558 23.957728,31.966387 23.4892007,32.3139656 C23.0206733,32.6615442 22.4325308,32.8353309 21.7247554,32.8353309 C21.196416,32.8353309 20.7278957,32.7295477 20.3191804,32.5179781 C19.910465,32.3064085 19.5765197,31.9940962 19.3173343,31.5810318 L19.3173343,35.706618 L18.0164298,35.706618 L18.0164298,25.3095362 L19.3023814,25.3095362 L19.3023814,26.412715 C19.5615667,25.9895758 19.8955121,25.6697075 20.3042274,25.4531006 C20.7129428,25.2364936 21.1864474,25.1281918 21.7247554,25.1281918 Z M21.3658852,31.6868161 C22.1135352,31.6868161 22.6518352,31.4349513 22.9808012,30.9312142 C23.3097672,30.4274771 23.4742477,29.777666 23.4742477,28.9817613 C23.4742477,28.1858567 23.3072751,27.5360456 22.9733247,27.0323085 C22.6393744,26.5285714 22.1035665,26.2767066 21.3658852,26.2767066 C20.7179218,26.2767066 20.2120195,26.4983476 19.8481632,26.9416363 C19.4843068,27.3849249 19.3023814,27.999475 19.3023814,28.7853048 L19.3023814,29.1933299 C19.3023814,29.9791597 19.4843068,30.5911911 19.8481632,31.0294424 C20.2120195,31.4676937 20.7179218,31.6868161 21.3658852,31.6868161 Z M26.5994093,22 L27.9003138,22 L27.9003138,32.6690985 L26.5994093,32.6690985 L26.5994093,22 Z M30.8011815,23.7076602 C30.5519648,23.7076602 30.3476102,23.6270635 30.1881115,23.4658676 C30.0286128,23.3046718 29.9488647,23.1031799 29.9488647,22.8613861 C29.9488647,22.6095176 30.0286128,22.4029885 30.1881115,22.2417926 C30.3476102,22.0805967 30.5519648,22 30.8011815,22 C31.0404295,22 31.2447841,22.0831154 31.4142514,22.2493486 C31.5837188,22.4155819 31.6684512,22.6195923 31.6684512,22.8613861 C31.6684512,23.1031799 31.5837188,23.3046718 31.4142514,23.4658676 C31.2447841,23.6270635 31.0404295,23.7076602 30.8011815,23.7076602 Z M30.1432527,25.3095362 L31.4441573,25.3095362 L31.4441573,32.6690985 L30.1432527,32.6690985 L30.1432527,25.3095362 Z M36.6477755,32.8353309 C35.8602508,32.8353309 35.209805,32.6640629 34.6964187,32.3215216 C34.1830323,31.9789804 33.8042287,31.5180679 33.5599963,30.9387702 C33.315764,30.3594725 33.1936496,29.7071428 33.1936496,28.9817613 C33.1936496,28.2563799 33.3182561,27.6040501 33.5674728,27.0247525 C33.8166894,26.4454548 34.2004774,25.9845423 34.7188481,25.642001 C35.2372188,25.2994598 35.8801882,25.1281918 36.6477755,25.1281918 C37.2658329,25.1281918 37.8116092,25.2415309 38.2851209,25.4682126 C38.7586326,25.6948943 39.1299599,26.0248372 39.3991139,26.4580511 C39.6682679,26.891265 39.8128114,27.4050691 39.8327488,27.9994789 L38.4271737,27.9994789 C38.3972677,27.4554428 38.2253108,27.03231 37.9112978,26.7300677 C37.5972848,26.4278255 37.1761149,26.2767066 36.6477755,26.2767066 C35.9200628,26.2767066 35.3917314,26.53109 35.0627654,27.0398645 C34.7337994,27.548639 34.5693188,28.1959315 34.5693188,28.9817613 C34.5693188,29.7978154 34.7337994,30.4551825 35.0627654,30.9538822 C35.3917314,31.452582 35.9200628,31.7019281 36.6477755,31.7019281 C37.0066475,31.7019281 37.3181637,31.6288873 37.5823334,31.4828035 C37.8465031,31.3367198 38.0483656,31.1377466 38.1879269,30.8858781 C38.3274882,30.6340095 38.4022521,30.3468837 38.4122208,30.0244919 L39.8327488,30.0244919 C39.8128114,30.608827 39.6657758,31.1125565 39.3916374,31.5356957 C39.1174991,31.9588348 38.7436797,32.2812218 38.270168,32.5028661 C37.7966563,32.7245104 37.2558642,32.8353309 36.6477755,32.8353309 Z M44.3933912,25.1281918 C45.1609785,25.1281918 45.7690581,25.2541242 46.2176481,25.5059927 C46.6662382,25.7578613 46.9852307,26.1155092 47.1746354,26.5789474 C47.3640401,27.0423855 47.458741,27.6166372 47.458741,28.3017196 L47.458741,32.6690985 L46.1578364,32.6690985 L46.1578364,31.6868161 C45.9185884,32.0595815 45.5896273,32.3467073 45.1709433,32.5482022 C44.7522593,32.749697 44.2488492,32.8504429 43.6606978,32.8504429 C42.8133611,32.8504429 42.1678996,32.6489511 41.7242939,32.2459614 C41.2806882,31.8429718 41.0588887,31.3039811 41.0588887,30.6289734 C41.0588887,29.8129193 41.3579442,29.228593 41.9560642,28.8759771 C42.5541813,28.5233611 43.4314138,28.3470558 44.5877792,28.3470558 L46.1578364,28.3470558 L46.1578364,28.1052632 C46.1578364,27.6720492 46.1055017,27.3144013 46.0008307,27.0323085 C45.8961597,26.7502157 45.7167264,26.533612 45.4625254,26.3824909 C45.2083244,26.2313697 44.8569341,26.1558103 44.4083441,26.1558103 C43.8102241,26.1558103 43.3691172,26.2817427 43.0850102,26.5336113 C42.8009031,26.7854798 42.6588518,27.1431301 42.6588518,27.6065659 L41.3280414,27.6065659 C41.3280414,26.8308108 41.5897149,26.2238167 42.11307,25.7855654 C42.636425,25.3473141 43.3965245,25.1281918 44.3933912,25.1281918 Z M44.034521,31.7926003 C44.812077,31.7926003 45.3603455,31.573478 45.6793428,31.1352267 C45.9983402,30.6969754 46.1578364,30.0899813 46.1578364,29.3142262 L46.1578364,29.2840021 L44.6924497,29.2840021 C43.934831,29.2840021 43.3716097,29.3746734 43.0027691,29.5560188 C42.6339284,29.7373641 42.4495108,30.0547137 42.4495108,30.5080771 C42.4495108,30.9110668 42.5840858,31.2258978 42.8532398,31.4525795 C43.1223938,31.6792612 43.5161503,31.7926003 44.034521,31.7926003 Z M51.8549012,32.7899948 C51.1172199,32.7899948 50.581412,32.6111708 50.2474617,32.2535175 C49.9135113,31.8958641 49.7465387,31.3140565 49.7465387,30.5080771 L49.7465387,26.3976029 L48.6101163,26.3976029 L48.6101163,25.3095362 L49.7465387,25.3095362 L49.7465387,23.5263158 L51.0324903,23.5263158 L51.0324903,25.3095362 L53.110947,25.3095362 L53.110947,26.3976029 L51.0324903,26.3976029 L51.0324903,30.3267327 C51.0324903,30.7901708 51.1296834,31.1301883 51.3240724,31.3467952 C51.5184614,31.5634022 51.8150248,31.671704 52.2137715,31.671704 C52.4928941,31.671704 52.7819812,31.6314056 53.0810412,31.5508077 L53.0810412,32.6388744 C52.6623571,32.7396218 52.2536479,32.7899948 51.8549012,32.7899948 Z M55.4136976,23.7076602 C55.1644809,23.7076602 54.9601263,23.6270635 54.8006277,23.4658676 C54.641129,23.3046718 54.5613808,23.1031799 54.5613808,22.8613861 C54.5613808,22.6095176 54.641129,22.4029885 54.8006277,22.2417926 C54.9601263,22.0805967 55.1644809,22 55.4136976,22 C55.6529456,22 55.8573002,22.0831154 56.0267676,22.2493486 C56.1962349,22.4155819 56.2809673,22.6195923 56.2809673,22.8613861 C56.2809673,23.1031799 56.1962349,23.3046718 56.0267676,23.4658676 C55.8573002,23.6270635 55.6529456,23.7076602 55.4136976,23.7076602 Z M54.7557689,25.3095362 L56.0566734,25.3095362 L56.0566734,32.6690985 L54.7557689,32.6690985 L54.7557689,25.3095362 Z M61.2752446,32.8504429 C60.4976886,32.8504429 59.8472428,32.6741376 59.3238878,32.3215216 C58.8005327,31.9689057 58.4167448,31.5004372 58.1725125,30.9161021 C57.9282801,30.3317671 57.8061658,29.6920306 57.8061658,28.9968734 C57.8061658,28.2815667 57.9307722,27.6317556 58.1799889,27.0474205 C58.4292056,26.4630855 58.8129935,25.9971357 59.3313642,25.6495571 C59.8497349,25.3019785 60.4976886,25.1281918 61.2752446,25.1281918 C62.072738,25.1281918 62.7306601,25.3070158 63.2490308,25.6646691 C63.7674015,26.0223224 64.1486973,26.4933096 64.3929297,27.0776446 C64.637162,27.6619796 64.7592764,28.3017162 64.7592764,28.9968734 C64.7592764,29.7021053 64.637162,30.3443605 64.3929297,30.9236582 C64.1486973,31.5029558 63.7649094,31.9689057 63.2415544,32.3215216 C62.7181993,32.6741376 62.0627693,32.8504429 61.2752446,32.8504429 Z M61.2752446,31.7019281 C62.042832,31.7019281 62.5861162,31.4475447 62.9051135,30.9387702 C63.2241109,30.4299957 63.3836072,29.7827033 63.3836072,28.9968734 C63.3836072,28.1808193 63.2216188,27.5234522 62.8976371,27.0247525 C62.5736554,26.5260527 62.0328633,26.2767066 61.2752446,26.2767066 C60.5176259,26.2767066 59.9768338,26.53109 59.6528521,27.0398645 C59.3288704,27.548639 59.166882,28.2009687 59.166882,28.9968734 C59.166882,29.8028487 59.3338547,30.4551825 59.6678051,30.9538822 C60.0017554,31.452582 60.5375632,31.7019281 61.2752446,31.7019281 Z M70.1124239,25.1281918 C70.9597606,25.1281918 71.6002378,25.3800565 72.0338748,25.8837936 C72.4675119,26.3875307 72.6843271,27.1330505 72.6843271,28.1203752 L72.6843271,32.6690985 L71.3983755,32.6690985 L71.3983755,28.3772798 C71.3983755,27.6518984 71.2588162,27.1204637 70.9796936,26.7829599 C70.7005709,26.445456 70.2719246,26.2767066 69.6937419,26.2767066 C69.0856532,26.2767066 68.619625,26.453012 68.2956433,26.8056279 C67.9716617,27.1582439 67.8096733,27.6770853 67.8096733,28.3621678 L67.8096733,32.6690985 L66.5087687,32.6690985 L66.5087687,25.3095362 L67.8096733,25.3095362 L67.8096733,26.3371548 C68.0489213,25.9341651 68.3629296,25.6319264 68.7517076,25.4304325 C69.1404856,25.2289377 69.5940532,25.1281918 70.1124239,25.1281918 Z M77.8131807,22 L79.5178143,22 L82.8672697,30.3720688 L86.2316781,22 L87.9064058,22 L87.9064058,32.6690985 L86.5905483,32.6690985 L86.5905483,24.1761334 L83.211187,32.6690985 L82.5233524,32.6690985 L79.1290382,24.1761334 L79.1290382,32.6690985 L77.8131807,32.6690985 L77.8131807,22 Z M93.1847886,25.1281918 C93.952376,25.1281918 94.5604556,25.2541242 95.0090456,25.5059927 C95.4576356,25.7578613 95.7766282,26.1155092 95.9660329,26.5789474 C96.1554375,27.0423855 96.2501385,27.6166372 96.2501385,28.3017196 L96.2501385,32.6690985 L94.9492339,32.6690985 L94.9492339,31.6868161 C94.7099859,32.0595815 94.3810248,32.3467073 93.9623408,32.5482022 C93.5436568,32.749697 93.0402466,32.8504429 92.4520953,32.8504429 C91.6047585,32.8504429 90.959297,32.6489511 90.5156913,32.2459614 C90.0720857,31.8429718 89.8502861,31.3039811 89.8502861,30.6289734 C89.8502861,29.8129193 90.1493417,29.228593 90.7474617,28.8759771 C91.3455787,28.5233611 92.2228113,28.3470558 93.3791767,28.3470558 L94.9492339,28.3470558 L94.9492339,28.1052632 C94.9492339,27.6720492 94.8968992,27.3144013 94.7922282,27.0323085 C94.6875572,26.7502157 94.5081238,26.533612 94.2539228,26.3824909 C93.9997218,26.2313697 93.6483316,26.1558103 93.1997416,26.1558103 C92.6016215,26.1558103 92.1605146,26.2817427 91.8764076,26.5336113 C91.5923006,26.7854798 91.4502492,27.1431301 91.4502492,27.6065659 L90.1194388,27.6065659 C90.1194388,26.8308108 90.3811124,26.2238167 90.9044674,25.7855654 C91.4278224,25.3473141 92.1879219,25.1281918 93.1847886,25.1281918 Z M92.8259184,31.7926003 C93.6034744,31.7926003 94.1517429,31.573478 94.4707403,31.1352267 C94.7897376,30.6969754 94.9492339,30.0899813 94.9492339,29.3142262 L94.9492339,29.2840021 L93.4838471,29.2840021 C92.7262284,29.2840021 92.1630072,29.3746734 91.7941665,29.5560188 C91.4253258,29.7373641 91.2409083,30.0547137 91.2409083,30.5080771 C91.2409083,30.9110668 91.3754832,31.2258978 91.6446373,31.4525795 C91.9137913,31.6792612 92.3075477,31.7926003 92.8259184,31.7926003 Z M102.051874,25.1281918 C102.89921,25.1281918 103.539688,25.3800565 103.973325,25.8837936 C104.406962,26.3875307 104.623777,27.1330505 104.623777,28.1203752 L104.623777,32.6690985 L103.337825,32.6690985 L103.337825,28.3772798 C103.337825,27.6518984 103.198266,27.1204637 102.919143,26.7829599 C102.640021,26.445456 102.211374,26.2767066 101.633192,26.2767066 C101.025103,26.2767066 100.559075,26.453012 100.235093,26.8056279 C99.9111115,27.1582439 99.7491231,27.6770853 99.7491231,28.3621678 L99.7491231,32.6690985 L98.4482186,32.6690985 L98.4482186,25.3095362 L99.7491231,25.3095362 L99.7491231,26.3371548 C99.9883711,25.9341651 100.302379,25.6319264 100.691157,25.4304325 C101.079935,25.2289377 101.533503,25.1281918 102.051874,25.1281918 Z M109.618054,25.1281918 C110.385642,25.1281918 110.993721,25.2541242 111.442311,25.5059927 C111.890901,25.7578613 112.209894,26.1155092 112.399299,26.5789474 C112.588703,27.0423855 112.683404,27.6166372 112.683404,28.3017196 L112.683404,32.6690985 L111.3825,32.6690985 L111.3825,31.6868161 C111.143252,32.0595815 110.81429,32.3467073 110.395606,32.5482022 C109.976922,32.749697 109.473512,32.8504429 108.885361,32.8504429 C108.038024,32.8504429 107.392563,32.6489511 106.948957,32.2459614 C106.505351,31.8429718 106.283552,31.3039811 106.283552,30.6289734 C106.283552,29.8129193 106.582607,29.228593 107.180727,28.8759771 C107.778844,28.5233611 108.656077,28.3470558 109.812442,28.3470558 L111.3825,28.3470558 L111.3825,28.1052632 C111.3825,27.6720492 111.330165,27.3144013 111.225494,27.0323085 C111.120823,26.7502157 110.941389,26.533612 110.687188,26.3824909 C110.432987,26.2313697 110.081597,26.1558103 109.633007,26.1558103 C109.034887,26.1558103 108.59378,26.2817427 108.309673,26.5336113 C108.025566,26.7854798 107.883515,27.1431301 107.883515,27.6065659 L106.552704,27.6065659 C106.552704,26.8308108 106.814378,26.2238167 107.337733,25.7855654 C107.861088,25.3473141 108.621188,25.1281918 109.618054,25.1281918 Z M109.259184,31.7926003 C110.03674,31.7926003 110.585009,31.573478 110.904006,31.1352267 C111.223003,30.6969754 111.3825,30.0899813 111.3825,29.3142262 L111.3825,29.2840021 L109.917113,29.2840021 C109.159494,29.2840021 108.596273,29.3746734 108.227432,29.5560188 C107.858591,29.7373641 107.674174,30.0547137 107.674174,30.5080771 C107.674174,30.9110668 107.808749,31.2258978 108.077903,31.4525795 C108.347057,31.6792612 108.740813,31.7926003 109.259184,31.7926003 Z M121.191619,25.3095362 L121.191619,32.5330902 C121.191619,33.5909381 120.927453,34.4145359 120.399114,35.0039083 C119.870777,35.5932807 119.028435,35.8879625 117.872069,35.8879625 C116.915077,35.8879625 116.142517,35.6789147 115.554366,35.2608129 C114.966215,34.8427111 114.637253,34.2306797 114.567473,33.4247004 L115.943142,33.4247004 C115.963079,33.8780638 116.145005,34.2256371 116.488924,34.467431 C116.832843,34.7092248 117.288902,34.8301199 117.857116,34.8301199 C118.584829,34.8301199 119.110668,34.6412213 119.43465,34.2634184 C119.758632,33.8856156 119.92062,33.3692928 119.92062,32.7144346 L119.92062,31.5054716 C119.671404,31.9286108 119.33995,32.248479 118.926251,32.465086 C118.512551,32.6816929 118.026586,32.7899948 117.46834,32.7899948 C116.760565,32.7899948 116.177407,32.6162081 115.718848,32.2686295 C115.260289,31.9210509 114.923852,31.4601384 114.709526,30.8858781 C114.495199,30.3116178 114.388038,29.6668439 114.388038,28.9515373 C114.388038,28.2463053 114.497691,27.6040501 114.717002,27.0247525 C114.936313,26.4454548 115.275242,25.9845423 115.733801,25.642001 C116.19236,25.2994598 116.770534,25.1281918 117.46834,25.1281918 C118.016617,25.1281918 118.497598,25.2390123 118.911298,25.4606566 C119.324997,25.6823009 119.661435,26.0097251 119.92062,26.442939 L119.92062,25.3095362 L121.191619,25.3095362 Z M117.857116,31.6868161 C118.50508,31.6868161 119.010982,31.4702123 119.374838,31.0369984 C119.738695,30.6037845 119.92062,29.9892345 119.92062,29.1933299 L119.92062,28.7550808 C119.92062,27.9692509 119.738695,27.3597381 119.374838,26.9265242 C119.010982,26.4933103 118.50508,26.2767066 117.857116,26.2767066 C117.119435,26.2767066 116.583627,26.5285714 116.249677,27.0323085 C115.915727,27.5360456 115.748754,28.1808194 115.748754,28.9666493 C115.748754,29.7625539 115.915727,30.4148837 116.249677,30.9236582 C116.583627,31.4324326 117.119435,31.6868161 117.857116,31.6868161 Z M126.514861,31.7623762 C127.063137,31.7623762 127.504244,31.6414811 127.838195,31.3996873 C128.172145,31.1578935 128.38896,30.8153574 128.488647,30.3720688 L129.83441,30.3720688 C129.754661,30.8959554 129.562767,31.341756 129.258723,31.7094841 C128.954678,32.0772122 128.568398,32.3567821 128.099871,32.5482022 C127.631343,32.7396223 127.107996,32.8353309 126.529814,32.8353309 C125.722352,32.8353309 125.051969,32.6665815 124.518645,32.3290776 C123.985321,31.9915738 123.591565,31.5331799 123.337364,30.9538822 C123.083163,30.3745846 122.956064,29.7172175 122.956064,28.9817613 C122.956064,28.2563799 123.083163,27.6015315 123.337364,27.0171965 C123.591565,26.4328614 123.980337,25.9719489 124.503692,25.634445 C125.027047,25.2969412 125.677493,25.1281918 126.455049,25.1281918 C127.202699,25.1281918 127.838192,25.2893852 128.361547,25.611777 C128.884902,25.9341687 129.276166,26.382488 129.535352,26.9567483 C129.674913,27.2791401 129.769614,27.6166388 129.819457,27.9692548 C129.869301,28.3218708 129.899206,28.7500409 129.909175,29.253778 L124.286875,29.253778 C124.316781,30.0396079 124.50369,30.6541579 124.847609,31.0974466 C125.191528,31.5407352 125.747273,31.7623762 126.514861,31.7623762 Z M126.455049,26.1860344 C125.208966,26.1860344 124.501201,26.8811812 124.331733,28.2714956 L128.533506,28.2714956 C128.473694,27.6065626 128.279308,27.0927585 127.950342,26.7300677 C127.621376,26.367377 127.12295,26.1860344 126.455049,26.1860344 Z M134.798782,25.218864 C135.057967,25.218864 135.292227,25.2490878 135.501569,25.3095362 L135.501569,26.4882751 C135.302196,26.4379014 135.077904,26.412715 134.828687,26.412715 C134.21063,26.412715 133.74211,26.6066508 133.423112,26.9945284 C133.104115,27.382406 132.944619,27.9289525 132.944619,28.6341845 L132.944619,32.6690985 L131.643714,32.6690985 L131.643714,25.3095362 L132.929666,25.3095362 L132.929666,26.3069307 C133.109102,25.9543147 133.355823,25.6848194 133.669836,25.4984367 C133.983849,25.312054 134.36016,25.218864 134.798782,25.218864 Z" id="cloudera-migration-manager"></path>
        </g>
    </g>
</svg>