<?xml version="1.0" encoding="UTF-8"?>
<svg width="83px" height="40px" viewBox="0 0 83 40" version="1.1" xmlns="http://www.w3.org/2000/svg" xmlns:xlink="http://www.w3.org/1999/xlink">
    <title>wordmark-data hub</title>
    <g id="Symbols" stroke="none" stroke-width="1" fill="none" fill-rule="evenodd">
        <g id="logo/service" fill="#FFFFFF" transform="translate(0.000000, 7.000000)">
            <path d="M4.435,25.59 C8.05,25.59 9.265,23.31 9.265,20.295 C9.265,17.325 8.08,15 4.435,15 L1,15 L1,25.59 L4.435,25.59 Z M4.255,24.42 L2.395,24.42 L2.395,16.17 L4.255,16.17 C7.075,16.17 7.795,17.91 7.795,20.295 C7.795,22.635 7.105,24.42 4.255,24.42 Z M13.225,25.77 C14.425,25.77 15.25,25.35 15.73,24.615 L15.73,25.59 L17.035,25.59 L17.035,21.255 C17.035,19.335 16.345,18.105 13.96,18.105 C11.92,18.105 10.885,19.05 10.885,20.565 L12.22,20.565 C12.22,19.68 12.73,19.125 13.975,19.125 C15.355,19.125 15.73,19.83 15.73,21.06 L15.73,21.3 L14.155,21.3 C11.95,21.3 10.615,21.87 10.615,23.565 C10.615,24.87 11.47,25.77 13.225,25.77 Z M13.6,24.72 C12.535,24.72 12.01,24.24 12.01,23.445 C12.01,22.5 12.835,22.23 14.26,22.23 L15.73,22.23 L15.73,22.26 C15.73,23.655 15.265,24.72 13.6,24.72 Z M21.445,25.71 C21.835,25.71 22.3,25.65 22.675,25.56 L22.675,24.48 C22.39,24.555 22.075,24.6 21.805,24.6 C21.025,24.6 20.62,24.195 20.62,23.265 L20.62,19.365 L22.705,19.365 L22.705,18.285 L20.62,18.285 L20.62,16.515 L19.33,16.515 L19.33,18.285 L18.19,18.285 L18.19,19.365 L19.33,19.365 L19.33,23.445 C19.33,25.05 19.975,25.71 21.445,25.71 Z M26.44,25.77 C27.64,25.77 28.465,25.35 28.945,24.615 L28.945,25.59 L30.25,25.59 L30.25,21.255 C30.25,19.335 29.56,18.105 27.175,18.105 C25.135,18.105 24.1,19.05 24.1,20.565 L25.435,20.565 C25.435,19.68 25.945,19.125 27.19,19.125 C28.57,19.125 28.945,19.83 28.945,21.06 L28.945,21.3 L27.37,21.3 C25.165,21.3 23.83,21.87 23.83,23.565 C23.83,24.87 24.685,25.77 26.44,25.77 Z M26.815,24.72 C25.75,24.72 25.225,24.24 25.225,23.445 C25.225,22.5 26.05,22.23 27.475,22.23 L28.945,22.23 L28.945,22.26 C28.945,23.655 28.48,24.72 26.815,24.72 Z M36.805,25.59 L36.805,20.79 L41.62,20.79 L41.62,25.59 L43.015,25.59 L43.015,15 L41.62,15 L41.62,19.59 L36.805,19.59 L36.805,15 L35.41,15 L35.41,25.59 L36.805,25.59 Z M48.01,25.77 C49.045,25.77 49.84,25.38 50.32,24.57 L50.32,25.59 L51.625,25.59 L51.625,18.285 L50.32,18.285 L50.32,22.56 C50.32,23.925 49.63,24.63 48.43,24.63 C47.275,24.63 46.72,24 46.72,22.545 L46.72,18.285 L45.43,18.285 L45.43,22.8 C45.43,24.765 46.315,25.77 48.01,25.77 Z M57.61,25.755 C59.83,25.755 60.745,23.97 60.745,21.93 C60.745,19.95 59.86,18.105 57.61,18.105 C56.545,18.105 55.705,18.525 55.195,19.395 L55.195,15 L53.89,15 L53.89,25.59 L55.18,25.59 L55.18,24.45 C55.69,25.32 56.545,25.755 57.61,25.755 Z M57.25,24.63 C55.96,24.63 55.18,23.73 55.18,22.14 L55.18,21.72 C55.18,20.16 55.96,19.245 57.25,19.245 C58.84,19.245 59.365,20.505 59.365,21.93 C59.365,23.355 58.855,24.63 57.25,24.63 Z" id="DataHub" fill-rule="nonzero"></path>
            <g id="logo/cloudera/cloudera-white">
                <path d="M37.4238401,5.56583333 C37.4238401,7.08083333 36.5443298,7.995 35.3076236,7.995 C34.0709175,7.995 33.1914071,7.08083333 33.1914071,5.56583333 L33.1914071,0.218333333 L30.9513515,0.218333333 L30.9513515,5.48 C30.9513515,8.25083333 32.7103722,10 35.3076236,10 C37.9040326,10 39.6630533,8.25083333 39.6630533,5.48 L39.6630533,0.218333333 L37.4238401,0.218333333 L37.4238401,5.56583333 Z M79.2376501,6.055 L77.8922688,2.70416667 L76.5468875,6.055 L79.2376501,6.055 Z M83,9.78166667 L80.7346711,9.78166667 L79.9503568,7.83 L75.8341809,7.83 L75.050709,9.78166667 L72.7853801,9.78166667 L76.8670158,0.218333333 L78.8728723,0.218333333 L83,9.78166667 Z M69.7163606,3.5175 C69.7163606,3.095 69.5453447,2.7 69.2858723,2.47416667 C68.9927022,2.21916667 68.5714808,2.08666667 67.985983,2.08666667 L65.8453356,2.08666667 L65.8453356,4.95833333 L67.9927225,4.95833333 C68.5672686,4.95833333 68.9758534,4.83 69.2656537,4.58333333 C69.5386052,4.35083333 69.7163606,3.95166667 69.7163606,3.5175 L69.7163606,3.5175 Z M69.4956406,6.56416667 L72.2537986,9.78166667 L69.6464379,9.78166667 L67.078672,6.7625 L65.8453356,6.7625 L65.8453356,9.78166667 L63.6507719,9.78166667 L63.6507719,0.218333333 L68.1089796,0.218333333 C69.3515829,0.218333333 70.2639485,0.518333333 70.9185266,1.07166667 C71.5731048,1.625 71.9538889,2.475 71.9538889,3.48666667 C71.9538889,4.75333333 71.4096708,6.06916667 69.4956406,6.56416667 L69.4956406,6.56416667 Z M13.1876009,0.218333333 L10.9483877,0.218333333 L10.9483877,9.78166667 L17.7233133,9.78166667 L17.7233133,7.83583333 L13.1876009,7.83583333 L13.1876009,0.218333333 Z M5.17596906,7.98 C3.52225369,7.98 2.32345747,6.68916667 2.32345747,4.99916667 C2.32345747,3.30916667 3.52225369,2.02083333 5.17596906,2.02083333 C5.97207759,2.02083333 6.62918303,2.30083333 7.20372908,2.83916667 L8.64683373,1.41166667 C7.77490535,0.521666667 6.55841783,0 5.15153822,0 C2.24258295,0 0,2.19666667 0,5 C0,7.80416667 2.24258295,10 5.15153822,10 C6.62160105,10 7.90885377,9.4125 8.78583681,8.42583333 L7.35031414,7.00583333 C6.77071344,7.63916667 6.07906783,7.98 5.17596906,7.98 L5.17596906,7.98 Z M49.3098667,5 C49.3098667,3.27333333 48.0487297,2.13 46.1709246,2.13 L44.6941222,2.13 L44.6941222,7.87 L46.1709246,7.87 C48.0487297,7.87 49.3098667,6.72666667 49.3098667,5 L49.3098667,5 Z M51.6341666,5 C51.6341666,7.86 49.5019437,9.78166667 46.3293038,9.78166667 L42.454909,9.78166667 L42.454909,0.218333333 L46.2349502,0.218333333 C49.4084325,0.218333333 51.6341666,2.14 51.6341666,5 L51.6341666,5 Z M26.430803,5.015 C26.430803,3.27083333 25.2766562,2.00583333 23.6482141,2.00583333 C22.0214569,2.00583333 20.8664677,3.27083333 20.8664677,5.015 C20.8664677,6.74166667 22.0214569,7.995 23.6482141,7.995 C25.2766562,7.995 26.430803,6.74166667 26.430803,5.015 L26.430803,5.015 Z M28.7542604,5.01416667 C28.7542604,7.81 26.6144555,10 23.6482141,10 C20.6828152,10 18.5430103,7.81 18.5430103,5.01416667 C18.5430103,2.2025 20.6828152,0 23.6482141,0 C26.6144555,0 28.7542604,2.2025 28.7542604,5.01416667 L28.7542604,5.01416667 Z M52.6518376,9.78166667 L61.0274048,9.78166667 L61.0274048,7.805 L53.9770003,7.805 C53.6627691,8.55416667 53.2129046,9.215 52.6518376,9.78166667 L52.6518376,9.78166667 Z M59.837033,5.9475 L59.837033,3.99 L54.4352892,3.99 C54.482466,4.325 54.5144789,4.66666667 54.5144789,5.0225 C54.5144789,5.34 54.490048,5.64666667 54.453823,5.9475 L59.837033,5.9475 Z M52.5448474,0.218333333 L60.9835977,0.218333333 L60.9835977,2.195 L53.9399328,2.195 C53.6063254,1.44416667 53.1311876,0.784166667 52.5448474,0.218333333 L52.5448474,0.218333333 Z" id="cloudera"></path>
            </g>
        </g>
    </g>
</svg>