<?xml version="1.0" encoding="UTF-8"?>
<svg width="146px" height="40px" viewBox="0 0 146 40" version="1.1" xmlns="http://www.w3.org/2000/svg" xmlns:xlink="http://www.w3.org/1999/xlink">
    <title>wordmark-management console</title>
    <g id="Symbols" stroke="none" stroke-width="1" fill="none" fill-rule="evenodd">
        <g id="product-logos/wordmarks/management-console" fill="#FFFFFF">
            <path d="M2.32,32.83 L2.32,24.4 L5.725,32.83 L6.415,32.83 L9.805,24.4 L9.805,32.83 L11.125,32.83 L11.125,22.24 L9.445,22.24 L6.07,30.55 L2.71,22.24 L1,22.24 L1,32.83 L2.32,32.83 Z M15.685,33.01 C16.885,33.01 17.71,32.59 18.19,31.855 L18.19,32.83 L19.495,32.83 L19.495,28.495 C19.495,26.575 18.805,25.345 16.42,25.345 C14.38,25.345 13.345,26.29 13.345,27.805 L14.68,27.805 C14.68,26.92 15.19,26.365 16.435,26.365 C17.815,26.365 18.19,27.07 18.19,28.3 L18.19,28.54 L16.615,28.54 C14.41,28.54 13.075,29.11 13.075,30.805 C13.075,32.11 13.93,33.01 15.685,33.01 Z M16.06,31.96 C14.995,31.96 14.47,31.48 14.47,30.685 C14.47,29.74 15.295,29.47 16.72,29.47 L18.19,29.47 L18.19,29.5 C18.19,30.895 17.725,31.96 16.06,31.96 Z M23.005,32.83 L23.005,28.555 C23.005,27.19 23.695,26.485 24.895,26.485 C26.05,26.485 26.605,27.115 26.605,28.57 L26.605,32.83 L27.895,32.83 L27.895,28.315 C27.895,26.35 27.01,25.345 25.315,25.345 C24.28,25.345 23.485,25.735 23.005,26.545 L23.005,25.525 L21.7,25.525 L21.7,32.83 L23.005,32.83 Z M32.17,33.01 C33.37,33.01 34.195,32.59 34.675,31.855 L34.675,32.83 L35.98,32.83 L35.98,28.495 C35.98,26.575 35.29,25.345 32.905,25.345 C30.865,25.345 29.83,26.29 29.83,27.805 L31.165,27.805 C31.165,26.92 31.675,26.365 32.92,26.365 C34.3,26.365 34.675,27.07 34.675,28.3 L34.675,28.54 L33.1,28.54 C30.895,28.54 29.56,29.11 29.56,30.805 C29.56,32.11 30.415,33.01 32.17,33.01 Z M32.545,31.96 C31.48,31.96 30.955,31.48 30.955,30.685 C30.955,29.74 31.78,29.47 33.205,29.47 L34.675,29.47 L34.675,29.5 C34.675,30.895 34.21,31.96 32.545,31.96 Z M41.185,36.025 C43.615,36.025 44.515,34.675 44.515,32.695 L44.515,25.525 L43.24,25.525 L43.24,26.65 C42.73,25.795 41.89,25.345 40.78,25.345 C38.59,25.345 37.69,27.13 37.69,29.14 C37.69,31.15 38.56,32.95 40.78,32.95 C41.89,32.95 42.73,32.515 43.24,31.675 L43.24,32.875 C43.24,34.06 42.73,34.975 41.17,34.975 C40.06,34.975 39.295,34.51 39.25,33.58 L37.87,33.58 C38.005,35.215 39.31,36.025 41.185,36.025 Z M41.17,31.855 C39.595,31.855 39.055,30.58 39.055,29.155 C39.055,27.76 39.58,26.485 41.17,26.485 C42.46,26.485 43.24,27.37 43.24,28.945 L43.24,29.38 C43.24,30.955 42.475,31.855 41.17,31.855 Z M49.87,32.995 C51.595,32.995 52.93,32.14 53.185,30.55 L51.835,30.55 C51.64,31.435 50.95,31.93 49.855,31.93 C48.22,31.93 47.68,30.88 47.62,29.44 L53.26,29.44 C53.245,28.495 53.17,27.835 52.885,27.16 C52.375,26.05 51.325,25.345 49.795,25.345 C47.365,25.345 46.285,27.07 46.285,29.17 C46.285,31.285 47.35,32.995 49.87,32.995 Z M51.88,28.465 L47.665,28.465 C47.815,27.265 48.385,26.395 49.795,26.395 C51.205,26.395 51.76,27.22 51.88,28.465 Z M56.305,32.83 L56.305,28.57 C56.305,27.22 56.95,26.485 58.09,26.485 C59.185,26.485 59.695,27.115 59.695,28.585 L59.695,32.83 L61,32.83 L61,28.57 C61,27.22 61.63,26.485 62.77,26.485 C63.865,26.485 64.39,27.115 64.39,28.585 L64.39,32.83 L65.695,32.83 L65.695,28.345 C65.695,26.365 64.87,25.345 63.205,25.345 C62.11,25.345 61.255,25.795 60.805,26.8 C60.475,25.825 59.71,25.345 58.54,25.345 C57.52,25.345 56.755,25.735 56.305,26.485 L56.305,25.525 L55,25.525 L55,32.83 L56.305,32.83 Z M70.975,32.995 C72.7,32.995 74.035,32.14 74.29,30.55 L72.94,30.55 C72.745,31.435 72.055,31.93 70.96,31.93 C69.325,31.93 68.785,30.88 68.725,29.44 L74.365,29.44 C74.35,28.495 74.275,27.835 73.99,27.16 C73.48,26.05 72.43,25.345 70.9,25.345 C68.47,25.345 67.39,27.07 67.39,29.17 C67.39,31.285 68.455,32.995 70.975,32.995 Z M72.985,28.465 L68.77,28.465 C68.92,27.265 69.49,26.395 70.9,26.395 C72.31,26.395 72.865,27.22 72.985,28.465 Z M77.41,32.83 L77.41,28.555 C77.41,27.19 78.1,26.485 79.3,26.485 C80.455,26.485 81.01,27.115 81.01,28.57 L81.01,32.83 L82.3,32.83 L82.3,28.315 C82.3,26.35 81.415,25.345 79.72,25.345 C78.685,25.345 77.89,25.735 77.41,26.545 L77.41,25.525 L76.105,25.525 L76.105,32.83 L77.41,32.83 Z M86.77,32.95 C87.16,32.95 87.625,32.89 88,32.8 L88,31.72 C87.715,31.795 87.4,31.84 87.13,31.84 C86.35,31.84 85.945,31.435 85.945,30.505 L85.945,26.605 L88.03,26.605 L88.03,25.525 L85.945,25.525 L85.945,23.755 L84.655,23.755 L84.655,25.525 L83.515,25.525 L83.515,26.605 L84.655,26.605 L84.655,30.685 C84.655,32.29 85.3,32.95 86.77,32.95 Z M96.76,33.07 C99.295,33.07 101.065,31.6 101.11,29.095 L99.7,29.095 C99.61,30.85 98.545,31.855 96.7,31.855 C94.135,31.855 93.505,29.86 93.505,27.535 C93.505,25.24 94.15,23.215 96.685,23.215 C98.455,23.215 99.58,24.19 99.655,25.93 L101.08,25.93 C100.99,23.5 99.265,22 96.76,22 C93.25,22 92.035,24.61 92.035,27.535 C92.035,30.49 93.25,33.07 96.76,33.07 Z M105.895,33.01 C108.385,33.01 109.39,31.18 109.39,29.185 C109.39,27.22 108.4,25.345 105.895,25.345 C103.465,25.345 102.415,27.145 102.415,29.185 C102.415,31.165 103.435,33.01 105.895,33.01 Z M105.895,31.87 C104.305,31.87 103.78,30.64 103.78,29.185 C103.78,27.805 104.245,26.485 105.895,26.485 C107.53,26.485 108.01,27.73 108.01,29.185 C108.01,30.535 107.575,31.87 105.895,31.87 Z M112.45,32.83 L112.45,28.555 C112.45,27.19 113.14,26.485 114.34,26.485 C115.495,26.485 116.05,27.115 116.05,28.57 L116.05,32.83 L117.34,32.83 L117.34,28.315 C117.34,26.35 116.455,25.345 114.76,25.345 C113.725,25.345 112.93,25.735 112.45,26.545 L112.45,25.525 L111.145,25.525 L111.145,32.83 L112.45,32.83 Z M121.945,33.01 C123.79,33.01 124.855,32.2 124.855,30.76 C124.855,29.425 123.91,28.945 122.44,28.555 C121.39,28.27 120.535,28.105 120.535,27.295 C120.535,26.71 120.925,26.275 121.855,26.275 C122.89,26.275 123.28,26.86 123.28,27.685 L124.54,27.685 C124.54,26.275 123.73,25.345 121.87,25.345 C120.145,25.345 119.275,26.185 119.275,27.43 C119.275,28.735 120.265,29.2 121.63,29.545 C122.62,29.8 123.475,29.995 123.475,30.88 C123.475,31.57 123.01,32.02 121.93,32.02 C120.7,32.02 120.28,31.33 120.28,30.4 L119.005,30.4 C119.005,31.915 119.8,33.01 121.945,33.01 Z M129.55,33.01 C132.04,33.01 133.045,31.18 133.045,29.185 C133.045,27.22 132.055,25.345 129.55,25.345 C127.12,25.345 126.07,27.145 126.07,29.185 C126.07,31.165 127.09,33.01 129.55,33.01 Z M129.55,31.87 C127.96,31.87 127.435,30.64 127.435,29.185 C127.435,27.805 127.9,26.485 129.55,26.485 C131.185,26.485 131.665,27.73 131.665,29.185 C131.665,30.535 131.23,31.87 129.55,31.87 Z M136.105,32.83 L136.105,22.24 L134.8,22.24 L134.8,32.83 L136.105,32.83 Z M141.445,32.995 C143.17,32.995 144.505,32.14 144.76,30.55 L143.41,30.55 C143.215,31.435 142.525,31.93 141.43,31.93 C139.795,31.93 139.255,30.88 139.195,29.44 L144.835,29.44 C144.82,28.495 144.745,27.835 144.46,27.16 C143.95,26.05 142.9,25.345 141.37,25.345 C138.94,25.345 137.86,27.07 137.86,29.17 C137.86,31.285 138.925,32.995 141.445,32.995 Z M143.455,28.465 L139.24,28.465 C139.39,27.265 139.96,26.395 141.37,26.395 C142.78,26.395 143.335,27.22 143.455,28.465 Z" id="ManagementConsole" fill-rule="nonzero"></path>
            <g id="logo/cloudera/cloudera-white" transform="translate(0.000000, 7.000000)">
                <path d="M37.4238401,5.56583333 C37.4238401,7.08083333 36.5443298,7.995 35.3076236,7.995 C34.0709175,7.995 33.1914071,7.08083333 33.1914071,5.56583333 L33.1914071,0.218333333 L30.9513515,0.218333333 L30.9513515,5.48 C30.9513515,8.25083333 32.7103722,10 35.3076236,10 C37.9040326,10 39.6630533,8.25083333 39.6630533,5.48 L39.6630533,0.218333333 L37.4238401,0.218333333 L37.4238401,5.56583333 Z M79.2376501,6.055 L77.8922688,2.70416667 L76.5468875,6.055 L79.2376501,6.055 Z M83,9.78166667 L80.7346711,9.78166667 L79.9503568,7.83 L75.8341809,7.83 L75.050709,9.78166667 L72.7853801,9.78166667 L76.8670158,0.218333333 L78.8728723,0.218333333 L83,9.78166667 Z M69.7163606,3.5175 C69.7163606,3.095 69.5453447,2.7 69.2858723,2.47416667 C68.9927022,2.21916667 68.5714808,2.08666667 67.985983,2.08666667 L65.8453356,2.08666667 L65.8453356,4.95833333 L67.9927225,4.95833333 C68.5672686,4.95833333 68.9758534,4.83 69.2656537,4.58333333 C69.5386052,4.35083333 69.7163606,3.95166667 69.7163606,3.5175 L69.7163606,3.5175 Z M69.4956406,6.56416667 L72.2537986,9.78166667 L69.6464379,9.78166667 L67.078672,6.7625 L65.8453356,6.7625 L65.8453356,9.78166667 L63.6507719,9.78166667 L63.6507719,0.218333333 L68.1089796,0.218333333 C69.3515829,0.218333333 70.2639485,0.518333333 70.9185266,1.07166667 C71.5731048,1.625 71.9538889,2.475 71.9538889,3.48666667 C71.9538889,4.75333333 71.4096708,6.06916667 69.4956406,6.56416667 L69.4956406,6.56416667 Z M13.1876009,0.218333333 L10.9483877,0.218333333 L10.9483877,9.78166667 L17.7233133,9.78166667 L17.7233133,7.83583333 L13.1876009,7.83583333 L13.1876009,0.218333333 Z M5.17596906,7.98 C3.52225369,7.98 2.32345747,6.68916667 2.32345747,4.99916667 C2.32345747,3.30916667 3.52225369,2.02083333 5.17596906,2.02083333 C5.97207759,2.02083333 6.62918303,2.30083333 7.20372908,2.83916667 L8.64683373,1.41166667 C7.77490535,0.521666667 6.55841783,0 5.15153822,0 C2.24258295,0 0,2.19666667 0,5 C0,7.80416667 2.24258295,10 5.15153822,10 C6.62160105,10 7.90885377,9.4125 8.78583681,8.42583333 L7.35031414,7.00583333 C6.77071344,7.63916667 6.07906783,7.98 5.17596906,7.98 L5.17596906,7.98 Z M49.3098667,5 C49.3098667,3.27333333 48.0487297,2.13 46.1709246,2.13 L44.6941222,2.13 L44.6941222,7.87 L46.1709246,7.87 C48.0487297,7.87 49.3098667,6.72666667 49.3098667,5 L49.3098667,5 Z M51.6341666,5 C51.6341666,7.86 49.5019437,9.78166667 46.3293038,9.78166667 L42.454909,9.78166667 L42.454909,0.218333333 L46.2349502,0.218333333 C49.4084325,0.218333333 51.6341666,2.14 51.6341666,5 L51.6341666,5 Z M26.430803,5.015 C26.430803,3.27083333 25.2766562,2.00583333 23.6482141,2.00583333 C22.0214569,2.00583333 20.8664677,3.27083333 20.8664677,5.015 C20.8664677,6.74166667 22.0214569,7.995 23.6482141,7.995 C25.2766562,7.995 26.430803,6.74166667 26.430803,5.015 L26.430803,5.015 Z M28.7542604,5.01416667 C28.7542604,7.81 26.6144555,10 23.6482141,10 C20.6828152,10 18.5430103,7.81 18.5430103,5.01416667 C18.5430103,2.2025 20.6828152,0 23.6482141,0 C26.6144555,0 28.7542604,2.2025 28.7542604,5.01416667 L28.7542604,5.01416667 Z M52.6518376,9.78166667 L61.0274048,9.78166667 L61.0274048,7.805 L53.9770003,7.805 C53.6627691,8.55416667 53.2129046,9.215 52.6518376,9.78166667 L52.6518376,9.78166667 Z M59.837033,5.9475 L59.837033,3.99 L54.4352892,3.99 C54.482466,4.325 54.5144789,4.66666667 54.5144789,5.0225 C54.5144789,5.34 54.490048,5.64666667 54.453823,5.9475 L59.837033,5.9475 Z M52.5448474,0.218333333 L60.9835977,0.218333333 L60.9835977,2.195 L53.9399328,2.195 C53.6063254,1.44416667 53.1311876,0.784166667 52.5448474,0.218333333 L52.5448474,0.218333333 Z" id="cloudera"></path>
            </g>
        </g>
    </g>
</svg>