<?xml version="1.0" encoding="UTF-8"?>
<svg width="91px" height="40px" viewBox="0 0 91 40" version="1.1" xmlns="http://www.w3.org/2000/svg" xmlns:xlink="http://www.w3.org/1999/xlink">
    <title>wordmark-cdp</title>
    <g id="Symbols" stroke="none" stroke-width="1" fill="none" fill-rule="evenodd">
        <g id="logo/service" fill="#FFFFFF" transform="translate(0.000000, 7.000000)">
            <path d="M4.435,25.755 C8.05,25.755 9.265,23.475 9.265,20.46 C9.265,17.49 8.08,15.165 4.435,15.165 L1,15.165 L1,25.755 L4.435,25.755 Z M4.255,24.585 L2.395,24.585 L2.395,16.335 L4.255,16.335 C7.075,16.335 7.795,18.075 7.795,20.46 C7.795,22.8 7.105,24.585 4.255,24.585 Z M13.225,25.935 C14.425,25.935 15.25,25.515 15.73,24.78 L15.73,25.755 L17.035,25.755 L17.035,21.42 C17.035,19.5 16.345,18.27 13.96,18.27 C11.92,18.27 10.885,19.215 10.885,20.73 L12.22,20.73 C12.22,19.845 12.73,19.29 13.975,19.29 C15.355,19.29 15.73,19.995 15.73,21.225 L15.73,21.465 L14.155,21.465 C11.95,21.465 10.615,22.035 10.615,23.73 C10.615,25.035 11.47,25.935 13.225,25.935 Z M13.6,24.885 C12.535,24.885 12.01,24.405 12.01,23.61 C12.01,22.665 12.835,22.395 14.26,22.395 L15.73,22.395 L15.73,22.425 C15.73,23.82 15.265,24.885 13.6,24.885 Z M21.445,25.875 C21.835,25.875 22.3,25.815 22.675,25.725 L22.675,24.645 C22.39,24.72 22.075,24.765 21.805,24.765 C21.025,24.765 20.62,24.36 20.62,23.43 L20.62,19.53 L22.705,19.53 L22.705,18.45 L20.62,18.45 L20.62,16.68 L19.33,16.68 L19.33,18.45 L18.19,18.45 L18.19,19.53 L19.33,19.53 L19.33,23.61 C19.33,25.215 19.975,25.875 21.445,25.875 Z M26.44,25.935 C27.64,25.935 28.465,25.515 28.945,24.78 L28.945,25.755 L30.25,25.755 L30.25,21.42 C30.25,19.5 29.56,18.27 27.175,18.27 C25.135,18.27 24.1,19.215 24.1,20.73 L25.435,20.73 C25.435,19.845 25.945,19.29 27.19,19.29 C28.57,19.29 28.945,19.995 28.945,21.225 L28.945,21.465 L27.37,21.465 C25.165,21.465 23.83,22.035 23.83,23.73 C23.83,25.035 24.685,25.935 26.44,25.935 Z M26.815,24.885 C25.75,24.885 25.225,24.405 25.225,23.61 C25.225,22.665 26.05,22.395 27.475,22.395 L28.945,22.395 L28.945,22.425 C28.945,23.82 28.48,24.885 26.815,24.885 Z M36.805,25.755 L36.805,21.045 L38.95,21.045 C41.245,21.045 42.31,19.935 42.31,18.075 C42.31,16.275 41.32,15.165 38.95,15.165 L35.41,15.165 L35.41,25.755 L36.805,25.755 Z M38.62,19.92 L36.805,19.92 L36.805,16.275 L38.62,16.275 C40.18,16.275 40.87,16.875 40.87,18.09 C40.87,19.305 40.18,19.92 38.62,19.92 Z M45.1,25.755 L45.1,15.165 L43.795,15.165 L43.795,25.755 L45.1,25.755 Z M49.435,25.935 C50.635,25.935 51.46,25.515 51.94,24.78 L51.94,25.755 L53.245,25.755 L53.245,21.42 C53.245,19.5 52.555,18.27 50.17,18.27 C48.13,18.27 47.095,19.215 47.095,20.73 L48.43,20.73 C48.43,19.845 48.94,19.29 50.185,19.29 C51.565,19.29 51.94,19.995 51.94,21.225 L51.94,21.465 L50.365,21.465 C48.16,21.465 46.825,22.035 46.825,23.73 C46.825,25.035 47.68,25.935 49.435,25.935 Z M49.81,24.885 C48.745,24.885 48.22,24.405 48.22,23.61 C48.22,22.665 49.045,22.395 50.47,22.395 L51.94,22.395 L51.94,22.425 C51.94,23.82 51.475,24.885 49.81,24.885 Z M57.655,25.875 C58.045,25.875 58.51,25.815 58.885,25.725 L58.885,24.645 C58.6,24.72 58.285,24.765 58.015,24.765 C57.235,24.765 56.83,24.36 56.83,23.43 L56.83,19.53 L58.915,19.53 L58.915,18.45 L56.83,18.45 L56.83,16.68 L55.54,16.68 L55.54,18.45 L54.4,18.45 L54.4,19.53 L55.54,19.53 L55.54,23.61 C55.54,25.215 56.185,25.875 57.655,25.875 Z M62.215,25.755 L62.215,19.53 L64.09,19.53 L64.09,18.45 L62.215,18.45 L62.215,17.4 C62.215,16.56 62.605,16.095 63.445,16.095 C63.67,16.095 63.925,16.14 64.12,16.185 L64.12,15.09 C63.88,15.03 63.565,15 63.265,15 C61.615,15 60.91,15.72 60.91,17.28 L60.91,18.45 L59.8,18.45 L59.8,19.53 L60.91,19.53 L60.91,25.755 L62.215,25.755 Z M68.215,25.935 C70.705,25.935 71.71,24.105 71.71,22.11 C71.71,20.145 70.72,18.27 68.215,18.27 C65.785,18.27 64.735,20.07 64.735,22.11 C64.735,24.09 65.755,25.935 68.215,25.935 Z M68.215,24.795 C66.625,24.795 66.1,23.565 66.1,22.11 C66.1,20.73 66.565,19.41 68.215,19.41 C69.85,19.41 70.33,20.655 70.33,22.11 C70.33,23.46 69.895,24.795 68.215,24.795 Z M74.77,25.755 L74.77,21.75 C74.77,20.37 75.4,19.545 76.66,19.545 C76.885,19.545 77.155,19.575 77.335,19.62 L77.335,18.45 C77.125,18.39 76.9,18.36 76.63,18.36 C75.73,18.36 75.1,18.765 74.755,19.44 L74.755,18.45 L73.465,18.45 L73.465,25.755 L74.77,25.755 Z M79.99,25.755 L79.99,21.495 C79.99,20.145 80.635,19.41 81.775,19.41 C82.87,19.41 83.38,20.04 83.38,21.51 L83.38,25.755 L84.685,25.755 L84.685,21.495 C84.685,20.145 85.315,19.41 86.455,19.41 C87.55,19.41 88.075,20.04 88.075,21.51 L88.075,25.755 L89.38,25.755 L89.38,21.27 C89.38,19.29 88.555,18.27 86.89,18.27 C85.795,18.27 84.94,18.72 84.49,19.725 C84.16,18.75 83.395,18.27 82.225,18.27 C81.205,18.27 80.44,18.66 79.99,19.41 L79.99,18.45 L78.685,18.45 L78.685,25.755 L79.99,25.755 Z" id="DataPlatform" fill-rule="nonzero"></path>
            <g id="logo/cloudera/cloudera-white">
                <path d="M37.4238401,5.56583333 C37.4238401,7.08083333 36.5443298,7.995 35.3076236,7.995 C34.0709175,7.995 33.1914071,7.08083333 33.1914071,5.56583333 L33.1914071,0.218333333 L30.9513515,0.218333333 L30.9513515,5.48 C30.9513515,8.25083333 32.7103722,10 35.3076236,10 C37.9040326,10 39.6630533,8.25083333 39.6630533,5.48 L39.6630533,0.218333333 L37.4238401,0.218333333 L37.4238401,5.56583333 Z M79.2376501,6.055 L77.8922688,2.70416667 L76.5468875,6.055 L79.2376501,6.055 Z M83,9.78166667 L80.7346711,9.78166667 L79.9503568,7.83 L75.8341809,7.83 L75.050709,9.78166667 L72.7853801,9.78166667 L76.8670158,0.218333333 L78.8728723,0.218333333 L83,9.78166667 Z M69.7163606,3.5175 C69.7163606,3.095 69.5453447,2.7 69.2858723,2.47416667 C68.9927022,2.21916667 68.5714808,2.08666667 67.985983,2.08666667 L65.8453356,2.08666667 L65.8453356,4.95833333 L67.9927225,4.95833333 C68.5672686,4.95833333 68.9758534,4.83 69.2656537,4.58333333 C69.5386052,4.35083333 69.7163606,3.95166667 69.7163606,3.5175 L69.7163606,3.5175 Z M69.4956406,6.56416667 L72.2537986,9.78166667 L69.6464379,9.78166667 L67.078672,6.7625 L65.8453356,6.7625 L65.8453356,9.78166667 L63.6507719,9.78166667 L63.6507719,0.218333333 L68.1089796,0.218333333 C69.3515829,0.218333333 70.2639485,0.518333333 70.9185266,1.07166667 C71.5731048,1.625 71.9538889,2.475 71.9538889,3.48666667 C71.9538889,4.75333333 71.4096708,6.06916667 69.4956406,6.56416667 L69.4956406,6.56416667 Z M13.1876009,0.218333333 L10.9483877,0.218333333 L10.9483877,9.78166667 L17.7233133,9.78166667 L17.7233133,7.83583333 L13.1876009,7.83583333 L13.1876009,0.218333333 Z M5.17596906,7.98 C3.52225369,7.98 2.32345747,6.68916667 2.32345747,4.99916667 C2.32345747,3.30916667 3.52225369,2.02083333 5.17596906,2.02083333 C5.97207759,2.02083333 6.62918303,2.30083333 7.20372908,2.83916667 L8.64683373,1.41166667 C7.77490535,0.521666667 6.55841783,0 5.15153822,0 C2.24258295,0 0,2.19666667 0,5 C0,7.80416667 2.24258295,10 5.15153822,10 C6.62160105,10 7.90885377,9.4125 8.78583681,8.42583333 L7.35031414,7.00583333 C6.77071344,7.63916667 6.07906783,7.98 5.17596906,7.98 L5.17596906,7.98 Z M49.3098667,5 C49.3098667,3.27333333 48.0487297,2.13 46.1709246,2.13 L44.6941222,2.13 L44.6941222,7.87 L46.1709246,7.87 C48.0487297,7.87 49.3098667,6.72666667 49.3098667,5 L49.3098667,5 Z M51.6341666,5 C51.6341666,7.86 49.5019437,9.78166667 46.3293038,9.78166667 L42.454909,9.78166667 L42.454909,0.218333333 L46.2349502,0.218333333 C49.4084325,0.218333333 51.6341666,2.14 51.6341666,5 L51.6341666,5 Z M26.430803,5.015 C26.430803,3.27083333 25.2766562,2.00583333 23.6482141,2.00583333 C22.0214569,2.00583333 20.8664677,3.27083333 20.8664677,5.015 C20.8664677,6.74166667 22.0214569,7.995 23.6482141,7.995 C25.2766562,7.995 26.430803,6.74166667 26.430803,5.015 L26.430803,5.015 Z M28.7542604,5.01416667 C28.7542604,7.81 26.6144555,10 23.6482141,10 C20.6828152,10 18.5430103,7.81 18.5430103,5.01416667 C18.5430103,2.2025 20.6828152,0 23.6482141,0 C26.6144555,0 28.7542604,2.2025 28.7542604,5.01416667 L28.7542604,5.01416667 Z M52.6518376,9.78166667 L61.0274048,9.78166667 L61.0274048,7.805 L53.9770003,7.805 C53.6627691,8.55416667 53.2129046,9.215 52.6518376,9.78166667 L52.6518376,9.78166667 Z M59.837033,5.9475 L59.837033,3.99 L54.4352892,3.99 C54.482466,4.325 54.5144789,4.66666667 54.5144789,5.0225 C54.5144789,5.34 54.490048,5.64666667 54.453823,5.9475 L59.837033,5.9475 Z M52.5448474,0.218333333 L60.9835977,0.218333333 L60.9835977,2.195 L53.9399328,2.195 C53.6063254,1.44416667 53.1311876,0.784166667 52.5448474,0.218333333 L52.5448474,0.218333333 Z" id="cloudera"></path>
            </g>
        </g>
    </g>
</svg>