<?xml version="1.0" encoding="UTF-8"?>
<svg width="85px" height="40px" viewBox="0 0 85 40" version="1.1" xmlns="http://www.w3.org/2000/svg" xmlns:xlink="http://www.w3.org/1999/xlink">
    <title>wordmark-data catalog</title>
    <g id="Symbols" stroke="none" stroke-width="1" fill="none" fill-rule="evenodd">
        <g id="product-logos/wordmarks/data-catalog" fill="#FFFFFF">
            <path d="M81.2703281,25.3390374 C81.8195463,25.3390374 82.3013531,25.4488403 82.7157632,25.6684492 C83.1301733,25.8880581 83.4671884,26.2124756 83.7268188,26.6417112 L83.7268188,25.5187166 L85,25.5187166 L85,32.6759358 C85,33.7240694 84.7353807,34.540104 84.2061341,35.1240642 C83.6768875,35.7080243 82.8331014,36 81.6747504,36 C80.716115,36 79.9422283,35.7928719 79.353067,35.3786096 C78.7639058,34.9643473 78.4343798,34.3579363 78.3644793,33.5593583 L79.7425107,33.5593583 C79.7624823,34.0085584 79.9447201,34.35294 80.2892297,34.5925134 C80.6337392,34.8320868 81.090582,34.9518717 81.6597718,34.9518717 C82.388734,34.9518717 82.9154763,34.7647078 83.2400143,34.3903743 C83.5645523,34.0160409 83.7268188,33.5044596 83.7268188,32.855615 L83.7268188,31.657754 C83.4771742,32.0770074 83.1451519,32.3939383 82.7307418,32.6085561 C82.3163317,32.823174 81.829532,32.9304813 81.2703281,32.9304813 C80.5613374,32.9304813 79.9771778,32.7582905 79.5178317,32.4139037 C79.0584856,32.069517 78.7214704,31.6128371 78.506776,31.0438503 C78.2920817,30.4748635 78.1847361,29.8360107 78.1847361,29.1272727 C78.1847361,28.428517 78.2945781,27.7921597 78.5142653,27.2181818 C78.7339526,26.6442039 79.0734642,26.187524 79.5328103,25.8481283 C79.9921564,25.5087327 80.5713232,25.3390374 81.2703281,25.3390374 Z M39.4800285,22 C40.3088487,22 41.0427928,22.1597132 41.681883,22.4791444 C42.3209732,22.7985756 42.8252478,23.25276 43.1947218,23.8417112 C43.5641959,24.4306625 43.7639086,25.1244167 43.7938659,25.9229947 L42.3708987,25.9229947 C42.3509271,25.3540079 42.2161211,24.8648862 41.9664765,24.455615 C41.7168318,24.0463438 41.3748239,23.7368994 40.9404422,23.5272727 C40.5060606,23.317646 39.9942968,23.2128342 39.4051355,23.2128342 C38.2367987,23.2128342 37.4154803,23.6046307 36.9411555,24.3882353 C36.4668307,25.1718399 36.2296719,26.2174623 36.2296719,27.5251337 C36.2296719,28.8427873 36.4643343,29.8909052 36.9336662,30.6695187 C37.4029981,31.4481322 38.2318058,31.8374332 39.4201141,31.8374332 C40.3388063,31.8374332 41.0552756,31.5978634 41.5695435,31.1187166 C42.0838114,30.6395698 42.3659056,29.9607887 42.4158345,29.0823529 L43.8238231,29.0823529 C43.8138373,29.9008954 43.6241103,30.6096227 43.2546362,31.2085561 C42.8851622,31.8074896 42.3758948,32.2641696 41.7268188,32.5786096 C41.0777428,32.8930497 40.3288202,33.0502674 39.4800285,33.0502674 C38.3616207,33.0502674 37.4529279,32.803211 36.753923,32.3090909 C36.054918,31.8149708 35.5481471,31.1561539 35.2335949,30.3326203 C34.9190426,29.5090868 34.7617689,28.5732673 34.7617689,27.5251337 C34.7617689,26.4869823 34.9190426,25.5561539 35.2335949,24.7326203 C35.5481471,23.9090868 36.054918,23.2477743 36.753923,22.7486631 C37.4529279,22.2495519 38.3616207,22 39.4800285,22 Z M27.1376605,25.3390374 C27.9065659,25.3390374 28.5156896,25.4638134 28.9650499,25.713369 C29.4144102,25.9629246 29.7339505,26.3172883 29.9236805,26.7764706 C30.1134104,27.2356529 30.2082739,27.8046312 30.2082739,28.4834225 L30.2082739,32.8106952 L28.9051355,32.8106952 L28.9051355,31.8374332 C28.6654767,32.2067755 28.3359507,32.4912646 27.9165478,32.6909091 C27.4971448,32.8905536 26.9928703,32.9903743 26.403709,32.9903743 C25.5549173,32.9903743 24.9083474,32.7907328 24.46398,32.3914439 C24.0196126,31.9921549 23.7974322,31.4581139 23.7974322,30.7893048 C23.7974322,29.9807446 24.0970013,29.4017843 24.6961484,29.0524064 C25.2952954,28.7030286 26.1740313,28.5283422 27.3323823,28.5283422 L28.9051355,28.5283422 L28.9051355,28.2887701 C28.9051355,27.8595344 28.8527109,27.5051707 28.7478602,27.2256684 C28.6430095,26.9461662 28.463268,26.7315516 28.2086305,26.5818182 C27.953993,26.4320848 27.6019994,26.3572193 27.1526391,26.3572193 C26.553492,26.3572193 26.1116277,26.4819952 25.8270328,26.7315508 C25.5424379,26.9811064 25.4001427,27.3354701 25.4001427,27.7946524 L24.0670471,27.7946524 C24.0670471,27.0260211 24.32917,26.4246011 24.8534237,25.9903743 C25.3776774,25.5561476 26.139082,25.3390374 27.1376605,25.3390374 Z M61.6333809,25.3390374 C62.4022863,25.3390374 63.01141,25.4638134 63.4607703,25.713369 C63.9101306,25.9629246 64.2296709,26.3172883 64.4194009,26.7764706 C64.6091308,27.2356529 64.7039943,27.8046312 64.7039943,28.4834225 L64.7039943,32.8106952 L63.4008559,32.8106952 L63.4008559,31.8374332 C63.1611971,32.2067755 62.8316711,32.4912646 62.4122682,32.6909091 C61.9928652,32.8905536 61.4885907,32.9903743 60.8994294,32.9903743 C60.0506377,32.9903743 59.4040678,32.7907328 58.9597004,32.3914439 C58.515333,31.9921549 58.2931526,31.4581139 58.2931526,30.7893048 C58.2931526,29.9807446 58.5927217,29.4017843 59.1918688,29.0524064 C59.7910158,28.7030286 60.6697517,28.5283422 61.8281027,28.5283422 L63.4008559,28.5283422 L63.4008559,28.2887701 C63.4008559,27.8595344 63.3484313,27.5051707 63.2435806,27.2256684 C63.1387299,26.9461662 62.9589884,26.7315516 62.7043509,26.5818182 C62.4497134,26.4320848 62.0977198,26.3572193 61.6483595,26.3572193 C61.0492124,26.3572193 60.6073481,26.4819952 60.3227532,26.7315508 C60.0381583,26.9811064 59.8958631,27.3354701 59.8958631,27.7946524 L58.5627675,27.7946524 C58.5627675,27.0260211 58.8248904,26.4246011 59.3491441,25.9903743 C59.8733978,25.5561476 60.6348024,25.3390374 61.6333809,25.3390374 Z M73.4365193,25.3390374 C74.235382,25.3390374 74.8944339,25.5162193 75.4136947,25.8705882 C75.9329555,26.2249572 76.3149061,26.6916192 76.5595578,27.2705882 C76.8042095,27.8495573 76.9265335,28.483419 76.9265335,29.1721925 C76.9265335,29.8709482 76.8042095,30.5073055 76.5595578,31.0812834 C76.3149061,31.6552613 75.9304591,32.1169323 75.4062054,32.4663102 C74.8819517,32.815688 74.2253962,32.9903743 73.4365193,32.9903743 C72.6576281,32.9903743 72.0060654,32.815688 71.4818117,32.4663102 C70.957558,32.1169323 70.5731111,31.6527658 70.3284593,31.0737968 C70.0838076,30.4948278 69.9614836,29.860966 69.9614836,29.1721925 C69.9614836,28.4634546 70.086304,27.8196107 70.3359486,27.2406417 C70.5855933,26.6616727 70.9700402,26.2000017 71.489301,25.855615 C72.0085618,25.5112282 72.6576281,25.3390374 73.4365193,25.3390374 Z M13.9415121,25.3390374 C14.7104175,25.3390374 15.3195413,25.4638134 15.7689016,25.713369 C16.2182619,25.9629246 16.5378022,26.3172883 16.7275321,26.7764706 C16.917262,27.2356529 17.0121255,27.8046312 17.0121255,28.4834225 L17.0121255,32.8106952 L15.7089872,32.8106952 L15.7089872,31.8374332 C15.4693283,32.2067755 15.1398024,32.4912646 14.7203994,32.6909091 C14.3009965,32.8905536 13.7967219,32.9903743 13.2075606,32.9903743 C12.3587689,32.9903743 11.7121991,32.7907328 11.2678317,32.3914439 C10.8234643,31.9921549 10.6012839,31.4581139 10.6012839,30.7893048 C10.6012839,29.9807446 10.9008529,29.4017843 11.5,29.0524064 C12.0991471,28.7030286 12.9778829,28.5283422 14.136234,28.5283422 L15.7089872,28.5283422 L15.7089872,28.2887701 C15.7089872,27.8595344 15.6565626,27.5051707 15.5517118,27.2256684 C15.4468611,26.9461662 15.2671197,26.7315516 15.0124822,26.5818182 C14.7578447,26.4320848 14.405851,26.3572193 13.9564907,26.3572193 C13.3573437,26.3572193 12.9154793,26.4819952 12.6308845,26.7315508 C12.3462896,26.9811064 12.2039943,27.3354701 12.2039943,27.7946524 L10.8708987,27.7946524 C10.8708987,27.0260211 11.1330216,26.4246011 11.6572753,25.9903743 C12.181529,25.5561476 12.9429337,25.3390374 13.9415121,25.3390374 Z M48.4372325,25.3390374 C49.2061379,25.3390374 49.8152617,25.4638134 50.264622,25.713369 C50.7139823,25.9629246 51.0335226,26.3172883 51.2232525,26.7764706 C51.4129824,27.2356529 51.5078459,27.8046312 51.5078459,28.4834225 L51.5078459,32.8106952 L50.2047076,32.8106952 L50.2047076,31.8374332 C49.9650487,32.2067755 49.6355228,32.4912646 49.2161198,32.6909091 C48.7967169,32.8905536 48.2924423,32.9903743 47.703281,32.9903743 C46.8544893,32.9903743 46.2079195,32.7907328 45.7635521,32.3914439 C45.3191847,31.9921549 45.0970043,31.4581139 45.0970043,30.7893048 C45.0970043,29.9807446 45.3965733,29.4017843 45.9957204,29.0524064 C46.5948675,28.7030286 47.4736033,28.5283422 48.6319544,28.5283422 L50.2047076,28.5283422 L50.2047076,28.2887701 C50.2047076,27.8595344 50.152283,27.5051707 50.0474322,27.2256684 C49.9425815,26.9461662 49.7628401,26.7315516 49.5082026,26.5818182 C49.2535651,26.4320848 48.9015714,26.3572193 48.4522111,26.3572193 C47.8530641,26.3572193 47.4111997,26.4819952 47.1266049,26.7315508 C46.84201,26.9811064 46.6997147,27.3354701 46.6997147,27.7946524 L45.3666191,27.7946524 C45.3666191,27.0260211 45.628742,26.4246011 46.1529957,25.9903743 C46.6772494,25.5561476 47.4386541,25.3390374 48.4372325,25.3390374 Z M55.0877318,23.7518717 L55.0877318,25.5187166 L57.1697575,25.5187166 L57.1697575,26.5967914 L55.0877318,26.5967914 L55.0877318,30.4898396 C55.0877318,30.9490219 55.1850918,31.2859169 55.3798146,31.5005348 C55.5745374,31.7151526 55.87161,31.8224599 56.2710414,31.8224599 C56.5506433,31.8224599 56.8402267,31.7825316 57.1398003,31.7026738 L57.1398003,32.7807487 C56.7203973,32.8805709 56.3109863,32.9304813 55.9115549,32.9304813 C55.1726069,32.9304813 54.635879,32.7532995 54.3013552,32.3989305 C53.9668314,32.0445615 53.799572,31.4680967 53.799572,30.6695187 L53.799572,26.5967914 L52.6611983,26.5967914 L52.6611983,25.5187166 L53.799572,25.5187166 L53.799572,23.7518717 L55.0877318,23.7518717 Z M20.5920114,23.7518717 L20.5920114,25.5187166 L22.6740371,25.5187166 L22.6740371,26.5967914 L20.5920114,26.5967914 L20.5920114,30.4898396 C20.5920114,30.9490219 20.6893714,31.2859169 20.8840942,31.5005348 C21.078817,31.7151526 21.3758896,31.8224599 21.775321,31.8224599 C22.0549229,31.8224599 22.3445063,31.7825316 22.6440799,31.7026738 L22.6440799,32.7807487 C22.2246769,32.8805709 21.8152659,32.9304813 21.4158345,32.9304813 C20.6768865,32.9304813 20.1401586,32.7532995 19.8056348,32.3989305 C19.471111,32.0445615 19.3038516,31.4680967 19.3038516,30.6695187 L19.3038516,26.5967914 L18.1654779,26.5967914 L18.1654779,25.5187166 L19.3038516,25.5187166 L19.3038516,23.7518717 L20.5920114,23.7518717 Z M68.2089872,22.2395722 L68.2089872,32.8106952 L66.9058488,32.8106952 L66.9058488,22.2395722 L68.2089872,22.2395722 Z M4.43009986,22.2395722 C6.13766902,22.2395722 7.36839851,22.7162163 8.12232525,23.6695187 C8.87625199,24.6228212 9.2532097,25.9080133 9.2532097,27.5251337 C9.2532097,29.1522363 8.87625199,30.439924 8.12232525,31.3882353 C7.36839851,32.3365466 6.13766902,32.8106952 4.43009986,32.8106952 L1,32.8106952 L1,22.2395722 L4.43009986,22.2395722 Z M15.7089872,29.4566845 L14.2410842,29.4566845 C13.4821645,29.4566845 12.9179762,29.5465232 12.5485021,29.7262032 C12.1790281,29.9058833 11.9942939,30.2203186 11.9942939,30.6695187 C11.9942939,31.0688077 12.1290999,31.3807475 12.3987161,31.6053476 C12.6683323,31.8299476 13.0627649,31.942246 13.5820257,31.942246 C14.3609169,31.942246 14.9101268,31.7251359 15.2296719,31.2909091 C15.549217,30.8566823 15.7089872,30.2552623 15.7089872,29.486631 L15.7089872,29.4566845 Z M63.4008559,29.4566845 L61.9329529,29.4566845 C61.1740333,29.4566845 60.6098449,29.5465232 60.2403709,29.7262032 C59.8708969,29.9058833 59.6861626,30.2203186 59.6861626,30.6695187 C59.6861626,31.0688077 59.8209687,31.3807475 60.0905849,31.6053476 C60.3602011,31.8299476 60.7546336,31.942246 61.2738944,31.942246 C62.0527856,31.942246 62.6019955,31.7251359 62.9215407,31.2909091 C63.2410858,30.8566823 63.4008559,30.2552623 63.4008559,29.486631 L63.4008559,29.4566845 Z M50.2047076,29.4566845 L48.7368046,29.4566845 C47.9778849,29.4566845 47.4136966,29.5465232 47.0442225,29.7262032 C46.6747485,29.9058833 46.4900143,30.2203186 46.4900143,30.6695187 C46.4900143,31.0688077 46.6248203,31.3807475 46.8944365,31.6053476 C47.1640527,31.8299476 47.5584853,31.942246 48.0777461,31.942246 C48.8566373,31.942246 49.4058472,31.7251359 49.7253923,31.2909091 C50.0449374,30.8566823 50.2047076,30.2552623 50.2047076,29.486631 L50.2047076,29.4566845 Z M28.9051355,29.4566845 L27.4372325,29.4566845 C26.6783129,29.4566845 26.1141245,29.5465232 25.7446505,29.7262032 C25.3751765,29.9058833 25.1904422,30.2203186 25.1904422,30.6695187 C25.1904422,31.0688077 25.3252483,31.3807475 25.5948645,31.6053476 C25.8644807,31.8299476 26.2589132,31.942246 26.778174,31.942246 C27.5570652,31.942246 28.1062751,31.7251359 28.4258203,31.2909091 C28.7453654,30.8566823 28.9051355,30.2552623 28.9051355,29.486631 L28.9051355,29.4566845 Z M73.4365193,26.4770053 C72.6775996,26.4770053 72.1358789,26.7290527 71.8113409,27.2331551 C71.4868029,27.7372574 71.3245364,28.3835968 71.3245364,29.1721925 C71.3245364,29.9707665 71.4917958,30.6171098 71.8263195,31.1112299 C72.1608433,31.6053501 72.6975712,31.8524064 73.4365193,31.8524064 C74.2054247,31.8524064 74.7496418,31.600359 75.0691869,31.0962567 C75.388732,30.5921543 75.5485021,29.950806 75.5485021,29.1721925 C75.5485021,28.3636323 75.3862356,27.7123019 75.0616976,27.2181818 C74.7371596,26.7240617 74.1954389,26.4770053 73.4365193,26.4770053 Z M81.6597718,26.4770053 C80.9208237,26.4770053 80.3840958,26.7265572 80.049572,27.2256684 C79.7150483,27.7247797 79.5477889,28.3636325 79.5477889,29.142246 C79.5477889,29.9308417 79.7150483,30.5771811 80.049572,31.0812834 C80.3840958,31.5853858 80.9208237,31.8374332 81.6597718,31.8374332 C82.3088478,31.8374332 82.8156187,31.6228185 83.1800999,31.1935829 C83.544581,30.7643472 83.7268188,30.1554407 83.7268188,29.3668449 L83.7268188,28.9326203 C83.7268188,28.1540068 83.544581,27.5500913 83.1800999,27.1208556 C82.8156187,26.69162 82.3088478,26.4770053 81.6597718,26.4770053 Z M4.25035663,23.4074866 L2.39300999,23.4074866 L2.39300999,31.6427807 L4.25035663,31.6427807 C5.15906303,31.6427807 5.87303592,31.4680944 6.39229672,31.1187166 C6.91155752,30.7693387 7.27353678,30.2951902 7.47824536,29.6962567 C7.68295395,29.0973232 7.7853067,28.3736228 7.7853067,27.5251337 C7.7853067,26.6666624 7.68045754,25.9379709 7.47075606,25.3390374 C7.26105459,24.740104 6.89657892,24.2684509 6.37731812,23.9240642 C5.85805732,23.5796774 5.14907725,23.4074866 4.25035663,23.4074866 Z M23.6482141,7 C26.6144555,7 28.7542604,9.2025 28.7542604,12.0141667 C28.7542604,14.81 26.6144555,17 23.6482141,17 C20.6828152,17 18.5430103,14.81 18.5430103,12.0141667 C18.5430103,9.2025 20.6828152,7 23.6482141,7 Z M5.15153822,7 C6.55841783,7 7.77490535,7.52166667 8.64683373,8.41166667 L8.64683373,8.41166667 L7.20372908,9.83916667 C6.62918303,9.30083333 5.97207759,9.02083333 5.17596906,9.02083333 C3.52225369,9.02083333 2.32345747,10.3091667 2.32345747,11.9991667 C2.32345747,13.6891667 3.52225369,14.98 5.17596906,14.98 C6.07906783,14.98 6.77071344,14.6391667 7.35031414,14.0058333 L7.35031414,14.0058333 L8.78583681,15.4258333 C7.90885377,16.4125 6.62160105,17 5.15153822,17 C2.24258295,17 0,14.8041667 0,12 C0,9.19666667 2.24258295,7 5.15153822,7 Z M33.1914071,7.21833333 L33.1914071,12.5658333 C33.1914071,14.0808333 34.0709175,14.995 35.3076236,14.995 C36.5443298,14.995 37.4238401,14.0808333 37.4238401,12.5658333 L37.4238401,12.5658333 L37.4238401,7.21833333 L39.6630533,7.21833333 L39.6630533,12.48 C39.6630533,15.2508333 37.9040326,17 35.3076236,17 C32.7103722,17 30.9513515,15.2508333 30.9513515,12.48 L30.9513515,12.48 L30.9513515,7.21833333 L33.1914071,7.21833333 Z M61.0274048,14.805 L61.0274048,16.7816667 L52.6518376,16.7816667 C53.2129046,16.215 53.6627691,15.5541667 53.9770003,14.805 L53.9770003,14.805 L61.0274048,14.805 Z M46.2349502,7.21833333 C49.4084325,7.21833333 51.6341666,9.14 51.6341666,12 C51.6341666,14.86 49.5019437,16.7816667 46.3293038,16.7816667 L42.454909,16.7816667 L42.454909,7.21833333 L46.2349502,7.21833333 Z M13.1876009,7.21833333 L13.1876009,14.8358333 L17.7233133,14.8358333 L17.7233133,16.7816667 L10.9483877,16.7816667 L10.9483877,7.21833333 L13.1876009,7.21833333 Z M68.1089796,7.21833333 C69.3515829,7.21833333 70.2639485,7.51833333 70.9185266,8.07166667 C71.5731048,8.625 71.9538889,9.475 71.9538889,10.4866667 C71.9538889,11.7533333 71.4096708,13.0691667 69.4956406,13.5641667 L72.2537986,16.7816667 L69.6464379,16.7816667 L67.078672,13.7625 L65.8453356,13.7625 L65.8453356,16.7816667 L63.6507719,16.7816667 L63.6507719,7.21833333 L68.1089796,7.21833333 Z M78.8728723,7.21833333 L83,16.7816667 L80.7346711,16.7816667 L79.9503568,14.83 L75.8341809,14.83 L75.050709,16.7816667 L72.7853801,16.7816667 L76.8670158,7.21833333 L78.8728723,7.21833333 Z M23.6482141,9.00583333 C22.0214569,9.00583333 20.8664677,10.2708333 20.8664677,12.015 C20.8664677,13.7416667 22.0214569,14.995 23.6482141,14.995 C25.2766562,14.995 26.430803,13.7416667 26.430803,12.015 C26.430803,10.2708333 25.2766562,9.00583333 23.6482141,9.00583333 Z M46.1709246,9.13 L44.6941222,9.13 L44.6941222,14.87 L46.1709246,14.87 C48.0487297,14.87 49.3098667,13.7266667 49.3098667,12 C49.3098667,10.2733333 48.0487297,9.13 46.1709246,9.13 Z M77.8922688,9.70416667 L76.5468875,13.055 L79.2376501,13.055 L77.8922688,9.70416667 Z M59.837033,10.99 L59.837033,12.9475 L54.453823,12.9475 C54.490048,12.6466667 54.5144789,12.34 54.5144789,12.0225 C54.5144789,11.6666667 54.482466,11.325 54.4352892,10.99 L54.4352892,10.99 L59.837033,10.99 Z M67.985983,9.08666667 L65.8453356,9.08666667 L65.8453356,11.9583333 L67.9927225,11.9583333 C68.5672686,11.9583333 68.9758534,11.83 69.2656537,11.5833333 C69.5386052,11.3508333 69.7163606,10.9516667 69.7163606,10.5175 C69.7163606,10.095 69.5453447,9.7 69.2858723,9.47416667 C68.9927022,9.21916667 68.5714808,9.08666667 67.985983,9.08666667 Z M60.9835977,7.21833333 L60.9835977,9.195 L53.9399328,9.195 C53.6063254,8.44416667 53.1311876,7.78416667 52.5448474,7.21833333 L60.9835977,7.21833333 Z" id="cloudera-data-catalog"></path>
        </g>
    </g>
</svg>