<?xml version="1.0" encoding="UTF-8"?>
<svg width="118px" height="40px" viewBox="0 0 118 40" version="1.1" xmlns="http://www.w3.org/2000/svg" xmlns:xlink="http://www.w3.org/1999/xlink">
    <title>wordmark-machine learning</title>
    <g id="Symbols" stroke="none" stroke-width="1" fill="none" fill-rule="evenodd">
        <g id="product-logos/wordmarks/machine-learning" fill="#FFFFFF" fill-rule="nonzero">
            <path d="M112.748507,25.1281918 C113.300652,25.1281918 113.785026,25.2390123 114.201644,25.4606566 C114.618263,25.6823009 114.957074,26.0097251 115.218087,26.442939 L115.218087,25.3095362 L116.498053,25.3095362 L116.498053,32.5330902 C116.498053,33.5909381 116.232023,34.4145359 115.699957,35.0039083 C115.16789,35.5932807 114.319608,35.8879625 113.155084,35.8879625 C112.191341,35.8879625 111.413331,35.6789147 110.82103,35.2608129 C110.228729,34.8427111 109.897447,34.2306797 109.827174,33.4247004 L111.212549,33.4247004 C111.232627,33.8780638 111.415836,34.2256371 111.762181,34.467431 C112.108526,34.7092248 112.567803,34.8301199 113.140026,34.8301199 C113.872873,34.8301199 114.402422,34.6412213 114.728689,34.2634184 C115.054956,33.8856156 115.218087,33.3692928 115.218087,32.7144346 L115.218087,31.5054716 C114.967113,31.9286108 114.633321,32.248479 114.216703,32.465086 C113.800084,32.6816929 113.310691,32.7899948 112.748507,32.7899948 C112.035739,32.7899948 111.448466,32.6162081 110.986672,32.2686295 C110.524879,31.9210509 110.186068,31.4601384 109.970229,30.8858781 C109.754391,30.3116178 109.646473,29.6668439 109.646473,28.9515373 C109.646473,28.2463053 109.756901,27.6040501 109.977759,27.0247525 C110.198616,26.4454548 110.539937,25.9845423 111.001731,25.642001 C111.463525,25.2994598 112.045778,25.1281918 112.748507,25.1281918 Z M16.4800519,25.1281918 C17.2530545,25.1281918 17.865424,25.2541242 18.3171787,25.5059927 C18.7689335,25.7578613 19.0901765,26.1155092 19.2809174,26.5789474 C19.4716582,27.0423855 19.5670273,27.6166372 19.5670273,28.3017196 L19.5670273,32.6690985 L18.256945,32.6690985 L18.256945,31.6868161 C18.0160092,32.0595815 17.6847273,32.3467073 17.2630896,32.5482022 C16.8414518,32.749697 16.3344902,32.8504429 15.7421895,32.8504429 C14.888875,32.8504429 14.2388599,32.6489511 13.7921246,32.2459614 C13.3453894,31.8429718 13.1220251,31.3039811 13.1220251,30.6289734 C13.1220251,29.8129193 13.4231904,29.228593 14.0255301,28.8759771 C14.6278697,28.5233611 15.511288,28.3470558 16.6758113,28.3470558 L18.256945,28.3470558 L18.256945,28.1052632 C18.256945,27.6720492 18.2042411,27.3144013 18.0988317,27.0323085 C17.9934222,26.7502157 17.812723,26.533612 17.5567287,26.3824909 C17.3007343,26.2313697 16.9468651,26.1558103 16.4951103,26.1558103 C15.8927707,26.1558103 15.4485518,26.2817427 15.1624405,26.5336113 C14.8763292,26.7854798 14.7332756,27.1431278 14.7332756,27.6065659 L13.3930766,27.6065659 C13.3930766,26.8308108 13.6565962,26.2238167 14.1836434,25.7855654 C14.7106906,25.3473141 15.4761525,25.1281918 16.4800519,25.1281918 Z M79.1983557,25.1281918 C79.9713583,25.1281918 80.5837277,25.2541242 81.0354825,25.5059927 C81.4872372,25.7578613 81.8084802,26.1155092 81.9992211,26.5789474 C82.189962,27.0423855 82.285331,27.6166372 82.285331,28.3017196 L82.285331,32.6690985 L80.9752488,32.6690985 L80.9752488,31.6868161 C80.7343129,32.0595815 80.4030311,32.3467073 79.9813933,32.5482022 C79.5597556,32.749697 79.052794,32.8504429 78.4604933,32.8504429 C77.6071788,32.8504429 76.9571636,32.6489511 76.5104284,32.2459614 C76.0636931,31.8429718 75.8403289,31.3039811 75.8403289,30.6289734 C75.8403289,29.8129193 76.1414942,29.228593 76.7438338,28.8759771 C77.3461735,28.5233611 78.2295918,28.3470558 79.3941151,28.3470558 L80.9752488,28.3470558 L80.9752488,28.1052632 C80.9752488,27.6720492 80.9225449,27.3144013 80.8171354,27.0323085 C80.711726,26.7502157 80.5310268,26.533612 80.2750325,26.3824909 C80.0190381,26.2313697 79.6651689,26.1558103 79.2134141,26.1558103 C78.6110744,26.1558103 78.1668556,26.2817427 77.8807443,26.5336113 C77.5946329,26.7854798 77.4515794,27.1431278 77.4515794,27.6065659 L76.1113804,27.6065659 C76.1113804,26.8308108 76.3749,26.2238167 76.9019472,25.7855654 C77.4289944,25.3473141 78.1944563,25.1281918 79.1983557,25.1281918 Z M53.162354,25.1281918 C53.9152785,25.1281918 54.5552548,25.2893852 55.082302,25.611777 C55.6093492,25.9341687 56.0033739,26.382488 56.2643877,26.9567483 C56.4049336,27.2791401 56.5003026,27.6166388 56.5504976,27.9692548 C56.6006926,28.3218708 56.6308091,28.7500409 56.6408481,29.253778 L50.9788836,29.253778 C51.0090006,30.0396079 51.1972289,30.6541579 51.5435742,31.0974466 C51.8899195,31.5407352 52.4495851,31.7623762 53.2225876,31.7623762 C53.7747323,31.7623762 54.2189512,31.6414811 54.5552575,31.3996873 C54.8915638,31.1578935 55.1099086,30.8153574 55.2102986,30.3720688 L56.565556,30.3720688 C56.4852441,30.8959554 56.2919963,31.341756 55.985807,31.7094841 C55.6796177,32.0772122 55.2906125,32.3567821 54.8187797,32.5482022 C54.346947,32.7396223 53.8199077,32.8353309 53.237646,32.8353309 C52.4244875,32.8353309 51.7493753,32.6665815 51.2122891,32.3290776 C50.6752029,31.9915738 50.2786685,31.5331799 50.0226742,30.9538822 C49.7666798,30.3745846 49.6386846,29.7172175 49.6386846,28.9817613 C49.6386846,28.2563799 49.7666798,27.6015315 50.0226742,27.0171965 C50.2786685,26.4328614 50.6701834,25.9719489 51.1972306,25.634445 C51.7242778,25.2969412 52.3793124,25.1281918 53.162354,25.1281918 Z M24.7621809,25.1281918 C25.3845985,25.1281918 25.9342252,25.2415309 26.4110775,25.4682126 C26.8879297,25.6948943 27.2618766,26.0248372 27.5329295,26.4580511 C27.8039823,26.891265 27.9495456,27.4050691 27.9696235,27.9994789 L26.5541324,27.9994789 C26.5240154,27.4554428 26.3508454,27.03231 26.034617,26.7300677 C25.7183887,26.4278255 25.2942476,26.2767066 24.7621809,26.2767066 C24.0293343,26.2767066 23.4972756,26.53109 23.1659887,27.0398645 C22.8347019,27.548639 22.669061,28.1959315 22.669061,28.9817613 C22.669061,29.7978154 22.8347019,30.4551825 23.1659887,30.9538822 C23.4972756,31.452582 24.0293343,31.7019281 24.7621809,31.7019281 C25.1235847,31.7019281 25.4372985,31.6288873 25.7033319,31.4828035 C25.9693652,31.3367198 26.1726518,31.1377466 26.3131977,30.8858781 C26.4537437,30.6340095 26.529035,30.3468837 26.539074,30.0244919 L27.9696235,30.0244919 C27.9495456,30.608827 27.8014726,31.1125565 27.5254003,31.5356957 C27.2493279,31.9588348 26.8728713,32.2812218 26.396019,32.5028661 C25.9191668,32.7245104 25.3745595,32.8353309 24.7621809,32.8353309 C23.9691003,32.8353309 23.3140658,32.6640629 22.7970576,32.3215216 C22.2800493,31.9789804 21.8985733,31.5180679 21.6526179,30.9387702 C21.4066626,30.3594725 21.2836867,29.7071428 21.2836867,28.9817613 C21.2836867,28.2563799 21.4091723,27.6040501 21.6601471,27.0247525 C21.911122,26.4454548 22.2976175,25.9845423 22.8196452,25.642001 C23.3416729,25.2994598 23.9891783,25.1281918 24.7621809,25.1281918 Z M71.142103,25.1281918 C71.8950276,25.1281918 72.5350039,25.2893852 73.0620511,25.611777 C73.5890983,25.9341687 73.9831229,26.382488 74.2441367,26.9567483 C74.3846827,27.2791401 74.4800517,27.6166388 74.5302466,27.9692548 C74.5804416,28.3218708 74.6105581,28.7500409 74.6205971,29.253778 L68.9586326,29.253778 C68.9887496,30.0396079 69.1769779,30.6541579 69.5233232,31.0974466 C69.8696685,31.5407352 70.4293341,31.7623762 71.2023367,31.7623762 C71.7544813,31.7623762 72.1987002,31.6414811 72.5350065,31.3996873 C72.8713128,31.1578935 73.0896577,30.8153574 73.1900476,30.3720688 L74.5453051,30.3720688 C74.4649931,30.8959554 74.2717454,31.341756 73.965556,31.7094841 C73.6593667,32.0772122 73.2703615,32.3567821 72.7985288,32.5482022 C72.326696,32.7396223 71.7996567,32.8353309 71.2173951,32.8353309 C70.4042365,32.8353309 69.7291243,32.6665815 69.1920381,32.3290776 C68.6549519,31.9915738 68.2584175,31.5331799 68.0024232,30.9538822 C67.7464288,30.3745846 67.6184336,29.7172175 67.6184336,28.9817613 C67.6184336,28.2563799 67.7464288,27.6015315 68.0024232,27.0171965 C68.2584175,26.4328614 68.6499325,25.9719489 69.1769797,25.634445 C69.7040269,25.2969412 70.3590614,25.1281918 71.142103,25.1281918 Z M62.7545651,22 L62.7545651,31.4299114 L66.8504543,31.4299114 L66.8504543,32.6690985 L61.3541324,32.6690985 L61.3541324,22 L62.7545651,22 Z M2.71665945,22 L6.0897447,30.3720688 L9.47788836,22 L11.164431,22 L11.164431,32.6690985 L9.83929035,32.6690985 L9.83929035,24.1761334 L6.43608827,32.6690985 L5.74340113,32.6690985 L2.32514063,24.1761334 L2.32514063,32.6690985 L1,32.6690985 L1,22 L2.71665945,22 Z M31.0415405,22 L31.0415405,26.3371548 C31.2824763,25.9341651 31.5986999,25.6319274 31.9902207,25.4304325 C32.3817415,25.2289377 32.8385089,25.1281918 33.3605366,25.1281918 C34.2138511,25.1281918 34.8588468,25.3800565 35.2955431,25.8837936 C35.7322393,26.3875307 35.9505842,27.1330505 35.9505842,28.1203752 L35.9505842,32.6690985 L34.6555604,32.6690985 L34.6555604,28.3772798 C34.6555604,27.6518984 34.5150166,27.1204637 34.2339247,26.7829599 C33.9528329,26.445456 33.5211626,26.2767066 32.9389009,26.2767066 C32.3265223,26.2767066 31.8572063,26.453012 31.530939,26.8056279 C31.2046717,27.1582439 31.0415405,27.6770853 31.0415405,28.3621678 L31.0415405,32.6690985 L29.7314582,32.6690985 L29.7314582,22 L31.0415405,22 Z M105.354825,25.1281918 C106.208139,25.1281918 106.853135,25.3800565 107.289831,25.8837936 C107.726527,26.3875307 107.944872,27.1330505 107.944872,28.1203752 L107.944872,32.6690985 L106.649849,32.6690985 L106.649849,28.3772798 C106.649849,27.6518984 106.509305,27.1204637 106.228213,26.7829599 C105.947121,26.445456 105.515451,26.2767066 104.933189,26.2767066 C104.32081,26.2767066 103.851494,26.453012 103.525227,26.8056279 C103.19896,27.1582439 103.035829,27.6770853 103.035829,28.3621678 L103.035829,32.6690985 L101.725746,32.6690985 L101.725746,25.3095362 L103.035829,25.3095362 L103.035829,26.3371548 C103.276765,25.9341651 103.592988,25.6319274 103.984509,25.4304325 C104.37603,25.2289377 104.832797,25.1281918 105.354825,25.1281918 Z M39.4591952,25.3095362 L39.4591952,32.6690985 L38.1491129,32.6690985 L38.1491129,25.3095362 L39.4591952,25.3095362 Z M45.3470359,25.1281918 C46.2003504,25.1281918 46.8453462,25.3800565 47.2820424,25.8837936 C47.7187387,26.3875307 47.9370835,27.1330505 47.9370835,28.1203752 L47.9370835,32.6690985 L46.6420597,32.6690985 L46.6420597,28.3772798 C46.6420597,27.6518984 46.5015159,27.1204637 46.2204241,26.7829599 C45.9393322,26.445456 45.5076619,26.2767066 44.9254003,26.2767066 C44.3130216,26.2767066 43.8437057,26.453012 43.5174383,26.8056279 C43.191171,27.1582439 43.0280398,27.6770853 43.0280398,28.3621678 L43.0280398,32.6690985 L41.7179576,32.6690985 L41.7179576,25.3095362 L43.0280398,25.3095362 L43.0280398,26.3371548 C43.2689757,25.9341651 43.5851993,25.6319274 43.97672,25.4304325 C44.3682408,25.2289377 44.8250082,25.1281918 45.3470359,25.1281918 Z M99.466984,25.3095362 L99.466984,32.6690985 L98.1569018,32.6690985 L98.1569018,25.3095362 L99.466984,25.3095362 Z M93.3683254,25.1281918 C94.2216399,25.1281918 94.8666356,25.3800565 95.3033319,25.8837936 C95.7400281,26.3875307 95.958373,27.1330505 95.958373,28.1203752 L95.958373,32.6690985 L94.6633492,32.6690985 L94.6633492,28.3772798 C94.6633492,27.6518984 94.5228054,27.1204637 94.2417135,26.7829599 C93.9606217,26.445456 93.5289514,26.2767066 92.9466897,26.2767066 C92.3343111,26.2767066 91.8649951,26.453012 91.5387278,26.8056279 C91.2124605,27.1582439 91.0493293,27.6770853 91.0493293,28.3621678 L91.0493293,32.6690985 L89.7392471,32.6690985 L89.7392471,25.3095362 L91.0493293,25.3095362 L91.0493293,26.3371548 C91.2902652,25.9341651 91.6064887,25.6319274 91.9980095,25.4304325 C92.3895303,25.2289377 92.8462977,25.1281918 93.3683254,25.1281918 Z M87.6762441,25.218864 C87.9372579,25.218864 88.1731707,25.2490878 88.3839896,25.3095362 L88.3839896,26.4882751 C88.1832097,26.4379014 87.9573357,26.412715 87.7063609,26.412715 C87.0839432,26.412715 86.6121176,26.6066508 86.2908698,26.9945284 C85.9696219,27.382406 85.8090004,27.9289525 85.8090004,28.6341845 L85.8090004,32.6690985 L84.4989182,32.6690985 L84.4989182,25.3095362 L85.793942,25.3095362 L85.793942,26.3069307 C85.9746439,25.9543147 86.2231053,25.6848194 86.5393336,25.4984367 C86.8555619,25.312054 87.2345283,25.218864 87.6762441,25.218864 Z M80.9752488,29.2840021 L79.499524,29.2840021 C78.7365604,29.2840021 78.1693658,29.3746734 77.797923,29.5560188 C77.4264802,29.7373641 77.2407616,30.0547137 77.2407616,30.5080771 C77.2407616,30.9110668 77.376286,31.2258978 77.6473388,31.4525795 C77.9183917,31.6792612 78.314926,31.7926003 78.8369537,31.7926003 C79.6199953,31.7926003 80.1721317,31.573478 80.4933795,31.1352267 C80.8146273,30.6969754 80.9752488,30.0899813 80.9752488,29.3142262 L80.9752488,29.2840021 Z M18.256945,29.2840021 L16.7812203,29.2840021 C16.0182567,29.2840021 15.451062,29.3746734 15.0796192,29.5560188 C14.7081764,29.7373641 14.5224578,30.0547137 14.5224578,30.5080771 C14.5224578,30.9110668 14.6579822,31.2258978 14.929035,31.4525795 C15.2000879,31.6792612 15.5966222,31.7926003 16.1186499,31.7926003 C16.9016915,31.7926003 17.4538279,31.573478 17.7750757,31.1352267 C18.0963235,30.6969754 18.256945,30.0899813 18.256945,29.3142262 L18.256945,29.2840021 Z M113.140026,26.2767066 C112.39714,26.2767066 111.857553,26.5285714 111.521246,27.0323085 C111.18494,27.5360456 111.016789,28.1808194 111.016789,28.9666493 C111.016789,29.7625539 111.18494,30.4148837 111.521246,30.9236582 C111.857553,31.4324326 112.39714,31.6868161 113.140026,31.6868161 C113.792561,31.6868161 114.302032,31.4702123 114.668455,31.0369984 C115.034879,30.6037845 115.218087,29.9892345 115.218087,29.1933299 L115.218087,28.7550808 C115.218087,27.9692509 115.034879,27.3597381 114.668455,26.9265242 C114.302032,26.4933103 113.792561,26.2767066 113.140026,26.2767066 Z M53.162354,26.1860344 C51.9074797,26.1860344 51.1947218,26.8811812 51.0240588,28.2714956 L55.2554738,28.2714956 C55.1952399,27.6065626 54.9994824,27.0927585 54.6681956,26.7300677 C54.3369088,26.367377 53.8349666,26.1860344 53.162354,26.1860344 Z M71.142103,26.1860344 C69.8872287,26.1860344 69.1744708,26.8811812 69.0038079,28.2714956 L73.2352228,28.2714956 C73.1749889,27.6065626 72.9792314,27.0927585 72.6479446,26.7300677 C72.3166578,26.367377 71.8147156,26.1860344 71.142103,26.1860344 Z M98.8194721,22 C99.060408,22 99.2662043,22.0831154 99.4368672,22.2493486 C99.6075301,22.4155819 99.6928602,22.6195923 99.6928602,22.8613861 C99.6928602,23.1031799 99.6075301,23.3046718 99.4368672,23.4658676 C99.2662043,23.6270635 99.060408,23.7076602 98.8194721,23.7076602 C98.5684972,23.7076602 98.3627009,23.6270635 98.202077,23.4658676 C98.0414531,23.3046718 97.9611424,23.1031799 97.9611424,22.8613861 C97.9611424,22.6095176 98.0414531,22.4029885 98.202077,22.2417926 C98.3627009,22.0805967 98.5684972,22 98.8194721,22 Z M38.8116833,22 C39.0526191,22 39.2584154,22.0831154 39.4290783,22.2493486 C39.5997412,22.4155819 39.6850714,22.6195923 39.6850714,22.8613861 C39.6850714,23.1031799 39.5997412,23.3046718 39.4290783,23.4658676 C39.2584154,23.6270635 39.0526191,23.7076602 38.8116833,23.7076602 C38.5607084,23.7076602 38.3549121,23.6270635 38.1942882,23.4658676 C38.0336643,23.3046718 37.9533535,23.1031799 37.9533535,22.8613861 C37.9533535,22.6095176 38.0336643,22.4029885 38.1942882,22.2417926 C38.3549121,22.0805967 38.5607084,22 38.8116833,22 Z M33.4544862,7.2199641 L33.4544862,12.6074055 C33.4544862,14.1337213 34.3409677,15.054716 35.5874762,15.054716 C36.8339846,15.054716 37.7204661,14.1337213 37.7204661,12.6074055 L37.7204661,12.6074055 L37.7204661,7.2199641 L39.9774275,7.2199641 L39.9774275,12.520931 C39.9774275,15.3124602 38.2044646,17.0746917 35.5874762,17.0746917 C32.9696386,17.0746917 31.1966757,15.3124602 31.1966757,12.520931 L31.1966757,12.520931 L31.1966757,7.2199641 L33.4544862,7.2199641 Z M5.19236994,7 C6.61040065,7 7.8365302,7.52556308 8.7153696,8.42221064 L8.7153696,8.42221064 L7.26082672,9.86037288 C6.68172675,9.31801864 6.019413,9.03592728 5.21699443,9.03592728 C3.5501715,9.03592728 2.34187348,10.3338834 2.34187348,12.0365063 C2.34187348,13.7391292 3.5501715,15.039604 5.21699443,15.039604 C6.12725127,15.039604 6.82437894,14.6962249 7.40857363,14.0581611 L7.40857363,14.0581611 L8.85547443,15.4887673 C7.97154031,16.4828035 6.67408467,17.0746917 5.19236994,17.0746917 C2.26035794,17.0746917 -9.23705556e-14,14.8624573 -9.23705556e-14,12.0373458 C-9.23705556e-14,9.21307394 2.26035794,7 5.19236994,7 Z M23.8356528,7 C26.8254049,7 28.9821702,9.21895084 28.9821702,12.0516183 C28.9821702,14.8683342 26.8254049,17.0746917 23.8356528,17.0746917 C20.8467497,17.0746917 18.6899844,14.8683342 18.6899844,12.0516183 C18.6899844,9.21895084 20.8467497,7 23.8356528,7 Z M79.4980284,7.2199641 L83.6578682,16.8547276 L81.374584,16.8547276 L80.5840531,14.8884836 L76.4352519,14.8884836 L75.6455701,16.8547276 L73.3622859,16.8547276 L77.4762732,7.2199641 L79.4980284,7.2199641 Z M68.6488197,7.2199641 C69.901272,7.2199641 70.8208692,7.52220485 71.4806356,8.07967113 C72.140402,8.6371374 72.5242043,9.49348619 72.5242043,10.5127092 C72.5242043,11.7888368 71.9756726,13.1144983 70.0464716,13.6131955 L72.8264911,16.8547276 L70.1984641,16.8547276 L67.6103458,13.8130102 L66.3672338,13.8130102 L66.3672338,16.8547276 L64.1552757,16.8547276 L64.1552757,7.2199641 L68.6488197,7.2199641 Z M13.2921274,7.2199641 L13.2921274,14.8943605 L17.8637905,14.8943605 L17.8637905,16.8547276 L11.0351659,16.8547276 L11.0351659,7.2199641 L13.2921274,7.2199641 Z M46.6014141,7.2199641 C49.8000498,7.2199641 52.0434254,9.15598402 52.0434254,12.0373458 C52.0434254,14.9187077 49.8943022,16.8547276 46.6965156,16.8547276 L42.7914118,16.8547276 L42.7914118,7.2199641 L46.6014141,7.2199641 Z M61.5111155,14.8632969 L61.5111155,16.8547276 L53.0691626,16.8547276 C53.6346766,16.2838284 54.0881068,15.6180592 54.4048286,14.8632969 L54.4048286,14.8632969 L61.5111155,14.8632969 Z M23.8356528,9.02081524 C22.1960017,9.02081524 21.0318579,10.2952637 21.0318579,12.0524579 C21.0318579,13.7920213 22.1960017,15.054716 23.8356528,15.054716 C25.4770021,15.054716 26.6402967,13.7920213 26.6402967,12.0524579 C26.6402967,10.2952637 25.4770021,9.02081524 23.8356528,9.02081524 Z M46.536881,9.14590933 L45.0483733,9.14590933 L45.0483733,14.9287824 L46.536881,14.9287824 C48.4295699,14.9287824 49.7007028,13.7769093 49.7007028,12.0373458 C49.7007028,10.2977824 48.4295699,9.14590933 46.536881,9.14590933 Z M78.5096525,9.72436454 L77.1536075,13.1002258 L79.8656974,13.1002258 L78.5096525,9.72436454 Z M60.3113086,11.019802 L60.3113086,12.9919229 L54.8854306,12.9919229 C54.9219428,12.6888426 54.9465673,12.3798854 54.9465673,12.0600139 C54.9465673,11.7015228 54.9143007,11.3573042 54.86675,11.019802 L54.86675,11.019802 L60.3113086,11.019802 Z M68.5248482,9.10225233 L66.3672338,9.10225233 L66.3672338,11.995368 L68.5316412,11.995368 C69.1107411,11.995368 69.5225644,11.8660761 69.8146618,11.617567 C70.0897767,11.3833304 70.2689411,10.9811823 70.2689411,10.5437728 C70.2689411,10.1181171 70.0965697,9.72016675 69.8350406,9.49264663 C69.5395468,9.235742 69.1149867,9.10225233 68.5248482,9.10225233 Z M61.4669612,7.2199641 L61.4669612,9.21139482 L54.3674673,9.21139482 C54.0312157,8.45495339 53.5523119,7.79002374 52.9613243,7.2199641 L61.4669612,7.2199641 Z" id="cloudera-machine-learning"></path>
        </g>
    </g>
</svg>