<?xml version="1.0" encoding="UTF-8"?>
<svg width="118px" height="40px" viewBox="0 0 118 40" version="1.1" xmlns="http://www.w3.org/2000/svg" xmlns:xlink="http://www.w3.org/1999/xlink">
    <title>wordmark-data visualization</title>
    <g id="Symbols" stroke="none" stroke-width="1" fill="none" fill-rule="evenodd">
        <g id="logo/service" transform="translate(0.000000, 7.000000)">
            <path d="M4.435,25.59 C8.05,25.59 9.265,23.31 9.265,20.295 C9.265,17.325 8.08,15 4.435,15 L1,15 L1,25.59 L4.435,25.59 Z M4.255,24.42 L2.395,24.42 L2.395,16.17 L4.255,16.17 C7.075,16.17 7.795,17.91 7.795,20.295 C7.795,22.635 7.105,24.42 4.255,24.42 Z M13.225,25.77 C14.425,25.77 15.25,25.35 15.73,24.615 L15.73,25.59 L17.035,25.59 L17.035,21.255 C17.035,19.335 16.345,18.105 13.96,18.105 C11.92,18.105 10.885,19.05 10.885,20.565 L12.22,20.565 C12.22,19.68 12.73,19.125 13.975,19.125 C15.355,19.125 15.73,19.83 15.73,21.06 L15.73,21.3 L14.155,21.3 C11.95,21.3 10.615,21.87 10.615,23.565 C10.615,24.87 11.47,25.77 13.225,25.77 Z M13.6,24.72 C12.535,24.72 12.01,24.24 12.01,23.445 C12.01,22.5 12.835,22.23 14.26,22.23 L15.73,22.23 L15.73,22.26 C15.73,23.655 15.265,24.72 13.6,24.72 Z M21.445,25.71 C21.835,25.71 22.3,25.65 22.675,25.56 L22.675,24.48 C22.39,24.555 22.075,24.6 21.805,24.6 C21.025,24.6 20.62,24.195 20.62,23.265 L20.62,19.365 L22.705,19.365 L22.705,18.285 L20.62,18.285 L20.62,16.515 L19.33,16.515 L19.33,18.285 L18.19,18.285 L18.19,19.365 L19.33,19.365 L19.33,23.445 C19.33,25.05 19.975,25.71 21.445,25.71 Z M26.44,25.77 C27.64,25.77 28.465,25.35 28.945,24.615 L28.945,25.59 L30.25,25.59 L30.25,21.255 C30.25,19.335 29.56,18.105 27.175,18.105 C25.135,18.105 24.1,19.05 24.1,20.565 L25.435,20.565 C25.435,19.68 25.945,19.125 27.19,19.125 C28.57,19.125 28.945,19.83 28.945,21.06 L28.945,21.3 L27.37,21.3 C25.165,21.3 23.83,21.87 23.83,23.565 C23.83,24.87 24.685,25.77 26.44,25.77 Z M26.815,24.72 C25.75,24.72 25.225,24.24 25.225,23.445 C25.225,22.5 26.05,22.23 27.475,22.23 L28.945,22.23 L28.945,22.26 C28.945,23.655 28.48,24.72 26.815,24.72 Z M39.415,25.59 L43.24,15 L41.8,15 L38.725,23.895 L35.65,15 L34.18,15 L38.02,25.59 L39.415,25.59 Z M45.145,16.695 C45.625,16.695 46.015,16.335 46.015,15.855 C46.015,15.36 45.625,15 45.145,15 C44.65,15 44.29,15.36 44.29,15.855 C44.29,16.335 44.65,16.695 45.145,16.695 Z M45.79,25.59 L45.79,18.285 L44.485,18.285 L44.485,25.59 L45.79,25.59 Z M50.455,25.77 C52.3,25.77 53.365,24.96 53.365,23.52 C53.365,22.185 52.42,21.705 50.95,21.315 C49.9,21.03 49.045,20.865 49.045,20.055 C49.045,19.47 49.435,19.035 50.365,19.035 C51.4,19.035 51.79,19.62 51.79,20.445 L53.05,20.445 C53.05,19.035 52.24,18.105 50.38,18.105 C48.655,18.105 47.785,18.945 47.785,20.19 C47.785,21.495 48.775,21.96 50.14,22.305 C51.13,22.56 51.985,22.755 51.985,23.64 C51.985,24.33 51.52,24.78 50.44,24.78 C49.21,24.78 48.79,24.09 48.79,23.16 L47.515,23.16 C47.515,24.675 48.31,25.77 50.455,25.77 Z M57.595,25.77 C58.63,25.77 59.425,25.38 59.905,24.57 L59.905,25.59 L61.21,25.59 L61.21,18.285 L59.905,18.285 L59.905,22.56 C59.905,23.925 59.215,24.63 58.015,24.63 C56.86,24.63 56.305,24 56.305,22.545 L56.305,18.285 L55.015,18.285 L55.015,22.8 C55.015,24.765 55.9,25.77 57.595,25.77 Z M65.56,25.77 C66.76,25.77 67.585,25.35 68.065,24.615 L68.065,25.59 L69.37,25.59 L69.37,21.255 C69.37,19.335 68.68,18.105 66.295,18.105 C64.255,18.105 63.22,19.05 63.22,20.565 L64.555,20.565 C64.555,19.68 65.065,19.125 66.31,19.125 C67.69,19.125 68.065,19.83 68.065,21.06 L68.065,21.3 L66.49,21.3 C64.285,21.3 62.95,21.87 62.95,23.565 C62.95,24.87 63.805,25.77 65.56,25.77 Z M65.935,24.72 C64.87,24.72 64.345,24.24 64.345,23.445 C64.345,22.5 65.17,22.23 66.595,22.23 L68.065,22.23 L68.065,22.26 C68.065,23.655 67.6,24.72 65.935,24.72 Z M72.88,25.59 L72.88,15 L71.575,15 L71.575,25.59 L72.88,25.59 Z M75.79,16.695 C76.27,16.695 76.66,16.335 76.66,15.855 C76.66,15.36 76.27,15 75.79,15 C75.295,15 74.935,15.36 74.935,15.855 C74.935,16.335 75.295,16.695 75.79,16.695 Z M76.435,25.59 L76.435,18.285 L75.13,18.285 L75.13,25.59 L76.435,25.59 Z M84.055,25.59 L84.055,24.51 L79.99,24.51 L84.1,18.285 L78.205,18.285 L78.205,19.365 L82.015,19.365 L77.83,25.59 L84.055,25.59 Z M87.64,25.77 C88.84,25.77 89.665,25.35 90.145,24.615 L90.145,25.59 L91.45,25.59 L91.45,21.255 C91.45,19.335 90.76,18.105 88.375,18.105 C86.335,18.105 85.3,19.05 85.3,20.565 L86.635,20.565 C86.635,19.68 87.145,19.125 88.39,19.125 C89.77,19.125 90.145,19.83 90.145,21.06 L90.145,21.3 L88.57,21.3 C86.365,21.3 85.03,21.87 85.03,23.565 C85.03,24.87 85.885,25.77 87.64,25.77 Z M88.015,24.72 C86.95,24.72 86.425,24.24 86.425,23.445 C86.425,22.5 87.25,22.23 88.675,22.23 L90.145,22.23 L90.145,22.26 C90.145,23.655 89.68,24.72 88.015,24.72 Z M95.86,25.71 C96.25,25.71 96.715,25.65 97.09,25.56 L97.09,24.48 C96.805,24.555 96.49,24.6 96.22,24.6 C95.44,24.6 95.035,24.195 95.035,23.265 L95.035,19.365 L97.12,19.365 L97.12,18.285 L95.035,18.285 L95.035,16.515 L93.745,16.515 L93.745,18.285 L92.605,18.285 L92.605,19.365 L93.745,19.365 L93.745,23.445 C93.745,25.05 94.39,25.71 95.86,25.71 Z M99.43,16.695 C99.91,16.695 100.3,16.335 100.3,15.855 C100.3,15.36 99.91,15 99.43,15 C98.935,15 98.575,15.36 98.575,15.855 C98.575,16.335 98.935,16.695 99.43,16.695 Z M100.075,25.59 L100.075,18.285 L98.77,18.285 L98.77,25.59 L100.075,25.59 Z M105.31,25.77 C107.8,25.77 108.805,23.94 108.805,21.945 C108.805,19.98 107.815,18.105 105.31,18.105 C102.88,18.105 101.83,19.905 101.83,21.945 C101.83,23.925 102.85,25.77 105.31,25.77 Z M105.31,24.63 C103.72,24.63 103.195,23.4 103.195,21.945 C103.195,20.565 103.66,19.245 105.31,19.245 C106.945,19.245 107.425,20.49 107.425,21.945 C107.425,23.295 106.99,24.63 105.31,24.63 Z M111.865,25.59 L111.865,21.315 C111.865,19.95 112.555,19.245 113.755,19.245 C114.91,19.245 115.465,19.875 115.465,21.33 L115.465,25.59 L116.755,25.59 L116.755,21.075 C116.755,19.11 115.87,18.105 114.175,18.105 C113.14,18.105 112.345,18.495 111.865,19.305 L111.865,18.285 L110.56,18.285 L110.56,25.59 L111.865,25.59 Z" id="DataVisualization" fill="#989EA4" fill-rule="nonzero"></path>
            <g id="logo/cloudera/cloudera-white" fill="#FFFFFF">
                <path d="M37.4238401,5.56583333 C37.4238401,7.08083333 36.5443298,7.995 35.3076236,7.995 C34.0709175,7.995 33.1914071,7.08083333 33.1914071,5.56583333 L33.1914071,0.218333333 L30.9513515,0.218333333 L30.9513515,5.48 C30.9513515,8.25083333 32.7103722,10 35.3076236,10 C37.9040326,10 39.6630533,8.25083333 39.6630533,5.48 L39.6630533,0.218333333 L37.4238401,0.218333333 L37.4238401,5.56583333 Z M79.2376501,6.055 L77.8922688,2.70416667 L76.5468875,6.055 L79.2376501,6.055 Z M83,9.78166667 L80.7346711,9.78166667 L79.9503568,7.83 L75.8341809,7.83 L75.050709,9.78166667 L72.7853801,9.78166667 L76.8670158,0.218333333 L78.8728723,0.218333333 L83,9.78166667 Z M69.7163606,3.5175 C69.7163606,3.095 69.5453447,2.7 69.2858723,2.47416667 C68.9927022,2.21916667 68.5714808,2.08666667 67.985983,2.08666667 L65.8453356,2.08666667 L65.8453356,4.95833333 L67.9927225,4.95833333 C68.5672686,4.95833333 68.9758534,4.83 69.2656537,4.58333333 C69.5386052,4.35083333 69.7163606,3.95166667 69.7163606,3.5175 L69.7163606,3.5175 Z M69.4956406,6.56416667 L72.2537986,9.78166667 L69.6464379,9.78166667 L67.078672,6.7625 L65.8453356,6.7625 L65.8453356,9.78166667 L63.6507719,9.78166667 L63.6507719,0.218333333 L68.1089796,0.218333333 C69.3515829,0.218333333 70.2639485,0.518333333 70.9185266,1.07166667 C71.5731048,1.625 71.9538889,2.475 71.9538889,3.48666667 C71.9538889,4.75333333 71.4096708,6.06916667 69.4956406,6.56416667 L69.4956406,6.56416667 Z M13.1876009,0.218333333 L10.9483877,0.218333333 L10.9483877,9.78166667 L17.7233133,9.78166667 L17.7233133,7.83583333 L13.1876009,7.83583333 L13.1876009,0.218333333 Z M5.17596906,7.98 C3.52225369,7.98 2.32345747,6.68916667 2.32345747,4.99916667 C2.32345747,3.30916667 3.52225369,2.02083333 5.17596906,2.02083333 C5.97207759,2.02083333 6.62918303,2.30083333 7.20372908,2.83916667 L8.64683373,1.41166667 C7.77490535,0.521666667 6.55841783,0 5.15153822,0 C2.24258295,0 0,2.19666667 0,5 C0,7.80416667 2.24258295,10 5.15153822,10 C6.62160105,10 7.90885377,9.4125 8.78583681,8.42583333 L7.35031414,7.00583333 C6.77071344,7.63916667 6.07906783,7.98 5.17596906,7.98 L5.17596906,7.98 Z M49.3098667,5 C49.3098667,3.27333333 48.0487297,2.13 46.1709246,2.13 L44.6941222,2.13 L44.6941222,7.87 L46.1709246,7.87 C48.0487297,7.87 49.3098667,6.72666667 49.3098667,5 L49.3098667,5 Z M51.6341666,5 C51.6341666,7.86 49.5019437,9.78166667 46.3293038,9.78166667 L42.454909,9.78166667 L42.454909,0.218333333 L46.2349502,0.218333333 C49.4084325,0.218333333 51.6341666,2.14 51.6341666,5 L51.6341666,5 Z M26.430803,5.015 C26.430803,3.27083333 25.2766562,2.00583333 23.6482141,2.00583333 C22.0214569,2.00583333 20.8664677,3.27083333 20.8664677,5.015 C20.8664677,6.74166667 22.0214569,7.995 23.6482141,7.995 C25.2766562,7.995 26.430803,6.74166667 26.430803,5.015 L26.430803,5.015 Z M28.7542604,5.01416667 C28.7542604,7.81 26.6144555,10 23.6482141,10 C20.6828152,10 18.5430103,7.81 18.5430103,5.01416667 C18.5430103,2.2025 20.6828152,0 23.6482141,0 C26.6144555,0 28.7542604,2.2025 28.7542604,5.01416667 L28.7542604,5.01416667 Z M52.6518376,9.78166667 L61.0274048,9.78166667 L61.0274048,7.805 L53.9770003,7.805 C53.6627691,8.55416667 53.2129046,9.215 52.6518376,9.78166667 L52.6518376,9.78166667 Z M59.837033,5.9475 L59.837033,3.99 L54.4352892,3.99 C54.482466,4.325 54.5144789,4.66666667 54.5144789,5.0225 C54.5144789,5.34 54.490048,5.64666667 54.453823,5.9475 L59.837033,5.9475 Z M52.5448474,0.218333333 L60.9835977,0.218333333 L60.9835977,2.195 L53.9399328,2.195 C53.6063254,1.44416667 53.1311876,0.784166667 52.5448474,0.218333333 L52.5448474,0.218333333 Z" id="cloudera"></path>
            </g>
            <g id="product-logo/cloudera" fill="#F26722">
                <path d="M37.4240257,5.56568414 C37.4240257,7.08065337 36.5441373,7.99500255 35.3078029,7.99500255 C34.0710006,7.99500255 33.19158,7.08065337 33.19158,5.56568414 L33.19158,0.217944565 L30.9518641,0.217944565 L30.9518641,5.48007959 C30.9518641,8.25089075 32.7107053,10 35.3078029,10 C37.9049004,10 39.6632739,8.25089075 39.6632739,5.48007959 L39.6632739,0.217944565 L37.4240257,0.217944565 L37.4240257,5.56568414 Z M79.2381379,6.05524964 L77.8928115,2.70464115 L76.5470172,6.05524964 L79.2381379,6.05524964 Z M83,9.78205543 L80.7345563,9.78205543 L79.9505622,7.82980889 L75.8345929,7.82980889 L75.0510666,9.78205543 L72.7856229,9.78205543 L76.8669766,0.217944565 L78.8728041,0.217944565 L83,9.78205543 Z M69.7160707,3.51765305 C69.7160707,3.09518301 69.5453321,2.69955115 69.2861837,2.47420295 C68.9928875,2.2192402 68.5718883,2.08597474 67.9862316,2.08597474 L65.8452166,2.08597474 L65.8452166,4.95766045 L67.9927805,4.95766045 C68.5672105,4.95766045 68.9760476,4.82948498 69.2656015,4.58331405 C69.5387832,4.35056221 69.7160707,3.95122854 69.7160707,3.51765305 L69.7160707,3.51765305 Z M69.4962155,6.56378696 L72.2542283,9.78205543 L69.6468397,9.78205543 L67.0787443,6.76229698 L65.8452166,6.76229698 L65.8452166,9.78205543 L63.6513427,9.78205543 L63.6513427,0.217944565 L68.1092569,0.217944565 C69.3521402,0.217944565 70.264773,0.518254593 70.9191929,1.07167646 C71.5731451,1.62417287 71.9543833,2.47466568 71.9543833,3.48665032 C71.9543833,4.7535977 71.4098909,6.07005692 69.4962155,6.56378696 L69.4962155,6.56378696 Z M13.1875673,0.217944565 L10.9487869,0.217944565 L10.9487869,9.78205543 L17.7231324,9.78205543 L17.7231324,7.83582435 L13.1875673,7.83582435 L13.1875673,0.217944565 Z M5.17595176,7.98019527 C3.5223603,7.98019527 2.32344802,6.68964879 2.32344802,4.99884318 C2.32344802,3.30896303 3.5223603,2.02119291 5.17595176,2.02119291 C5.9721081,2.02119291 6.62933469,2.30068021 7.20376476,2.8392948 L8.64732437,1.41131831 C7.77445262,0.521493684 6.55870037,0 5.15256291,0 C2.24252261,0 0,2.19610384 0,4.99976864 C0,7.80389616 2.24252261,10 5.15256291,10 C6.62138248,10 7.9087046,9.41279904 8.78625412,8.42580168 L7.35017894,7.00569155 C6.7710711,7.63962797 6.07969679,7.98019527 5.17595176,7.98019527 L5.17595176,7.98019527 Z M49.3107053,5.00023136 C49.3107053,3.27333302 48.0495787,2.12993383 46.1714543,2.12993383 L44.6946826,2.12993383 L44.6946826,7.8705289 L46.1714543,7.8705289 C48.0495787,7.8705289 49.3107053,6.72666698 49.3107053,5.00023136 L49.3107053,5.00023136 Z M51.6341534,5.00023136 C51.6341534,7.8603489 49.5020261,9.78205543 46.3295629,9.78205543 L42.4554344,9.78205543 L42.4554344,0.217944565 L46.235072,0.217944565 C49.4080029,0.217944565 51.6341534,2.14011383 51.6341534,5.00023136 L51.6341534,5.00023136 Z M26.4308,5.01457591 C26.4308,3.27101939 25.2763265,2.00546018 23.6489306,2.00546018 C22.0215346,2.00546018 20.8665934,3.27101939 20.8665934,5.01457591 C20.8665934,6.74193698 22.0215346,7.99500255 23.6489306,7.99500255 C25.2763265,7.99500255 26.4308,6.74193698 26.4308,5.01457591 L26.4308,5.01457591 Z M28.7547158,5.01457591 C28.7547158,7.81037435 26.6146363,10 23.6489306,10 C20.6832248,10 18.5436132,7.81037435 18.5436132,5.01457591 C18.5436132,2.20258202 20.6832248,0 23.6489306,0 C26.6146363,0 28.7547158,2.20258202 28.7547158,5.01457591 L28.7547158,5.01457591 Z M52.6525037,9.78205543 L61.0275819,9.78205543 L61.0275819,7.80528435 L53.977248,7.80528435 C53.6633697,8.55397714 53.2129005,9.21521447 52.6525037,9.78205543 L52.6525037,9.78205543 Z M59.8366219,5.94743418 L59.8366219,3.99009764 L54.4356694,3.99009764 C54.4824471,4.32511221 54.5142559,4.66660497 54.5142559,5.02244227 C54.5142559,5.34033594 54.4903993,5.64666142 54.4543805,5.94743418 L59.8366219,5.94743418 Z M52.5453828,0.217944565 L60.9836109,0.217944565 L60.9836109,2.19471565 L53.9398259,2.19471565 C53.6072365,1.44417195 53.1310395,0.783860071 52.5453828,0.217944565 L52.5453828,0.217944565 Z" id="Cloudera"></path>
            </g>
        </g>
    </g>
</svg>