<svg width="120" height="41" viewBox="0 0 120 41" fill="none" xmlns="http://www.w3.org/2000/svg">
<path d="M27.0111 12.3975V39.3322H19.4787V36.8126C18.5478 37.9177 17.391 38.7875 16.095 39.3569C14.7989 39.9263 13.3971 40.1806 11.9943 40.1007C5.4214 40.1007 0 33.9024 0 25.8774C0 17.8524 5.4214 11.6542 11.9943 11.6542C13.397 11.5752 14.7985 11.8299 16.0945 12.3992C17.3904 12.9686 18.5472 13.8379 19.4787 14.9423V12.4227L27.0111 12.3975ZM19.4787 25.8648C19.5438 25.0086 19.4353 24.1477 19.1602 23.3388C18.8852 22.5299 18.4499 21.7915 17.8831 21.1724C17.3163 20.5532 16.6309 20.0674 15.8722 19.7471C15.1134 19.4267 14.2986 19.279 13.4815 19.3138C12.6645 19.279 11.8496 19.4267 11.0909 19.7471C10.3322 20.0674 9.64676 20.5532 9.07997 21.1724C8.51318 21.7915 8.07789 22.5299 7.80285 23.3388C7.52781 24.1477 7.41927 25.0086 7.48441 25.8648C7.41959 26.7221 7.52817 27.5842 7.803 28.3943C8.07784 29.2044 8.51273 29.9443 9.07911 30.5653C9.64549 31.1864 10.3305 31.6746 11.0893 31.9979C11.848 32.3211 12.6633 32.4722 13.4815 32.441C16.9599 32.3906 19.4787 29.871 19.4787 25.8648Z" fill="#2026D2"/>
<path d="M42.0595 20.1583V29.695C42.0595 32.0131 43.9186 32.2146 47.229 32.0131V39.3326C37.3937 40.4412 34.5391 37.2413 34.5391 29.695V20.1583H30.509V12.3978H34.5391V7.283L42.0715 4.85156V12.4104H47.241V20.1709L42.0595 20.1583Z" fill="#2026D2"/>
<path d="M51.5083 0H59.0407V39.3439H51.5083V0Z" fill="#2026D2"/>
<path d="M90.3184 12.4008V39.3355H82.798V36.8159C81.8678 37.9177 80.7126 38.7846 79.4186 39.3518C78.1247 39.919 76.7255 40.1718 75.3256 40.0914C68.7407 40.0914 63.3313 33.8931 63.3313 25.8681C63.3313 17.8431 68.7527 11.6449 75.3256 11.6449C76.7265 11.566 78.1263 11.8208 79.4202 12.3902C80.7142 12.9596 81.8689 13.8288 82.798 14.933V12.4134L90.3184 12.4008ZM82.798 25.8681C82.798 24.1975 82.1661 22.5953 81.0415 21.414C79.9168 20.2327 78.3914 19.5691 76.8008 19.5691C75.2103 19.5691 73.6849 20.2327 72.5602 21.414C71.4356 22.5953 70.8037 24.1975 70.8037 25.8681C70.8037 29.9121 73.3105 32.4443 76.8008 32.4443C80.2912 32.4443 82.798 29.8743 82.798 25.8681Z" fill="#2026D2"/>
<path d="M119.947 22.802V39.3559H112.415V23.9737C112.415 20.673 110.448 19.073 108.037 19.073C105.278 19.073 103.371 20.799 103.371 24.6288V39.3434H95.8386V12.396H103.371V14.9156C104.738 12.9251 107.245 11.6401 110.568 11.6401C115.617 11.6401 119.947 15.5203 119.947 22.802Z" fill="#2026D2"/>
<path d="M13.4973 29.1773C14.1236 29.1898 14.7393 29.0061 15.2659 28.6498C15.7925 28.2934 16.2061 27.7804 16.4541 27.1762C16.7021 26.572 16.7732 25.9039 16.6583 25.2571C16.5434 24.6102 16.2478 24.014 15.8091 23.5443C15.3705 23.0746 14.8086 22.7527 14.1951 22.6197C13.5816 22.4867 12.9443 22.5485 12.3644 22.7973C11.7845 23.0461 11.2882 23.4707 10.9389 24.0168C10.5895 24.563 10.4029 25.206 10.4028 25.864C10.398 26.2952 10.4744 26.7231 10.6275 27.1233C10.7806 27.5234 11.0074 27.8878 11.2949 28.1957C11.5824 28.5035 11.925 28.7487 12.3029 28.9171C12.6809 29.0856 13.0868 29.174 13.4973 29.1773V29.1773Z" fill="#62E1FC"/>
<path d="M76.8056 29.177C77.4324 29.192 78.0492 29.0105 78.5774 28.6557C79.1055 28.3009 79.521 27.7889 79.7708 27.1849C80.0206 26.581 80.0935 25.9125 79.98 25.2649C79.8665 24.6173 79.5719 24.0199 79.1338 23.5489C78.6956 23.0779 78.1338 22.7548 77.52 22.6207C76.9062 22.4866 76.2683 22.5477 75.6876 22.7961C75.107 23.0445 74.6101 23.4689 74.2601 24.0153C73.9102 24.5617 73.7233 25.2052 73.7231 25.8637C73.7184 26.2939 73.7943 26.7208 73.9467 27.1201C74.099 27.5194 74.3248 27.8833 74.611 28.191C74.8972 28.4986 75.2384 28.7441 75.6149 28.9133C75.9915 29.0825 76.3961 29.1721 76.8056 29.177Z" fill="#62E1FC"/>
</svg>
