<svg width="82" height="88" viewBox="0 0 82 88" fill="none" xmlns="http://www.w3.org/2000/svg">
<path d="M82 2.95487V84.7231H59.1332V77.0741C56.3072 80.4291 52.7956 83.0696 48.861 84.7982C44.9264 86.5267 40.6707 87.2986 36.4121 87.0561C16.4583 87.0561 0 68.2394 0 43.8772C0 19.5151 16.4583 0.698407 36.4121 0.698407C40.6704 0.458693 44.9253 1.23186 48.8595 2.96024C52.7936 4.68862 56.3055 7.32761 59.1332 10.6804V3.03136L82 2.95487ZM59.1332 43.839C59.331 41.2398 59.0015 38.6261 58.1665 36.1704C57.3316 33.7148 56.0101 31.4732 54.2894 29.5936C52.5688 27.7141 50.488 26.2393 48.1847 25.2667C45.8813 24.2941 43.4077 23.8458 40.9272 23.9515C38.4467 23.8458 35.9731 24.2941 33.6697 25.2667C31.3663 26.2393 29.2856 27.7141 27.5649 29.5936C25.8443 31.4732 24.5228 33.7148 23.6878 36.1704C22.8529 38.6261 22.5234 41.2398 22.7211 43.839C22.5244 46.4416 22.854 49.0585 23.6883 51.5179C24.5227 53.9772 25.8429 56.2233 27.5623 58.1088C29.2817 59.9942 31.3614 61.4763 33.6648 62.4576C35.9682 63.439 38.4431 63.8975 40.9272 63.803C51.4867 63.65 59.1332 56.001 59.1332 43.839Z" fill="#2026D2"/>
<path d="M40.975 53.8964C42.8764 53.9344 44.7455 53.3769 46.3441 52.295C47.9427 51.2131 49.1984 49.6558 49.9512 47.8215C50.704 45.9872 50.9198 43.9591 50.5711 41.9955C50.2224 40.0319 49.325 38.2218 47.9933 36.7959C46.6615 35.37 44.9558 34.3929 43.0933 33.989C41.2309 33.5851 39.2961 33.7728 37.5357 34.5282C35.7752 35.2836 34.2687 36.5724 33.2081 38.2304C32.1476 39.8884 31.5811 41.8405 31.5807 43.8379C31.5663 45.147 31.7981 46.4461 32.2629 47.6608C32.7276 48.8756 33.4162 49.9819 34.289 50.9165C35.1618 51.851 36.2018 52.5953 37.3491 53.1067C38.4965 53.6181 39.7287 53.8864 40.975 53.8964V53.8964Z" fill="#62E1FC"/>
</svg>
