<?xml version="1.0" encoding="UTF-8"?>
<svg width="106px" height="32px" viewBox="0 0 106 32" version="1.1" xmlns="http://www.w3.org/2000/svg" xmlns:xlink="http://www.w3.org/1999/xlink">
    <title>logo/cdp-stacked</title>
    <g id="Symbols" stroke="none" stroke-width="1" fill="none" fill-rule="evenodd">
        <g id="product-logos/wordmarks/cdp-orange" transform="translate(0.000000, -4.000000)">
            <g id="logo/cdp-stacked" transform="translate(0.000000, 4.000000)">
                <path d="M98.8743584,23.5041185 C99.356718,24.0878222 99.5978978,24.9524148 99.5978978,26.0967111 L99.5978978,31.2818963 L98.0811449,31.2818963 L98.0811449,26.3740444 C98.0811449,25.5301926 97.9275045,24.9150815 97.6196281,24.5275259 C97.3117517,24.1399704 96.8383247,23.9467852 96.1993472,23.9467852 C95.5371449,23.9467852 95.0285831,24.1547852 94.6742573,24.5707852 C94.3199315,24.9867852 94.1430663,25.5823407 94.1430663,26.3568593 L94.1430663,31.2818963 L92.626909,31.2818963 L92.626909,26.3740444 C92.626909,25.5301926 92.4756506,24.9150815 92.1737292,24.5275259 C91.8712124,24.1399704 91.4007629,23.9467852 90.7617854,23.9467852 C90.0995831,23.9467852 89.5880438,24.1547852 89.2283584,24.5707852 C88.8680775,24.9867852 88.6882348,25.5823407 88.6882348,26.3568593 L88.6882348,31.2818963 L87.1720775,31.2818963 L87.1720775,22.8368593 L88.6882348,22.8368593 L88.6882348,23.9467852 C88.9437067,23.5189333 89.2920775,23.1918222 89.7339427,22.966637 C90.1752124,22.7408593 90.6921112,22.6282667 91.2846393,22.6282667 C92.6554933,22.6282667 93.532673,23.1894519 93.9161787,24.310637 C94.1716506,23.7441185 94.5378865,23.3221926 95.014291,23.0448593 C95.4906955,22.7669333 96.0540438,22.6282667 96.704336,22.6282667 C97.6690551,22.6282667 98.3919989,22.9204148 98.8743584,23.5041185 L98.8743584,23.5041185 Z M86.0215607,22.8368593 L86.0215607,24.1891556 C85.7893135,24.1316741 85.5278865,24.102637 85.2378753,24.102637 C84.5173135,24.102637 83.9712348,24.3254519 83.5996393,24.7704889 C83.2274483,25.2155259 83.0416506,25.8424889 83.0416506,26.6519704 L83.0416506,31.2818963 L81.5254933,31.2818963 L81.5254933,22.8368593 L83.0243809,22.8368593 L83.0243809,23.9811556 C83.2334034,23.5764148 83.5210326,23.2676741 83.8872685,23.0531556 C84.252909,22.8392296 84.6917966,22.732563 85.2027404,22.732563 C85.5046618,22.732563 85.7779989,22.7669333 86.0215607,22.8368593 L86.0215607,22.8368593 Z M77.7785719,29.2961185 C78.1501674,28.7130074 78.3365607,27.9698963 78.3365607,27.0679704 C78.3365607,26.1316741 78.1471899,25.3773037 77.7702348,24.8048593 C77.3920888,24.2324148 76.7620438,23.9467852 75.878909,23.9467852 C74.9957742,23.9467852 74.3657292,24.2383407 73.9881787,24.8220444 C73.6106281,25.4057481 73.4218528,26.1547852 73.4218528,27.0679704 C73.4218528,27.9930074 73.6159876,28.7414519 74.0054483,29.3138963 C74.394909,29.8863407 75.0189989,30.1719704 75.878909,30.1719704 C76.7733584,30.1719704 77.4069764,29.8804148 77.7785719,29.2961185 L77.7785719,29.2961185 Z M73.604673,30.8836741 C72.9948753,30.4789333 72.5476506,29.9408593 72.2629989,29.270637 C71.9777517,28.6004148 71.8360213,27.8656 71.8360213,27.0679704 C71.8360213,26.2472296 71.9807292,25.5017481 72.2719315,24.8309333 C72.5619427,24.1601185 73.0091674,23.6256 73.6136056,23.2267852 C74.2174483,22.8279704 74.9731449,22.6282667 75.878909,22.6282667 C76.8084933,22.6282667 77.574909,22.8338963 78.1793472,23.2439704 C78.7837854,23.654637 79.2280326,24.1950815 79.5126843,24.8653037 C79.797336,25.5361185 79.9396618,26.2703407 79.9396618,27.0679704 C79.9396618,27.8774519 79.797336,28.614637 79.5126843,29.2795259 C79.2280326,29.9444148 78.7808079,30.4789333 78.1710101,30.8836741 C77.5606169,31.2878222 76.7965831,31.4904889 75.878909,31.4904889 C74.9731449,31.4904889 74.2144708,31.2878222 73.604673,30.8836741 L73.604673,30.8836741 Z M67.5317067,24.0848593 L66.2418416,24.0848593 L66.2418416,22.8368593 L67.5317067,22.8368593 L67.5317067,21.4839704 C67.5317067,20.5820444 67.7490663,19.9171556 68.1849764,19.4893037 C68.6208865,19.0620444 69.3146506,18.8481185 70.2674596,18.8481185 C70.6509652,18.8481185 70.9820663,18.8824889 71.2607629,18.9518222 L71.2607629,20.2181926 C70.9588416,20.1482667 70.6974146,20.1138963 70.476482,20.1138963 C69.523673,20.1138963 69.047864,20.6164148 69.047864,21.622637 L69.047864,22.8368593 L71.2262236,22.8368593 L71.2262236,24.0848593 L69.047864,24.0848593 L69.047864,31.2818963 L67.5317067,31.2818963 L67.5317067,24.0848593 Z M62.0334034,30.8054519 C61.6439427,30.3947852 61.4498079,29.7269333 61.4498079,28.8018963 L61.4498079,24.0848593 L60.1254034,24.0848593 L60.1254034,22.8368593 L61.4498079,22.8368593 L61.4498079,20.7900444 L62.9481,20.7900444 L62.9481,22.8368593 L65.3706169,22.8368593 L65.3706169,24.0848593 L62.9481,24.0848593 L62.9481,28.5938963 C62.9481,29.1260444 63.0618416,29.516563 63.2881337,29.7648593 C63.5150213,30.0131556 63.8604146,30.1376 64.324909,30.1376 C64.6500551,30.1376 64.9871112,30.0913778 65.3360775,29.9989333 L65.3360775,31.2475259 C64.8477629,31.3630815 64.3713584,31.420563 63.906864,31.420563 C63.0469539,31.420563 62.422864,31.2161185 62.0334034,30.8054519 L62.0334034,30.8054519 Z M57.0228191,29.5218963 C57.3950101,29.0193778 57.5808079,28.3224889 57.5808079,27.4318222 L57.5808079,27.3974519 L55.8728978,27.3974519 C54.9897629,27.3974519 54.3335157,27.5017481 53.9035607,27.7097481 C53.4736056,27.9177481 53.2586281,28.2821926 53.2586281,28.8018963 C53.2586281,29.2647111 53.4158416,29.6261926 53.7290775,29.8863407 C54.042909,30.1458963 54.5014483,30.2762667 55.1058865,30.2762667 C56.0122461,30.2762667 56.6512236,30.0250074 57.0228191,29.5218963 L57.0228191,29.5218963 Z M57.650482,23.0620444 C58.173336,23.3512296 58.5449315,23.7618963 58.765864,24.2934519 C58.9862011,24.8250074 59.0969652,25.4839704 59.0969652,26.2703407 L59.0969652,31.2818963 L57.5808079,31.2818963 L57.5808079,30.1547852 C57.3015157,30.582637 56.9186056,30.9121185 56.430291,31.1438222 C55.9425719,31.3743407 55.3554034,31.4904889 54.6705719,31.4904889 C53.6826281,31.4904889 52.9305045,31.2587852 52.4130101,30.796563 C51.8961112,30.3343407 51.6376618,29.7156741 51.6376618,28.9411556 C51.6376618,28.0042667 51.9866281,27.3340444 52.6833697,26.9293037 C53.3807067,26.524563 54.4025944,26.3224889 55.7508191,26.3224889 L57.5808079,26.3224889 L57.5808079,26.0451556 C57.5808079,25.5479704 57.5194708,25.1373037 57.3979876,24.8131556 C57.275909,24.4901926 57.066291,24.2413037 56.7703247,24.0676741 C56.4737629,23.894637 56.0646506,23.8075259 55.5417966,23.8075259 C54.8444596,23.8075259 54.3305382,23.9521185 53.9994371,24.2413037 C53.668336,24.5304889 53.5027854,24.940563 53.5027854,25.4727111 L51.9514933,25.4727111 C51.9514933,24.582637 52.2563921,23.8857481 52.8667854,23.382637 C53.4765831,22.8801185 54.3621,22.6282667 55.524527,22.6282667 C56.4189764,22.6282667 57.1276281,22.7734519 57.650482,23.0620444 L57.650482,23.0620444 Z M48.535673,31.2818963 L50.0518303,31.2818963 L50.0518303,19.0383407 L48.535673,19.0383407 L48.535673,31.2818963 Z M42.9420888,24.5358222 C43.8365382,24.5358222 44.4957629,24.3598222 44.9197629,24.0072296 C45.3437629,23.654637 45.5557629,23.1254519 45.5557629,22.4202667 C45.5557629,21.7150815 45.3437629,21.1888593 44.9197629,20.8421926 C44.4957629,20.4955259 43.8365382,20.3218963 42.9420888,20.3218963 L40.8334034,20.3218963 L40.8334034,24.5358222 L42.9420888,24.5358222 Z M39.2124371,19.0383407 L43.3255944,19.0383407 C44.6613135,19.0383407 45.6456843,19.3310815 46.2793022,19.9141926 C46.9123247,20.4984889 47.2291337,21.3275259 47.2291337,22.4030815 C47.2291337,23.5017481 46.9039876,24.3479704 46.2531,24.9435259 C45.6022124,25.5390815 44.6261787,25.836563 43.3255944,25.836563 L40.8334034,25.836563 L40.8334034,31.2818963 L39.2124371,31.2818963 L39.2124371,19.0383407 Z M31.6489202,29.5218963 C32.0211112,29.0193778 32.206909,28.3224889 32.206909,27.4318222 L32.206909,27.3974519 L30.4989989,27.3974519 C29.615864,27.3974519 28.9596169,27.5017481 28.5296618,27.7097481 C28.0997067,27.9177481 27.8847292,28.2821926 27.8847292,28.8018963 C27.8847292,29.2647111 28.0419427,29.6261926 28.3557742,29.8863407 C28.6690101,30.1458963 29.1275494,30.2762667 29.7319876,30.2762667 C30.6383472,30.2762667 31.2773247,30.0250074 31.6489202,29.5218963 L31.6489202,29.5218963 Z M32.2765831,23.0620444 C32.7994371,23.3512296 33.1710326,23.7618963 33.3919652,24.2934519 C33.6123022,24.8250074 33.7230663,25.4839704 33.7230663,26.2703407 L33.7230663,31.2818963 L32.206909,31.2818963 L32.206909,30.1547852 C31.9282124,30.582637 31.5447067,30.9121185 31.0563921,31.1438222 C30.568673,31.3743407 29.9815045,31.4904889 29.296673,31.4904889 C28.3087292,31.4904889 27.5566056,31.2587852 27.0397067,30.796563 C26.5222124,30.3343407 26.2637629,29.7156741 26.2637629,28.9411556 C26.2637629,28.0042667 26.6127292,27.3340444 27.3094708,26.9293037 C28.0068079,26.524563 29.0286955,26.3224889 30.3769202,26.3224889 L32.206909,26.3224889 L32.206909,26.0451556 C32.206909,25.5479704 32.1455719,25.1373037 32.0240888,24.8131556 C31.9020101,24.4901926 31.6929876,24.2413037 31.3964258,24.0676741 C31.099864,23.894637 30.6907517,23.8075259 30.1678978,23.8075259 C29.4705607,23.8075259 28.9566393,23.9521185 28.6255382,24.2413037 C28.2944371,24.5304889 28.1288865,24.940563 28.1288865,25.4727111 L26.5775944,25.4727111 C26.5775944,24.582637 26.8824933,23.8857481 27.4928865,23.382637 C28.1026843,22.8801185 28.9887966,22.6282667 30.1506281,22.6282667 C31.0450775,22.6282667 31.7537292,22.7734519 32.2765831,23.0620444 L32.2765831,23.0620444 Z M21.9511112,30.8054519 C21.5616506,30.3947852 21.3675157,29.7269333 21.3675157,28.8018963 L21.3675157,24.0848593 L20.0431112,24.0848593 L20.0431112,22.8368593 L21.3675157,22.8368593 L21.3675157,20.7900444 L22.8658079,20.7900444 L22.8658079,22.8368593 L25.2883247,22.8368593 L25.2883247,24.0848593 L22.8658079,24.0848593 L22.8658079,28.5938963 C22.8658079,29.1260444 22.9795494,29.516563 23.2058416,29.7648593 C23.4321337,30.0131556 23.7781225,30.1376 24.2426169,30.1376 C24.5677629,30.1376 24.9048191,30.0913778 25.2537854,29.9989333 L25.2537854,31.2475259 C24.7654708,31.3630815 24.2890663,31.420563 23.8245719,31.420563 C22.9646618,31.420563 22.3399764,31.2161185 21.9511112,30.8054519 L21.9511112,30.8054519 Z M16.940527,29.5218963 C17.312718,29.0193778 17.4985157,28.3224889 17.4985157,27.4318222 L17.4985157,27.3974519 L15.7906056,27.3974519 C14.9074708,27.3974519 14.2506281,27.5017481 13.8212685,27.7097481 C13.3913135,27.9177481 13.176336,28.2821926 13.176336,28.8018963 C13.176336,29.2647111 13.3329539,29.6261926 13.6467854,29.8863407 C13.9606169,30.1458963 14.4191562,30.2762667 15.0235944,30.2762667 C15.9299539,30.2762667 16.5689315,30.0250074 16.940527,29.5218963 L16.940527,29.5218963 Z M17.5681899,23.0620444 C18.0910438,23.3512296 18.4626393,23.7618963 18.6835719,24.2934519 C18.903909,24.8250074 19.014673,25.4839704 19.014673,26.2703407 L19.014673,31.2818963 L17.4985157,31.2818963 L17.4985157,30.1547852 C17.2192236,30.582637 16.8363135,30.9121185 16.3479989,31.1438222 C15.8602798,31.3743407 15.2731112,31.4904889 14.5876843,31.4904889 C13.600336,31.4904889 12.8482124,31.2587852 12.330718,30.796563 C11.8138191,30.3343407 11.5553697,29.7156741 11.5553697,28.9411556 C11.5553697,28.0042667 11.904336,27.3340444 12.6010775,26.9293037 C13.2984146,26.524563 14.3203022,26.3224889 15.668527,26.3224889 L17.4985157,26.3224889 L17.4985157,26.0451556 C17.4985157,25.5479704 17.4371787,25.1373037 17.3151,24.8131556 C17.1930213,24.4901926 16.9839989,24.2413037 16.6880326,24.0676741 C16.3914708,23.894637 15.9823584,23.8075259 15.4595045,23.8075259 C14.7621674,23.8075259 14.2482461,23.9521185 13.9171449,24.2413037 C13.5860438,24.5304889 13.4198978,24.940563 13.4198978,25.4727111 L11.8692011,25.4727111 C11.8692011,24.582637 12.1741,23.8857481 12.7844933,23.382637 C13.394291,22.8801185 14.2798079,22.6282667 15.4416393,22.6282667 C16.3360888,22.6282667 17.045336,22.7734519 17.5681899,23.0620444 L17.5681899,23.0620444 Z M4.56711124,29.9296 C5.62413371,29.9296 6.45545955,29.7269333 7.05930225,29.3221926 C7.66314494,28.9180444 8.08476292,28.3687111 8.32296517,27.6753778 C8.56057191,26.9814519 8.68026854,26.1435259 8.68026854,25.1604148 C8.68026854,24.1660444 8.55818989,23.3221926 8.31403258,22.6282667 C8.07047079,21.9349333 7.64587528,21.388563 7.04203258,20.9897481 C6.43759438,20.5903407 5.6128191,20.3912296 4.56711124,20.3912296 L2.40602135,20.3912296 L2.40602135,29.9296 L4.56711124,29.9296 Z M0.785650562,19.0383407 L4.77613371,19.0383407 C6.76333596,19.0383407 8.19493146,19.590637 9.07211124,20.694637 C9.94929101,21.7992296 10.3881787,23.2872296 10.3881787,25.1604148 C10.3881787,27.0448593 9.94929101,28.5364148 9.07211124,29.6344889 C8.19493146,30.7331556 6.76333596,31.2818963 4.77613371,31.2818963 L0.785650562,31.2818963 L0.785650562,19.0383407 Z" id="Data-Platform" fill="#7D7D7D"></path>
                <path d="M47.6428315,7.1277037 C47.6428315,9.06785185 46.5226854,10.2388148 44.948764,10.2388148 C43.3742472,10.2388148 42.2546966,9.06785185 42.2546966,7.1277037 L42.2546966,0.279111111 L39.4034157,0.279111111 L39.4034157,7.01807407 C39.4034157,10.5665185 41.6425169,12.8065185 44.948764,12.8065185 C48.2550112,12.8065185 50.4935169,10.5665185 50.4935169,7.01807407 L50.4935169,0.279111111 L47.6428315,0.279111111 L47.6428315,7.1277037 Z M100.874483,7.75466667 L99.161809,3.4637037 L97.4485393,7.75466667 L100.874483,7.75466667 Z M105.663539,12.5274074 L102.779506,12.5274074 L101.781438,10.0272593 L96.5415843,10.0272593 L95.5441124,12.5274074 L92.6600787,12.5274074 L97.8558652,0.279111111 L100.409393,0.279111111 L105.663539,12.5274074 Z M88.7523708,4.50488889 C88.7523708,3.96385185 88.5350112,3.45718519 88.2051011,3.16859259 C87.8317191,2.84207407 87.295764,2.67140741 86.550191,2.67140741 L83.8245618,2.67140741 L83.8245618,6.34903704 L86.5585281,6.34903704 C87.289809,6.34903704 87.8102809,6.18488889 88.1788989,5.86962963 C88.5266742,5.57155556 88.7523708,5.06014815 88.7523708,4.50488889 L88.7523708,4.50488889 Z M88.4724831,8.40592593 L91.9835843,12.5274074 L88.664236,12.5274074 L85.3949101,8.66014815 L83.8245618,8.66014815 L83.8245618,12.5274074 L81.0316404,12.5274074 L81.0316404,0.279111111 L86.706809,0.279111111 C88.2890674,0.279111111 89.4508989,0.663703704 90.2840112,1.37244444 C91.1165281,2.08 91.6018652,3.16918519 91.6018652,4.46518519 C91.6018652,6.0877037 90.9086966,7.77362963 88.4724831,8.40592593 L88.4724831,8.40592593 Z M16.7884944,0.279111111 L13.9384045,0.279111111 L13.9384045,12.5274074 L22.5625169,12.5274074 L22.5625169,10.034963 L16.7884944,10.034963 L16.7884944,0.279111111 Z M6.58926966,10.2198519 C4.4841573,10.2198519 2.9578764,8.56711111 2.9578764,6.40177778 C2.9578764,4.23762963 4.4841573,2.58844444 6.58926966,2.58844444 C7.60282022,2.58844444 8.43950562,2.94637037 9.17078652,3.63614815 L11.0085169,1.80740741 C9.89730337,0.667851852 8.34958427,-3.55271368e-15 6.55949438,-3.55271368e-15 C2.85485393,-3.55271368e-15 2.84217094e-14,2.81244444 2.84217094e-14,6.40296296 C2.84217094e-14,9.99407407 2.85485393,12.8065185 6.55949438,12.8065185 C8.42938202,12.8065185 10.0682135,12.0545185 11.185382,10.7905185 L9.35717978,8.97185185 C8.61994382,9.7837037 7.73978652,10.2198519 6.58926966,10.2198519 L6.58926966,10.2198519 Z M62.7752247,6.40355556 C62.7752247,4.192 61.1697416,2.7277037 58.7787865,2.7277037 L56.8987753,2.7277037 L56.8987753,10.0794074 L58.7787865,10.0794074 C61.1697416,10.0794074 62.7752247,8.61451852 62.7752247,6.40355556 L62.7752247,6.40355556 Z M65.7331011,6.40355556 C65.7331011,10.0663704 63.0187865,12.5274074 58.9800674,12.5274074 L54.0480899,12.5274074 L54.0480899,0.279111111 L58.8597753,0.279111111 C62.8990899,0.279111111 65.7331011,2.74074074 65.7331011,6.40355556 L65.7331011,6.40355556 Z M33.6478539,6.42192593 C33.6478539,4.18903704 32.1781461,2.5682963 30.106382,2.5682963 C28.034618,2.5682963 26.5643146,4.18903704 26.5643146,6.42192593 C26.5643146,8.63407407 28.034618,10.2388148 30.106382,10.2388148 C32.1781461,10.2388148 33.6478539,8.63407407 33.6478539,6.42192593 L33.6478539,6.42192593 Z M36.6063258,6.42192593 C36.6063258,10.0023704 33.8818876,12.8065185 30.106382,12.8065185 C26.3308764,12.8065185 23.6070337,10.0023704 23.6070337,6.42192593 C23.6070337,2.82074074 26.3308764,-3.55271368e-15 30.106382,-3.55271368e-15 C33.8818876,-3.55271368e-15 36.6063258,2.82074074 36.6063258,6.42192593 L36.6063258,6.42192593 Z M67.0295169,12.5274074 L77.6914494,12.5274074 L77.6914494,9.99585185 L68.7159888,9.99585185 C68.3164045,10.9546667 67.7429326,11.8014815 67.0295169,12.5274074 L67.0295169,12.5274074 Z M76.1752921,7.61659259 L76.1752921,5.10992593 L69.2995843,5.10992593 C69.3591348,5.53896296 69.3996292,5.9762963 69.3996292,6.432 C69.3996292,6.83911111 69.3692584,7.23140741 69.3234045,7.61659259 L76.1752921,7.61659259 Z M66.8931461,0.279111111 L77.6354719,0.279111111 L77.6354719,2.81066667 L68.6683483,2.81066667 C68.2449438,1.84948148 67.6387191,1.00385185 66.8931461,0.279111111 L66.8931461,0.279111111 Z" id="Cloudera" fill="#F26722"></path>
            </g>
        </g>
    </g>
</svg>