<?xml version="1.0" encoding="UTF-8"?>
<svg width="192px" height="192px" viewBox="0 0 192 192" version="1.1" xmlns="http://www.w3.org/2000/svg" xmlns:xlink="http://www.w3.org/1999/xlink">
    <title>ic-cloudera-white-lg</title>
    <g id="Symbols" stroke="none" stroke-width="1" fill="none" fill-rule="evenodd">
        <g id="service-logos/cloudera/cloudera-large-white" fill="#FFFFFF">
            <path d="M154.615894,141.542737 L157.583803,144.496413 L118.25953,183.655091 C116.194806,183.870398 114.083873,183.926837 111.97714,184 L111.97714,184 L154.615894,141.542737 Z M147.647923,134.604211 L150.617933,137.559977 L104.074478,183.905307 C102.221897,183.80497 100.373518,183.702542 98.552444,183.489326 L98.552444,183.489326 L147.647923,134.604211 Z M140.679953,127.665685 L143.649962,130.621452 L91.6138795,182.435158 C89.9986479,182.115333 88.4317262,181.672177 86.8501015,181.266648 L86.8501015,181.266648 L140.679953,127.665685 Z M161.584914,148.481471 L164.552824,151.437238 L135.917645,179.949722 C133.273202,180.792136 130.574148,181.498677 127.828884,182.092339 L127.828884,182.092339 L161.584914,148.481471 Z M122.737439,137.565412 L80.6595006,179.46455 C79.1933996,178.971226 77.7420017,178.446546 76.311608,177.880059 L76.311608,177.880059 L115.020455,139.338036 C117.673299,138.970133 120.254729,138.384833 122.737439,137.565412 L122.737439,137.565412 Z M101.322493,139.099317 C103.072152,139.404509 104.855418,139.594732 106.66809,139.688798 L106.66809,139.688798 L70.7738211,175.429741 C69.4358464,174.790091 68.0663653,174.208972 66.7661984,173.506611 L66.7661984,173.506611 Z M168.553095,155.418534 L171.5,158.353396 C165.127292,164.699724 157.752678,170.028046 149.682821,174.208763 L149.682821,174.208763 L168.553095,155.418534 Z M90.7014522,135.800523 C92.0814355,136.431811 93.4950257,136.996208 94.9464237,137.485351 L94.9464237,137.485351 L61.791117,170.496287 C60.5812686,169.733306 59.379822,168.968235 58.2098818,168.150905 L58.2098818,168.150905 Z M82.035073,130.552052 C83.1546029,131.421641 84.3161413,132.23688 85.5196884,132.99568 L85.5196884,132.99568 L53.6351426,164.741949 C52.5387175,163.868179 51.4948032,162.933789 50.4424871,162.00776 L50.4424871,162.00776 Z M70.0109445,116.21554 C72.0945723,120.191401 74.7495173,123.830714 77.9064654,126.974613 L77.9064654,126.974613 L46.3999972,158.346707 C43.2724551,155.229983 40.4536765,151.820609 37.8197357,148.267 L37.8197357,148.267 Z M65.1135791,94.5391532 C65.0946752,95.0533813 65.0358631,95.5571576 65.0358631,96.0755664 C65.0358631,101.201125 65.9726554,106.103014 67.6067909,110.676718 L67.6067909,110.676718 L34.5502045,143.589406 C32.0695952,139.749418 29.8641424,135.715027 27.9989595,131.492504 L27.9989595,131.492504 Z M108.953359,8 C133.379274,8 155.492614,17.8602192 171.5,33.7971094 L171.5,33.7971094 L139.993532,65.1692038 C132.041299,57.2509273 121.060245,52.3448568 108.953359,52.3448568 C96.8443733,52.3448568 85.8654194,57.2509273 77.9131868,65.1692038 C72.4226596,70.6354902 68.4234386,77.562937 66.4448324,85.2826295 L66.4448324,85.2826295 L25.7678815,125.783318 C24.0581305,121.040295 22.745361,116.123773 21.8694812,111.042112 L21.8694812,111.042112 L72.9267631,60.2046033 L68.9443455,56.2412843 L20.9032828,104.072858 C20.6659341,101.436917 20.5,98.775891 20.5,96.0751484 C20.5,92.3501302 20.806663,88.7045457 21.2561552,85.1007683 L21.2561552,85.1007683 L59.5932258,46.9266486 L55.6108082,42.9612393 L23.0583252,75.3764224 C26.9336208,59.3810022 35.1000974,45.0557781 46.4067186,33.7971094 C62.4141049,17.8602192 84.5274447,8 108.953359,8 Z" id="cloudera"></path>
        </g>
    </g>
</svg>