<?xml version="1.0" encoding="UTF-8"?>
<svg width="24px" height="24px" viewBox="0 0 24 24" version="1.1" xmlns="http://www.w3.org/2000/svg" xmlns:xlink="http://www.w3.org/1999/xlink">
    <title>ic-data-analytics-studio</title>
    <g id="Symbols" stroke="none" stroke-width="1" fill="none" fill-rule="evenodd">
        <g id="icon" transform="translate(3.000000, 2.000000)">
            <path d="M17.88791,9.97704 C17.88791,11.25324 17.88841,12.52944 17.88771,13.80574 C17.88731,14.57514 17.60811,15.18314 17.03031,15.62434 C16.93891,15.69404 16.84081,15.76004 16.73441,15.82134 C14.52481,17.09574 12.31701,18.37314 10.11041,19.65274 C9.33281,20.10364 8.56881,20.09144 7.79311,19.64014 C5.61391,18.37254 3.43461,17.10484 1.24521,15.85504 C1.15331,15.80264 1.06761,15.74694 0.98651,15.68894 C0.34581,15.23064 0.03731,14.59764 0.03621,13.77924 C0.03271,11.25644 0.03241,8.73374 0.03621,6.21094 C0.03771,5.28864 0.43151,4.60334 1.24871,4.13714 C3.42561,2.89524 5.59331,1.63714 7.75741,0.37304 C8.56421,-0.09826 9.34491,-0.10696 10.15351,0.36454 C12.33141,1.63444 14.51371,2.89684 16.70021,4.15184 C17.51351,4.61864 17.89371,5.31004 17.8894461,6.23744 C17.88351,7.48394 17.88791,8.73054 17.88791,9.97704" id="Fill-1" fill="#FFFFFF"></path>
            <path d="M7.9362,0.24418 L5.3421,1.74188 L5.3421,5.60458 L8.8069,4.67468 L8.9614,4.63318 L8.9614,4.58458 L8.9614,7.99999999e-05 C8.5898,7.99999999e-05 8.2182,0.08148 7.9362,0.24418" id="Fill-3" fill="#E17000"></path>
            <polygon id="Fill-5" fill="#3FAE2A" points="9.05058 4.60927 8.96148 4.58457 8.96148 4.63317"></polygon>
            <path d="M5.3421,6.22587 L4.7421,6.38687 L4.7421,5.76567 L4.7421,2.08827 L1.0253,4.23417 C0.4614,4.55977 3.30402372e-13,5.35887 3.30402372e-13,6.00997 L3.30402372e-13,7.03847 L3.30402372e-13,7.65967 L3.30402372e-13,13.03727 L3.30402372e-13,13.99007 C3.30402372e-13,14.64117 0.4614,15.44027 1.0253,15.76577 L4.7421,17.91167 L5.3421,18.25807 L7.6605,19.59667 L7.9362,19.75587 C8.2181,19.91867 8.5898,20.00007 8.9614,20.00007 L8.9614,15.45807 L8.9614,14.83557 L8.9614,10.30007 L8.9614,9.70007 L8.9614,5.25437 L5.3421,6.22587 Z" id="Fill-7" fill="#418FB2"></path>
            <path d="M16.21935,13.45253 L15.61935,13.61833 L15.61935,12.99583 L15.61935,10.30003 L13.08605,10.30003 L12.48605,10.30003 L12.48605,9.70003 L12.48605,6.18103 L9.04825,5.23113 L8.96145,5.20703 L8.96145,5.25443 L8.96145,9.70003 L8.96145,10.30003 L8.96145,14.83563 L8.96145,15.45803 L8.96145,20.00003 C9.33315,20.00003 9.70475,19.91863 9.98665,19.75583 L12.48605,18.31283 L13.08605,17.96643 L15.61935,16.50383 L16.21935,16.15743 L16.89765,15.76583 C17.46155,15.44023 17.92285,14.64123 17.92285,13.99003 L17.92285,13.02883 L17.92285,12.98183 L16.21935,13.45253 Z" id="Fill-10" fill="#3DB5E6"></path>
            <path d="M17.90065,5.7537 C17.80275,5.1619 17.38935,4.5181 16.89765,4.2342 L16.21935,3.8426 L15.61935,3.4962 L13.08605,2.0336 L12.48605,1.6872 L9.98665,0.2442 C9.70475,0.0814 9.33315,-7.46069873e-14 8.96145,-7.46069873e-14 L8.96145,4.5846 L9.05055,4.6093 L9.30295,4.679 L12.48605,5.5585 L13.08605,5.7244 L15.61935,6.4244 L16.21935,6.5901 L17.92285,7.0609 L17.92285,6.01 C17.92285,5.9266 17.91515,5.8407 17.90065,5.7537" id="Fill-13" fill="#FFC61E"></path>
            <polygon id="Fill-16" fill="#FFC61E" points="16.21935 12.83007 17.92285 12.35937 17.92285 10.30007 16.21935 10.30007"></polygon>
            <polygon id="Fill-18" fill="#FFC61E" points="15.61935 7.04682 13.08605 6.34682 13.08605 9.70002 15.61935 9.70002 16.21935 9.70002 17.92285 9.70002 17.92285 7.68332 16.21935 7.21262"></polygon>
        </g>
    </g>
</svg>