<?xml version="1.0" encoding="UTF-8"?>
<svg width="24px" height="24px" viewBox="0 0 24 24" version="1.1" xmlns="http://www.w3.org/2000/svg" xmlns:xlink="http://www.w3.org/1999/xlink">
    <title>ic-smm-ui</title>
    <g id="Symbols" stroke="none" stroke-width="1" fill="none" fill-rule="evenodd">
        <g id="icon" transform="translate(3.250000, 2.000000)">
            <path d="M6.081,11.0903 L2.298,8.4623 L8.398,19.9523 C8.516,19.9693 8.632,20.0003 8.751,20.0003 L8.751,10.1393 L6.081,11.0903 Z" id="Fill-1" fill="#8CCE7F"></path>
            <path d="M17.5029,8.9063 L17.5029,6.2413 C17.5029,5.3423 17.0289,4.5093 16.2569,4.0493 L10.0559,0.3593 C9.7209,0.1593 9.3499,0.0633 8.9749,0.0303 L14.2209,8.9063 L17.5029,8.9063 Z" id="Fill-4" fill="#427C97"></path>
            <path d="M8.7514,0 C8.3004,0 7.8484,0.12 7.4464,0.359 L1.2464,4.049 C0.7994,4.315 0.4694,4.712 0.2564,5.168 L8.7514,10.109 L8.7514,0 Z" id="Fill-6" fill="#3DB5E6"></path>
            <path d="M8.7514,20 C9.2024,20 9.6544,19.88 10.0564,19.641 L16.2564,15.951 C16.6464,15.719 16.9594,15.391 17.1734,15.009 L8.7514,10.109 L8.7514,20 Z" id="Fill-8" fill="#3D9A35"></path>
            <path d="M0,8.4624 L0,13.7584 C0,14.6574 0.474,15.4904 1.246,15.9504 L7.447,19.6414 C7.743,19.8174 8.068,19.9064 8.398,19.9524 L2.298,8.4624 L0,8.4624 Z" id="Fill-10" fill="#3FAE2A"></path>
            <path d="M8.9746,0.0298 C8.8996,0.0238 8.8266,-0.0002 8.7516,-0.0002 L8.7516,10.1098 L14.2216,8.9058 L8.9746,0.0298 Z" id="Fill-12" fill="#418FB2"></path>
            <path d="M8.7514,10.1094 L17.1734,15.0084 C17.3854,14.6324 17.5024,14.2044 17.5024,13.7584 L17.5024,8.9064 L13.8114,8.9064 L8.7514,10.1094 Z" id="Fill-15" fill="#3B8640"></path>
            <path d="M8.7514,10.1396 L8.7514,10.1096 L0.2564,5.1676 C0.1014,5.5006 0.0004,5.8616 0.0004,6.2416 L0.0004,8.9066 L2.2974,8.9066 L6.0814,11.0906 L8.7514,10.1396 Z" id="Fill-17" fill="#7EC7EE"></path>
            <path d="M9.5683,5.1973 C10.1073,5.1973 10.5443,5.6343 10.5443,6.1733 L10.5443,11.4383 C10.5443,12.4753 10.2193,13.2953 9.5713,13.8983 C8.9223,14.5013 8.0363,14.8023 6.9133,14.8023 C5.8063,14.8023 4.9283,14.5103 4.2773,13.9243 C3.6273,13.3383 3.2953,12.5333 3.2813,11.5093 L3.2813,6.1733 C3.2813,5.6343 3.7183,5.1973 4.2573,5.1973 C4.7973,5.1973 5.2343,5.6343 5.2343,6.1733 L5.2343,11.4513 C5.2343,12.0723 5.3823,12.5243 5.6793,12.8083 C5.9763,13.0933 6.3883,13.2343 6.9133,13.2343 C8.0103,13.2343 8.5683,12.6573 8.5853,11.5033 L8.5853,6.1733 C8.5853,5.6343 9.0223,5.1973 9.5613,5.1973 L9.5683,5.1973 Z" id="Fill-19" fill="#FFFFFF"></path>
            <path d="M13.2451,14.6724 L13.2451,14.6724 C12.7061,14.6724 12.2691,14.2354 12.2691,13.6964 L12.2691,6.1734 C12.2691,5.6344 12.7061,5.1974 13.2451,5.1974 C13.7841,5.1974 14.2211,5.6344 14.2211,6.1734 L14.2211,13.6964 C14.2211,14.2354 13.7841,14.6724 13.2451,14.6724" id="Fill-21" fill="#FFFFFF"></path>
        </g>
    </g>
</svg>