<?xml version="1.0" encoding="UTF-8"?>
<svg width="24px" height="24px" viewBox="0 0 24 24" version="1.1" xmlns="http://www.w3.org/2000/svg" xmlns:xlink="http://www.w3.org/1999/xlink">
    <title>ic-serv-mgr</title>
    <g id="Symbols" stroke="none" stroke-width="1" fill="none" fill-rule="evenodd">
        <g id="service-logos/cloudera/service-mgr" fill="#000000">
            <path d="M19.241,16.6961913 L21,17.729938 L12,23 L3,17.729938 L4.76,16.6961913 L12,20.9344553 L19.241,16.6961913 Z M17.68,12.6917626 L21,14.641364 L19.11,15.7511072 L18.3,16.2294951 L18.17,16.3074402 L16.41,17.3392383 L15.6,17.8078831 L15.6,17.8166519 L13.71,18.9078831 L12,19.9124004 L10.29,18.9078831 L8.4,17.8166519 L8.4,17.8078831 L7.59,17.3392383 L5.831,16.3074402 L5.7,16.2294951 L4.89,15.7511072 L3,14.641364 L6.32,12.6917626 L8.21,13.8024801 L6.77,14.641364 L12,17.7094774 L17.23,14.641364 L15.79,13.8024801 L16.41,13.4419841 L17.68,12.6917626 Z M13.2702,1 L13.4922,2.2954473 C13.752,2.37612046 14.0046,2.47842338 14.247,2.6006023 L15.3438,1.83654562 L17.1408,3.58797166 L16.3572,4.65659876 C16.4826,4.89277236 16.5876,5.13888397 16.6704,5.39142604 L18,5.60830824 L18,8.08345438 L16.6704,8.29975199 C16.5876,8.55287865 16.4826,8.79899026 16.3572,9.03457927 L17.1408,10.103791 L15.3438,11.8546324 L14.247,11.0911603 C14.0046,11.2127547 13.752,11.3150576 13.4922,11.3963153 L13.2702,12.6917626 L10.7298,12.6917626 L10.5078,11.3963153 C10.248,11.3150576 9.9954,11.2127547 9.753,11.0911603 L8.6562,11.8546324 L6.8592,10.103791 L7.6428,9.03457927 C7.5174,8.79899026 7.4124,8.55287865 7.3296,8.29975199 L6,8.08345438 L6,5.60830824 L7.3296,5.39142604 C7.4124,5.13888397 7.5174,4.89277236 7.6428,4.65659876 L6.8592,3.58797166 L8.6562,1.83654562 L9.753,2.6006023 C9.9954,2.47842338 10.248,2.37612046 10.5078,2.2954473 L10.7298,1 L13.2702,1 Z M12,3.92294066 C10.3453984,3.92294066 9,5.23378052 9,6.84588131 C9,8.4579821 10.3453984,9.76882197 12,9.76882197 C13.6546016,9.76882197 15,8.4579821 15,6.84588131 C15,5.23378052 13.6546016,3.92294066 12,3.92294066 Z" id="Combined-Shape"></path>
        </g>
    </g>
</svg>