<?xml version="1.0" encoding="UTF-8"?>
<svg width="24px" height="24px" viewBox="0 0 24 24" version="1.1" xmlns="http://www.w3.org/2000/svg" xmlns:xlink="http://www.w3.org/1999/xlink">
    <title>ic-yarn-qm</title>
    <g id="Symbols" stroke="none" stroke-width="1" fill="none" fill-rule="evenodd">
        <g id="icon" transform="translate(2.000000, 4.000000)">
            <polygon id="bracket" fill="#828282" points="0 9.9997 0 15.9997 20 15.9997 20 12.0007 19 12.0007 19 14.9997 1 14.9997 1 9.9997"></polygon>
            <g id="stack-1" transform="translate(5.000000, -0.000200)">
                <polygon id="stack-1-orange" fill="#F6C999" points="2.5 7.0002 2.5 6.5002 3 6.5002 4 6.5002 4 5.0002 0 5.0002 0 9.0002 2.5 9.0002"></polygon>
                <polygon id="stack-1-blue" fill="#B8D1F4" points="0.0004 -1.26121336e-13 0.0004 4.001 3.0004 4.001 3.0004 2 4.0004 2 4.0004 -1.26121336e-13"></polygon>
            </g>
            <g id="stack-2" transform="translate(8.000000, 2.000000)">
                <polygon id="stack-2-orange" fill="#ED9333" points="2.5 7 2.5 6.5 3 6.5 4 6.5 4 5 0 5 0 9 2.5 9"></polygon>
                <polygon id="stack-2-blue" fill="#71A4E9" points="2.5 2 2.5 1.5 3 1.5 4 1.5 4 0 0 0 0 4 2.5 4"></polygon>
            </g>
            <g id="stack-3" transform="translate(11.000000, 4.000000)">
                <polygon id="stack-3-orange" fill="#E87800" points="1.0125234e-13 9.0006 4.001 9.0006 4.001 4.9996 1.0125234e-13 4.9996"></polygon>
                <polygon id="stack-3-blue" fill="#4D8DE3" points="1.0125234e-13 4 4.001 4 4.001 0 1.0125234e-13 0"></polygon>
            </g>
            <g id="arrows" transform="translate(0.000000, 2.249600)">
                <polygon id="blue-arrow" fill="#4D8DE3" points="16.75 6.3104 20 8.6194 20 4.0004"></polygon>
                <polygon id="orange-arrow" fill="#E87800" points="0 4.619 3.25 2.31 0 7.10542736e-14"></polygon>
            </g>
        </g>
    </g>
</svg>